M48
;DRILL file {KiCad (5.0.0-3-g5ebb6b6)} date Thursday, October 11, 2018 at 11:35:56 PM
;FORMAT={-:-/ absolute / metric / decimal}
FMAT,2
METRIC,TZ
T1C0.400
T2C0.700
T3C0.800
T4C1.000
T5C1.499
T6C3.200
T7C3.988
T8C8.000
%
G90
G05
M71
T1
X17.Y120.
X17.Y91.
X17.Y75.
X17.Y49.
X19.5Y84.25
X20.Y103.
X20.5Y73.
X21.5Y65.25
X24.Y148.
X27.3Y43.6
X28.Y129.5
X29.Y58.
X33.Y110.5
X34.Y76.
X34.5Y45.
X35.5Y91.5
X41.5Y62.
X42.Y88.
X42.5Y148.5
X43.Y45.
X44.Y33.5
X44.5Y55.5
X47.5Y130.
X49.4Y54.5
X52.7Y41.2
X53.Y76.
X54.8Y53.8
X56.5Y51.5
X57.Y110.5
X58.Y71.
X60.5Y33.5
X61.Y91.
X61.5Y148.5
X62.5Y40.5
X65.Y129.5
X69.Y162.
X72.Y76.
X74.6Y32.2
X76.Y110.5
X76.Y68.
X76.Y60.
X76.5Y54.
X79.5Y91.
X80.Y148.5
X80.5Y38.
X84.5Y129.5
X85.Y25.
X85.Y15.
X89.Y56.5
X90.Y42.
X90.Y20.
X90.2Y51.2
X91.Y76.
X92.6Y32.2
X94.Y110.5
X95.Y68.
X95.Y25.
X95.Y15.
X98.Y148.
X98.Y91.
X100.Y20.
X103.4Y56.4
X103.4Y51.2
X103.5Y129.5
X105.Y25.
X105.Y15.
X108.4Y42.6
X108.6Y32.2
X109.5Y76.5
X109.8Y38.
X110.Y20.
X110.Y10.
X113.Y162.
X113.Y110.5
X115.Y25.
X117.5Y148.
X118.Y91.5
X118.5Y57.5
X119.8Y28.8
X120.Y20.
X120.Y10.
X120.5Y38.
X122.5Y129.5
X124.6Y32.2
X125.Y15.
X126.51Y46.151
X128.Y77.5
X128.Y67.5
X128.Y26.
X132.Y110.
X134.Y68.5
X135.Y25.
X135.Y15.
X136.5Y91.5
X137.Y148.
X137.5Y40.
X138.5Y57.
X140.Y20.
X140.6Y32.2
X141.Y129.5
X147.Y146.
X147.Y15.
X147.5Y76.
X150.Y25.
X151.Y110.
X151.Y48.
X152.5Y68.5
X155.Y20.
X155.5Y91.
X157.Y162.
X157.5Y38.
X159.5Y129.
X160.Y25.
X160.Y15.
X162.6Y32.2
X165.Y20.
X165.Y10.
X166.5Y75.5
X168.5Y57.5
X170.Y110.
X170.Y25.
X171.5Y69.
X174.Y91.
X174.Y50.
X174.5Y148.
X175.Y20.
X175.Y10.
X176.5Y38.5
X179.Y129.
X180.Y15.
X182.51Y52.401
X183.Y23.4
X184.Y32.2
X185.6Y28.8
X188.Y162.
X188.5Y41.5
X189.Y129.
X189.Y110.5
X189.Y26.
X190.Y69.
X190.Y15.
X191.Y76.5
X193.Y91.5
X193.5Y148.
X195.Y24.5
X195.Y20.
X197.5Y23.75
X198.5Y129.5
X198.75Y110.
X200.Y57.
X200.Y15.
X200.25Y23.
X202.4Y32.2
X202.75Y22.25
X203.Y49.
X205.Y20.
X207.5Y110.
X208.5Y131.5
X210.Y25.
X210.Y15.
X211.5Y69.
X212.Y148.
X213.Y91.
X217.Y129.
X217.Y38.
X218.Y57.
X218.5Y49.5
X222.Y73.
X223.5Y49.5
X226.4Y32.2
X226.5Y110.
X227.75Y131.5
X230.5Y148.
X231.Y91.
X232.Y69.
X232.Y38.
X236.5Y129.5
X237.Y110.
X238.Y72.
X238.Y57.
X242.5Y49.5
X245.5Y110.
X246.25Y131.5
X248.Y162.
X248.4Y32.2
X248.5Y69.
X249.Y148.
X249.Y91.
X255.Y129.
X255.5Y110.
X256.5Y57.
X257.5Y72.5
X258.26Y53.401
X259.Y97.
X259.26Y54.401
X260.Y39.
X261.Y59.5
X262.25Y55.25
X263.5Y110.
X264.9Y43.9
X265.Y73.5
X265.5Y49.
X266.82Y41.21
X267.5Y147.5
X267.5Y64.5
X268.25Y55.75
X269.Y106.
X269.Y94.
X269.5Y127.
X269.76Y119.631
X270.5Y60.75
X270.6Y32.2
X271.26Y138.631
X274.5Y127.
X274.5Y44.
X276.5Y71.
X277.Y46.
X277.51Y102.651
X277.76Y103.901
X278.Y162.
X278.Y110.
X278.Y43.
X278.5Y146.5
X280.Y77.5
X281.5Y91.
X282.25Y66.75
X282.6Y55.1
X283.3Y48.2
X283.5Y129.5
X284.Y40.
X286.Y57.
X286.Y45.
X287.Y110.
X287.01Y84.401
X289.5Y91.5
X289.5Y65.5
X290.Y49.5
X290.5Y148.
X290.5Y41.5
X291.01Y103.901
X292.Y46.5
X292.2Y39.2
X292.25Y95.75
X292.25Y80.
X292.25Y60.
X293.Y115.
X293.51Y102.651
X294.Y33.
X295.5Y91.
X295.5Y68.5
X296.Y56.
X297.Y110.5
X297.5Y132.
X297.76Y100.651
X298.76Y81.651
X300.Y84.
X300.Y45.
T2
X28.6Y50.5
X31.1Y50.5
T3
X278.05Y68.02
X278.05Y65.48
X278.05Y62.94
X278.05Y60.4
X285.67Y68.02
X285.67Y65.48
X285.67Y62.94
X285.67Y60.4
X112.26Y13.6
X114.8Y13.6
X117.34Y13.6
X123.5Y24.84
X123.5Y22.3
X123.5Y19.76
X275.Y68.5
X275.Y58.34
X271.5Y68.5
X271.5Y58.34
X68.75Y45.75
X68.75Y35.59
X65.25Y45.75
X65.25Y35.59
X23.49Y47.521
X23.49Y39.901
X26.03Y47.521
X26.03Y39.901
X28.57Y47.521
X28.57Y39.901
X31.11Y47.521
X31.11Y39.901
X33.65Y47.521
X33.65Y39.901
X36.19Y47.521
X36.19Y39.901
X38.73Y47.521
X38.73Y39.901
X41.27Y47.521
X41.27Y39.901
X43.81Y47.521
X43.81Y39.901
X46.35Y47.521
X46.35Y39.901
X48.89Y47.521
X48.89Y39.901
X51.43Y47.521
X51.43Y39.901
X53.97Y47.521
X53.97Y39.901
X56.51Y47.521
X56.51Y39.901
X263.Y53.021
X263.Y37.781
X265.54Y53.021
X265.54Y37.781
X268.08Y53.021
X268.08Y37.781
X270.62Y53.021
X270.62Y37.781
X273.16Y53.021
X273.16Y37.781
X275.7Y53.021
X275.7Y37.781
X278.24Y53.021
X278.24Y37.781
X280.78Y53.021
X280.78Y37.781
X283.32Y53.021
X283.32Y37.781
X285.86Y53.021
X285.86Y37.781
X288.4Y53.021
X288.4Y37.781
X290.94Y53.021
X290.94Y37.781
X293.48Y53.021
X293.48Y37.781
X296.02Y53.021
X296.02Y50.481
X296.02Y47.941
X296.02Y45.401
X296.02Y42.861
X296.02Y40.321
X296.02Y37.781
X264.5Y68.5
X264.5Y58.34
X268.Y68.5
X268.Y58.34
X169.16Y13.6
X171.7Y13.6
X174.24Y13.6
X180.4Y24.84
X180.4Y22.3
X180.4Y19.76
T4
X239.18Y105.901
X244.26Y105.901
X243.93Y143.901
X249.01Y143.901
X234.43Y67.901
X239.51Y67.901
X248.68Y124.901
X253.76Y124.901
X129.93Y143.901
X135.01Y143.901
X253.43Y67.901
X258.51Y67.901
X106.26Y46.151
X106.26Y41.071
X53.93Y86.901
X59.01Y86.901
X277.18Y124.901
X282.26Y124.901
X82.43Y67.901
X87.51Y67.901
X110.93Y48.901
X116.01Y48.901
X129.93Y86.901
X135.01Y86.901
X139.43Y67.901
X144.51Y67.901
X115.68Y124.901
X120.76Y124.901
X124.26Y46.151
X124.26Y41.071
X34.93Y143.901
X40.01Y143.901
X153.68Y124.901
X158.76Y124.901
X167.93Y86.901
X173.01Y86.901
X44.43Y67.901
X49.51Y67.901
X160.68Y48.901
X165.76Y48.901
X85.01Y59.981
X85.01Y54.901
X72.93Y86.901
X78.01Y86.901
X186.93Y143.901
X192.01Y143.901
X182.18Y105.901
X187.26Y105.901
X177.43Y67.901
X182.51Y67.901
X180.26Y46.651
X180.26Y41.571
X191.68Y124.901
X196.76Y124.901
X205.93Y86.901
X211.01Y86.901
X210.68Y48.901
X215.76Y48.901
X210.68Y124.901
X215.76Y124.901
X224.93Y86.901
X230.01Y86.901
X101.43Y67.901
X106.51Y67.901
X63.5Y60.08
X63.5Y55.
X229.68Y48.901
X234.76Y48.901
X286.68Y143.901
X291.76Y143.901
X106.18Y105.901
X111.26Y105.901
X90.5Y27.5
X93.04Y27.5
X25.43Y105.901
X30.51Y105.901
X262.93Y143.901
X268.01Y143.901
X134.93Y124.901
X140.01Y124.901
X20.68Y124.901
X25.76Y124.901
X148.93Y86.901
X154.01Y86.901
X77.68Y124.901
X82.76Y124.901
X53.93Y143.901
X59.01Y143.901
X87.18Y105.901
X92.26Y105.901
X192.5Y37.
X195.04Y37.
X197.58Y37.
X200.12Y37.
X202.66Y37.
X205.2Y37.
X91.93Y144.401
X97.01Y144.401
X91.93Y86.901
X97.01Y86.901
X221.Y326.16
X221.Y323.62
X221.Y321.08
X221.Y318.54
X221.Y316.
X229.68Y124.901
X234.76Y124.901
X72.93Y143.901
X78.01Y143.901
X258.18Y105.901
X263.26Y105.901
X244.01Y65.151
X244.01Y60.071
X25.43Y67.901
X30.51Y67.901
X120.43Y67.901
X125.51Y67.901
X129.93Y48.901
X135.01Y48.901
X110.93Y143.901
X116.01Y143.901
X167.93Y143.901
X173.01Y143.901
X58.68Y124.901
X63.76Y124.901
X274.93Y86.901
X280.01Y86.901
X163.18Y105.901
X168.26Y105.901
X158.43Y67.901
X163.51Y67.901
X68.18Y105.901
X73.26Y105.901
X144.26Y46.151
X144.26Y41.071
X63.43Y67.901
X68.51Y67.901
X172.68Y124.901
X177.76Y124.901
X186.93Y86.901
X192.01Y86.901
X191.68Y48.901
X196.76Y48.901
X192.5Y27.5
X195.04Y27.5
X197.58Y27.5
X200.12Y27.5
X202.66Y27.5
X205.2Y27.5
X205.93Y143.901
X211.01Y143.901
X201.18Y105.901
X206.26Y105.901
X196.43Y67.901
X201.51Y67.901
X224.93Y143.901
X230.01Y143.901
X220.18Y105.901
X225.26Y105.901
X215.43Y67.901
X220.51Y67.901
X96.68Y124.901
X101.76Y124.901
X125.18Y105.901
X130.26Y105.901
X110.93Y86.901
X116.01Y86.901
X243.93Y86.901
X249.01Y86.901
X144.18Y105.901
X149.26Y105.901
X27.68Y86.901
X32.76Y86.901
X281.93Y105.901
X287.01Y105.901
X90.5Y37.
X93.04Y37.
X49.18Y105.901
X54.26Y105.901
X268.01Y84.401
X268.01Y79.321
X39.68Y125.151
X44.76Y125.151
T5
X243.95Y155.091
X250.3Y157.631
X239.2Y117.091
X245.55Y119.631
X253.45Y79.091
X259.8Y81.631
X148.95Y41.091
X155.3Y43.631
X134.7Y136.091
X141.05Y138.631
X172.7Y136.091
X179.05Y138.631
X89.575Y60.091
X95.925Y62.631
X148.95Y98.091
X155.3Y100.631
X229.7Y60.091
X236.05Y62.631
X224.95Y155.091
X231.3Y157.631
X186.95Y98.091
X193.3Y100.631
X229.7Y136.091
X236.05Y138.631
X191.7Y60.091
X198.05Y62.631
X139.45Y79.091
X145.8Y81.631
X129.95Y60.091
X136.3Y62.631
X72.95Y155.091
X79.3Y157.631
X205.95Y98.091
X212.3Y100.631
X286.7Y155.091
X293.05Y157.631
X205.95Y155.091
X212.3Y157.631
X110.95Y98.091
X117.3Y100.631
X210.7Y60.091
X217.05Y62.631
X234.45Y79.091
X240.8Y81.631
X25.45Y79.091
X31.8Y81.631
X68.2Y117.091
X74.55Y119.631
X39.7Y136.091
X46.05Y138.631
X53.95Y98.091
X60.3Y100.631
X53.95Y155.091
X60.3Y157.631
X160.825Y60.091
X167.175Y62.631
X262.95Y155.091
X269.3Y157.631
X277.2Y136.091
X283.55Y138.631
X101.45Y79.091
X107.8Y81.631
X27.825Y98.091
X34.175Y100.631
X115.7Y136.091
X122.05Y138.631
X77.7Y136.091
X84.05Y138.631
X129.95Y98.091
X136.3Y100.631
X91.95Y98.091
X98.3Y100.631
X110.95Y60.091
X117.3Y62.631
X68.2Y60.091
X74.55Y62.631
X167.95Y155.091
X174.3Y157.631
X191.7Y136.091
X198.05Y138.631
X163.2Y117.091
X169.55Y119.631
X91.95Y155.091
X98.3Y157.631
X201.2Y117.091
X207.55Y119.631
X258.2Y117.091
X264.55Y119.631
X158.45Y79.091
X164.8Y81.631
X129.95Y155.091
X136.3Y157.631
X186.95Y155.091
X193.3Y157.631
X144.2Y117.091
X150.55Y119.631
X182.2Y117.091
X188.55Y119.631
X272.45Y79.091
X278.8Y81.631
X177.45Y79.091
X183.8Y81.631
X96.7Y136.091
X103.05Y138.631
X63.45Y79.091
X69.8Y81.631
X167.95Y41.091
X174.3Y43.631
X106.2Y117.091
X112.55Y119.631
X274.825Y98.091
X281.175Y100.631
X20.7Y136.091
X27.05Y138.631
X224.95Y98.091
X231.3Y100.631
X34.95Y155.091
X41.3Y157.631
X49.2Y117.091
X55.55Y119.631
X44.45Y79.091
X50.8Y81.631
X248.7Y60.091
X255.05Y62.631
X58.7Y136.091
X65.05Y138.631
X248.7Y136.091
X255.05Y138.631
X281.95Y117.091
X288.3Y119.631
X72.95Y98.091
X79.3Y100.631
X220.2Y117.091
X226.55Y119.631
X110.95Y155.091
X117.3Y157.631
X25.45Y117.091
X31.8Y119.631
X196.45Y79.091
X202.8Y81.631
X125.2Y117.091
X131.55Y119.631
X87.2Y117.091
X93.55Y119.631
X120.45Y79.091
X126.8Y81.631
X82.45Y79.091
X88.8Y81.631
X129.95Y41.091
X136.3Y43.631
X110.95Y41.091
X117.3Y43.631
X243.95Y98.091
X250.3Y100.631
X153.7Y136.091
X160.05Y138.631
X210.7Y136.091
X217.05Y138.631
X215.45Y79.091
X221.8Y81.631
X167.95Y98.091
X174.3Y100.631
T6
X303.5Y294.
X13.5Y174.
X186.Y14.
X303.5Y174.
X143.Y22.
X152.Y289.
X13.5Y294.
X100.5Y14.
X152.Y195.
T7
X72.01Y114.551
X43.51Y133.551
X57.76Y95.551
X57.76Y152.551
X164.635Y57.551
X266.76Y152.551
X281.01Y133.551
X105.26Y76.551
X31.635Y95.551
X119.51Y133.551
X81.51Y133.551
X133.76Y95.551
X95.76Y95.551
X114.76Y57.551
X72.01Y57.551
X171.76Y152.551
X195.51Y133.551
X167.01Y114.551
X95.76Y152.551
X205.01Y114.551
X262.01Y114.551
X162.26Y76.551
X133.76Y152.551
X190.76Y152.551
X148.01Y114.551
X186.01Y114.551
X276.26Y76.551
X181.26Y76.551
X100.51Y133.551
X67.26Y76.551
X171.76Y38.551
X110.01Y114.551
X278.635Y95.551
X24.51Y133.551
X228.76Y95.551
X38.76Y152.551
X53.01Y114.551
X48.26Y76.551
X252.51Y57.551
X62.51Y133.551
X252.51Y133.551
X285.76Y114.551
X76.76Y95.551
X224.01Y114.551
X114.76Y152.551
X29.26Y114.551
X200.26Y76.551
X129.01Y114.551
X91.01Y114.551
X124.26Y76.551
X86.26Y76.551
X133.76Y38.551
X114.76Y38.551
X247.76Y95.551
X157.51Y133.551
X214.51Y133.551
X219.26Y76.551
X171.76Y95.551
X247.76Y152.551
X243.01Y114.551
X257.26Y76.551
X152.76Y38.551
X138.51Y133.551
X176.51Y133.551
X93.385Y57.551
X152.76Y95.551
X233.51Y57.551
X228.76Y152.551
X190.76Y95.551
X233.51Y133.551
X195.51Y57.551
X143.26Y76.551
X133.76Y57.551
X76.76Y152.551
X209.76Y95.551
X290.51Y152.551
X209.76Y152.551
X114.76Y95.551
X214.51Y57.551
X238.26Y76.551
X29.26Y76.551
T8
X303.5Y156.
X13.5Y36.
X152.Y151.
X152.Y57.
X303.5Y36.
X13.5Y156.
T0
M30
