G04 #@! TF.GenerationSoftware,KiCad,Pcbnew,(5.0.0-3-g5ebb6b6)*
G04 #@! TF.CreationDate,2018-10-11T23:35:50+09:00*
G04 #@! TF.ProjectId,asceension,61736365656E73696F6E2E6B69636164,1*
G04 #@! TF.SameCoordinates,PXfde07cc8PYa7cf40c*
G04 #@! TF.FileFunction,Legend,Bot*
G04 #@! TF.FilePolarity,Positive*
%FSLAX46Y46*%
G04 Gerber Fmt 4.6, Leading zero omitted, Abs format (unit mm)*
G04 Created by KiCad (PCBNEW (5.0.0-3-g5ebb6b6)) date Thursday, October 11, 2018 at 11:35:50 PM*
%MOMM*%
%LPD*%
G01*
G04 APERTURE LIST*
%ADD10C,0.300000*%
%ADD11C,0.150000*%
%ADD12C,0.120000*%
%ADD13C,0.254000*%
G04 APERTURE END LIST*
D10*
X281500000Y332500000D02*
X281500000Y331500000D01*
X281500000Y331500000D02*
X283000000Y332000000D01*
X283000000Y332000000D02*
X281500000Y332500000D01*
X278500000Y332000000D02*
X283000000Y332000000D01*
X285928571Y332821428D02*
X285642857Y332821428D01*
X285500000Y332750000D01*
X285357142Y332607142D01*
X285285714Y332321428D01*
X285285714Y331821428D01*
X285357142Y331535714D01*
X285500000Y331392857D01*
X285642857Y331321428D01*
X285928571Y331321428D01*
X286071428Y331392857D01*
X286214285Y331535714D01*
X286285714Y331821428D01*
X286285714Y332321428D01*
X286214285Y332607142D01*
X286071428Y332750000D01*
X285928571Y332821428D01*
X284642857Y331321428D02*
X284642857Y332821428D01*
X283785714Y331321428D01*
X283785714Y332821428D01*
X277678571Y343321428D02*
X277678571Y344821428D01*
X277321428Y344821428D01*
X277107142Y344750000D01*
X276964285Y344607142D01*
X276892857Y344464285D01*
X276821428Y344178571D01*
X276821428Y343964285D01*
X276892857Y343678571D01*
X276964285Y343535714D01*
X277107142Y343392857D01*
X277321428Y343321428D01*
X277678571Y343321428D01*
X276250000Y343392857D02*
X276035714Y343321428D01*
X275678571Y343321428D01*
X275535714Y343392857D01*
X275464285Y343464285D01*
X275392857Y343607142D01*
X275392857Y343750000D01*
X275464285Y343892857D01*
X275535714Y343964285D01*
X275678571Y344035714D01*
X275964285Y344107142D01*
X276107142Y344178571D01*
X276178571Y344250000D01*
X276250000Y344392857D01*
X276250000Y344535714D01*
X276178571Y344678571D01*
X276107142Y344750000D01*
X275964285Y344821428D01*
X275607142Y344821428D01*
X275392857Y344750000D01*
X274892857Y344821428D02*
X274535714Y343321428D01*
X274250000Y344392857D01*
X273964285Y343321428D01*
X273607142Y344821428D01*
X272392857Y344321428D02*
X272392857Y343321428D01*
X272750000Y344892857D02*
X273107142Y343821428D01*
X272178571Y343821428D01*
X277678571Y335321428D02*
X277678571Y336821428D01*
X277321428Y336821428D01*
X277107142Y336750000D01*
X276964285Y336607142D01*
X276892857Y336464285D01*
X276821428Y336178571D01*
X276821428Y335964285D01*
X276892857Y335678571D01*
X276964285Y335535714D01*
X277107142Y335392857D01*
X277321428Y335321428D01*
X277678571Y335321428D01*
X276250000Y335392857D02*
X276035714Y335321428D01*
X275678571Y335321428D01*
X275535714Y335392857D01*
X275464285Y335464285D01*
X275392857Y335607142D01*
X275392857Y335750000D01*
X275464285Y335892857D01*
X275535714Y335964285D01*
X275678571Y336035714D01*
X275964285Y336107142D01*
X276107142Y336178571D01*
X276178571Y336250000D01*
X276250000Y336392857D01*
X276250000Y336535714D01*
X276178571Y336678571D01*
X276107142Y336750000D01*
X275964285Y336821428D01*
X275607142Y336821428D01*
X275392857Y336750000D01*
X274892857Y336821428D02*
X274535714Y335321428D01*
X274250000Y336392857D01*
X273964285Y335321428D01*
X273607142Y336821428D01*
X272250000Y335321428D02*
X273107142Y335321428D01*
X272678571Y335321428D02*
X272678571Y336821428D01*
X272821428Y336607142D01*
X272964285Y336464285D01*
X273107142Y336392857D01*
X300683333Y278424047D02*
X300683333Y277471666D01*
X301254761Y278614523D02*
X299254761Y277947857D01*
X301254761Y277281190D01*
X301159523Y276709761D02*
X301254761Y276424047D01*
X301254761Y275947857D01*
X301159523Y275757380D01*
X301064285Y275662142D01*
X300873809Y275566904D01*
X300683333Y275566904D01*
X300492857Y275662142D01*
X300397619Y275757380D01*
X300302380Y275947857D01*
X300207142Y276328809D01*
X300111904Y276519285D01*
X300016666Y276614523D01*
X299826190Y276709761D01*
X299635714Y276709761D01*
X299445238Y276614523D01*
X299350000Y276519285D01*
X299254761Y276328809D01*
X299254761Y275852619D01*
X299350000Y275566904D01*
X301064285Y273566904D02*
X301159523Y273662142D01*
X301254761Y273947857D01*
X301254761Y274138333D01*
X301159523Y274424047D01*
X300969047Y274614523D01*
X300778571Y274709761D01*
X300397619Y274805000D01*
X300111904Y274805000D01*
X299730952Y274709761D01*
X299540476Y274614523D01*
X299350000Y274424047D01*
X299254761Y274138333D01*
X299254761Y273947857D01*
X299350000Y273662142D01*
X299445238Y273566904D01*
X300207142Y272709761D02*
X300207142Y272043095D01*
X301254761Y271757380D02*
X301254761Y272709761D01*
X299254761Y272709761D01*
X299254761Y271757380D01*
X300207142Y270900238D02*
X300207142Y270233571D01*
X301254761Y269947857D02*
X301254761Y270900238D01*
X299254761Y270900238D01*
X299254761Y269947857D01*
X301254761Y269090714D02*
X299254761Y269090714D01*
X301254761Y267947857D01*
X299254761Y267947857D01*
X301159523Y267090714D02*
X301254761Y266805000D01*
X301254761Y266328809D01*
X301159523Y266138333D01*
X301064285Y266043095D01*
X300873809Y265947857D01*
X300683333Y265947857D01*
X300492857Y266043095D01*
X300397619Y266138333D01*
X300302380Y266328809D01*
X300207142Y266709761D01*
X300111904Y266900238D01*
X300016666Y266995476D01*
X299826190Y267090714D01*
X299635714Y267090714D01*
X299445238Y266995476D01*
X299350000Y266900238D01*
X299254761Y266709761D01*
X299254761Y266233571D01*
X299350000Y265947857D01*
X301254761Y265090714D02*
X299254761Y265090714D01*
X299254761Y263757380D02*
X299254761Y263376428D01*
X299350000Y263185952D01*
X299540476Y262995476D01*
X299921428Y262900238D01*
X300588095Y262900238D01*
X300969047Y262995476D01*
X301159523Y263185952D01*
X301254761Y263376428D01*
X301254761Y263757380D01*
X301159523Y263947857D01*
X300969047Y264138333D01*
X300588095Y264233571D01*
X299921428Y264233571D01*
X299540476Y264138333D01*
X299350000Y263947857D01*
X299254761Y263757380D01*
X301254761Y262043095D02*
X299254761Y262043095D01*
X301254761Y260900238D01*
X299254761Y260900238D01*
X299254761Y259566904D02*
X299254761Y259376428D01*
X299350000Y259185952D01*
X299445238Y259090714D01*
X299635714Y258995476D01*
X300016666Y258900238D01*
X300492857Y258900238D01*
X300873809Y258995476D01*
X301064285Y259090714D01*
X301159523Y259185952D01*
X301254761Y259376428D01*
X301254761Y259566904D01*
X301159523Y259757380D01*
X301064285Y259852619D01*
X300873809Y259947857D01*
X300492857Y260043095D01*
X300016666Y260043095D01*
X299635714Y259947857D01*
X299445238Y259852619D01*
X299350000Y259757380D01*
X299254761Y259566904D01*
X299254761Y257662142D02*
X299254761Y257471666D01*
X299350000Y257281190D01*
X299445238Y257185952D01*
X299635714Y257090714D01*
X300016666Y256995476D01*
X300492857Y256995476D01*
X300873809Y257090714D01*
X301064285Y257185952D01*
X301159523Y257281190D01*
X301254761Y257471666D01*
X301254761Y257662142D01*
X301159523Y257852619D01*
X301064285Y257947857D01*
X300873809Y258043095D01*
X300492857Y258138333D01*
X300016666Y258138333D01*
X299635714Y258043095D01*
X299445238Y257947857D01*
X299350000Y257852619D01*
X299254761Y257662142D01*
X301254761Y255090714D02*
X301254761Y256233571D01*
X301254761Y255662142D02*
X299254761Y255662142D01*
X299540476Y255852619D01*
X299730952Y256043095D01*
X299826190Y256233571D01*
X299254761Y252995476D02*
X299254761Y251852619D01*
X301254761Y252424047D02*
X299254761Y252424047D01*
X299254761Y250805000D02*
X299254761Y250424047D01*
X299350000Y250233571D01*
X299540476Y250043095D01*
X299921428Y249947857D01*
X300588095Y249947857D01*
X300969047Y250043095D01*
X301159523Y250233571D01*
X301254761Y250424047D01*
X301254761Y250805000D01*
X301159523Y250995476D01*
X300969047Y251185952D01*
X300588095Y251281190D01*
X299921428Y251281190D01*
X299540476Y251185952D01*
X299350000Y250995476D01*
X299254761Y250805000D01*
X301254761Y249090714D02*
X299254761Y249090714D01*
X299254761Y248328809D01*
X299350000Y248138333D01*
X299445238Y248043095D01*
X299635714Y247947857D01*
X299921428Y247947857D01*
X300111904Y248043095D01*
X300207142Y248138333D01*
X300302380Y248328809D01*
X300302380Y249090714D01*
X300207142Y244900238D02*
X300207142Y245566904D01*
X301254761Y245566904D02*
X299254761Y245566904D01*
X299254761Y244614523D01*
X301254761Y242709761D02*
X300302380Y243376428D01*
X301254761Y243852619D02*
X299254761Y243852619D01*
X299254761Y243090714D01*
X299350000Y242900238D01*
X299445238Y242805000D01*
X299635714Y242709761D01*
X299921428Y242709761D01*
X300111904Y242805000D01*
X300207142Y242900238D01*
X300302380Y243090714D01*
X300302380Y243852619D01*
X300683333Y241947857D02*
X300683333Y240995476D01*
X301254761Y242138333D02*
X299254761Y241471666D01*
X301254761Y240805000D01*
X301254761Y240138333D02*
X299254761Y240138333D01*
X300683333Y239471666D01*
X299254761Y238805000D01*
X301254761Y238805000D01*
X300207142Y237852619D02*
X300207142Y237185952D01*
X301254761Y236900238D02*
X301254761Y237852619D01*
X299254761Y237852619D01*
X299254761Y236900238D01*
X302745238Y278424047D02*
X302650000Y278328809D01*
X302554761Y278138333D01*
X302554761Y277662142D01*
X302650000Y277471666D01*
X302745238Y277376428D01*
X302935714Y277281190D01*
X303126190Y277281190D01*
X303411904Y277376428D01*
X304554761Y278519285D01*
X304554761Y277281190D01*
X302554761Y276043095D02*
X302554761Y275852619D01*
X302650000Y275662142D01*
X302745238Y275566904D01*
X302935714Y275471666D01*
X303316666Y275376428D01*
X303792857Y275376428D01*
X304173809Y275471666D01*
X304364285Y275566904D01*
X304459523Y275662142D01*
X304554761Y275852619D01*
X304554761Y276043095D01*
X304459523Y276233571D01*
X304364285Y276328809D01*
X304173809Y276424047D01*
X303792857Y276519285D01*
X303316666Y276519285D01*
X302935714Y276424047D01*
X302745238Y276328809D01*
X302650000Y276233571D01*
X302554761Y276043095D01*
X304554761Y273471666D02*
X304554761Y274614523D01*
X304554761Y274043095D02*
X302554761Y274043095D01*
X302840476Y274233571D01*
X303030952Y274424047D01*
X303126190Y274614523D01*
X303411904Y272328809D02*
X303316666Y272519285D01*
X303221428Y272614523D01*
X303030952Y272709761D01*
X302935714Y272709761D01*
X302745238Y272614523D01*
X302650000Y272519285D01*
X302554761Y272328809D01*
X302554761Y271947857D01*
X302650000Y271757380D01*
X302745238Y271662142D01*
X302935714Y271566904D01*
X303030952Y271566904D01*
X303221428Y271662142D01*
X303316666Y271757380D01*
X303411904Y271947857D01*
X303411904Y272328809D01*
X303507142Y272519285D01*
X303602380Y272614523D01*
X303792857Y272709761D01*
X304173809Y272709761D01*
X304364285Y272614523D01*
X304459523Y272519285D01*
X304554761Y272328809D01*
X304554761Y271947857D01*
X304459523Y271757380D01*
X304364285Y271662142D01*
X304173809Y271566904D01*
X303792857Y271566904D01*
X303602380Y271662142D01*
X303507142Y271757380D01*
X303411904Y271947857D01*
X304364285Y270709761D02*
X304459523Y270614523D01*
X304554761Y270709761D01*
X304459523Y270805000D01*
X304364285Y270709761D01*
X304554761Y270709761D01*
X304554761Y268709761D02*
X304554761Y269852619D01*
X304554761Y269281190D02*
X302554761Y269281190D01*
X302840476Y269471666D01*
X303030952Y269662142D01*
X303126190Y269852619D01*
X302554761Y267471666D02*
X302554761Y267281190D01*
X302650000Y267090714D01*
X302745238Y266995476D01*
X302935714Y266900238D01*
X303316666Y266805000D01*
X303792857Y266805000D01*
X304173809Y266900238D01*
X304364285Y266995476D01*
X304459523Y267090714D01*
X304554761Y267281190D01*
X304554761Y267471666D01*
X304459523Y267662142D01*
X304364285Y267757380D01*
X304173809Y267852619D01*
X303792857Y267947857D01*
X303316666Y267947857D01*
X302935714Y267852619D01*
X302745238Y267757380D01*
X302650000Y267662142D01*
X302554761Y267471666D01*
X304364285Y265947857D02*
X304459523Y265852619D01*
X304554761Y265947857D01*
X304459523Y266043095D01*
X304364285Y265947857D01*
X304554761Y265947857D01*
X304554761Y263947857D02*
X304554761Y265090714D01*
X304554761Y264519285D02*
X302554761Y264519285D01*
X302840476Y264709761D01*
X303030952Y264900238D01*
X303126190Y265090714D01*
X304554761Y262043095D02*
X304554761Y263185952D01*
X304554761Y262614523D02*
X302554761Y262614523D01*
X302840476Y262805000D01*
X303030952Y262995476D01*
X303126190Y263185952D01*
X304459523Y259757380D02*
X304554761Y259566904D01*
X304554761Y259185952D01*
X304459523Y258995476D01*
X304269047Y258900238D01*
X304173809Y258900238D01*
X303983333Y258995476D01*
X303888095Y259185952D01*
X303888095Y259471666D01*
X303792857Y259662142D01*
X303602380Y259757380D01*
X303507142Y259757380D01*
X303316666Y259662142D01*
X303221428Y259471666D01*
X303221428Y259185952D01*
X303316666Y258995476D01*
X304459523Y257185952D02*
X304554761Y257376428D01*
X304554761Y257757380D01*
X304459523Y257947857D01*
X304364285Y258043095D01*
X304173809Y258138333D01*
X303602380Y258138333D01*
X303411904Y258043095D01*
X303316666Y257947857D01*
X303221428Y257757380D01*
X303221428Y257376428D01*
X303316666Y257185952D01*
X303221428Y255471666D02*
X304554761Y255471666D01*
X303221428Y256328809D02*
X304269047Y256328809D01*
X304459523Y256233571D01*
X304554761Y256043095D01*
X304554761Y255757380D01*
X304459523Y255566904D01*
X304364285Y255471666D01*
X304554761Y254519285D02*
X303221428Y254519285D01*
X303411904Y254519285D02*
X303316666Y254424047D01*
X303221428Y254233571D01*
X303221428Y253947857D01*
X303316666Y253757380D01*
X303507142Y253662142D01*
X304554761Y253662142D01*
X303507142Y253662142D02*
X303316666Y253566904D01*
X303221428Y253376428D01*
X303221428Y253090714D01*
X303316666Y252900238D01*
X303507142Y252805000D01*
X304554761Y252805000D01*
X303221428Y250328809D02*
X304554761Y250328809D01*
X303411904Y250328809D02*
X303316666Y250233571D01*
X303221428Y250043095D01*
X303221428Y249757380D01*
X303316666Y249566904D01*
X303507142Y249471666D01*
X304554761Y249471666D01*
X304554761Y248233571D02*
X304459523Y248424047D01*
X304364285Y248519285D01*
X304173809Y248614523D01*
X303602380Y248614523D01*
X303411904Y248519285D01*
X303316666Y248424047D01*
X303221428Y248233571D01*
X303221428Y247947857D01*
X303316666Y247757380D01*
X303411904Y247662142D01*
X303602380Y247566904D01*
X304173809Y247566904D01*
X304364285Y247662142D01*
X304459523Y247757380D01*
X304554761Y247947857D01*
X304554761Y248233571D01*
X304554761Y246424047D02*
X304459523Y246614523D01*
X304364285Y246709761D01*
X304173809Y246805000D01*
X303602380Y246805000D01*
X303411904Y246709761D01*
X303316666Y246614523D01*
X303221428Y246424047D01*
X303221428Y246138333D01*
X303316666Y245947857D01*
X303411904Y245852619D01*
X303602380Y245757380D01*
X304173809Y245757380D01*
X304364285Y245852619D01*
X304459523Y245947857D01*
X304554761Y246138333D01*
X304554761Y246424047D01*
X304554761Y244043095D02*
X302554761Y244043095D01*
X304459523Y244043095D02*
X304554761Y244233571D01*
X304554761Y244614523D01*
X304459523Y244805000D01*
X304364285Y244900238D01*
X304173809Y244995476D01*
X303602380Y244995476D01*
X303411904Y244900238D01*
X303316666Y244805000D01*
X303221428Y244614523D01*
X303221428Y244233571D01*
X303316666Y244043095D01*
X304554761Y242805000D02*
X304459523Y242995476D01*
X304269047Y243090714D01*
X302554761Y243090714D01*
X304459523Y241281190D02*
X304554761Y241471666D01*
X304554761Y241852619D01*
X304459523Y242043095D01*
X304269047Y242138333D01*
X303507142Y242138333D01*
X303316666Y242043095D01*
X303221428Y241852619D01*
X303221428Y241471666D01*
X303316666Y241281190D01*
X303507142Y241185952D01*
X303697619Y241185952D01*
X303888095Y242138333D01*
X304459523Y238900238D02*
X304554761Y238709761D01*
X304554761Y238328809D01*
X304459523Y238138333D01*
X304269047Y238043095D01*
X304173809Y238043095D01*
X303983333Y238138333D01*
X303888095Y238328809D01*
X303888095Y238614523D01*
X303792857Y238805000D01*
X303602380Y238900238D01*
X303507142Y238900238D01*
X303316666Y238805000D01*
X303221428Y238614523D01*
X303221428Y238328809D01*
X303316666Y238138333D01*
X304554761Y236900238D02*
X304459523Y237090714D01*
X304364285Y237185952D01*
X304173809Y237281190D01*
X303602380Y237281190D01*
X303411904Y237185952D01*
X303316666Y237090714D01*
X303221428Y236900238D01*
X303221428Y236614523D01*
X303316666Y236424047D01*
X303411904Y236328809D01*
X303602380Y236233571D01*
X304173809Y236233571D01*
X304364285Y236328809D01*
X304459523Y236424047D01*
X304554761Y236614523D01*
X304554761Y236900238D01*
X304459523Y234519285D02*
X304554761Y234709761D01*
X304554761Y235090714D01*
X304459523Y235281190D01*
X304364285Y235376428D01*
X304173809Y235471666D01*
X303602380Y235471666D01*
X303411904Y235376428D01*
X303316666Y235281190D01*
X303221428Y235090714D01*
X303221428Y234709761D01*
X303316666Y234519285D01*
X304554761Y233662142D02*
X303221428Y233662142D01*
X302554761Y233662142D02*
X302650000Y233757380D01*
X302745238Y233662142D01*
X302650000Y233566904D01*
X302554761Y233662142D01*
X302745238Y233662142D01*
X304459523Y231947857D02*
X304554761Y232138333D01*
X304554761Y232519285D01*
X304459523Y232709761D01*
X304269047Y232805000D01*
X303507142Y232805000D01*
X303316666Y232709761D01*
X303221428Y232519285D01*
X303221428Y232138333D01*
X303316666Y231947857D01*
X303507142Y231852619D01*
X303697619Y231852619D01*
X303888095Y232805000D01*
X303221428Y231281190D02*
X303221428Y230519285D01*
X302554761Y230995476D02*
X304269047Y230995476D01*
X304459523Y230900238D01*
X304554761Y230709761D01*
X304554761Y230519285D01*
X303221428Y230043095D02*
X304554761Y229566904D01*
X303221428Y229090714D02*
X304554761Y229566904D01*
X305030952Y229757380D01*
X305126190Y229852619D01*
X305221428Y230043095D01*
X163924047Y13316667D02*
X162971666Y13316667D01*
X164114523Y12745239D02*
X163447857Y14745239D01*
X162781190Y12745239D01*
X162209761Y12840477D02*
X161924047Y12745239D01*
X161447857Y12745239D01*
X161257380Y12840477D01*
X161162142Y12935715D01*
X161066904Y13126191D01*
X161066904Y13316667D01*
X161162142Y13507143D01*
X161257380Y13602381D01*
X161447857Y13697620D01*
X161828809Y13792858D01*
X162019285Y13888096D01*
X162114523Y13983334D01*
X162209761Y14173810D01*
X162209761Y14364286D01*
X162114523Y14554762D01*
X162019285Y14650000D01*
X161828809Y14745239D01*
X161352619Y14745239D01*
X161066904Y14650000D01*
X159066904Y12935715D02*
X159162142Y12840477D01*
X159447857Y12745239D01*
X159638333Y12745239D01*
X159924047Y12840477D01*
X160114523Y13030953D01*
X160209761Y13221429D01*
X160305000Y13602381D01*
X160305000Y13888096D01*
X160209761Y14269048D01*
X160114523Y14459524D01*
X159924047Y14650000D01*
X159638333Y14745239D01*
X159447857Y14745239D01*
X159162142Y14650000D01*
X159066904Y14554762D01*
X158209761Y13792858D02*
X157543095Y13792858D01*
X157257380Y12745239D02*
X158209761Y12745239D01*
X158209761Y14745239D01*
X157257380Y14745239D01*
X156400238Y13792858D02*
X155733571Y13792858D01*
X155447857Y12745239D02*
X156400238Y12745239D01*
X156400238Y14745239D01*
X155447857Y14745239D01*
X154590714Y12745239D02*
X154590714Y14745239D01*
X153447857Y12745239D01*
X153447857Y14745239D01*
X152590714Y12840477D02*
X152305000Y12745239D01*
X151828809Y12745239D01*
X151638333Y12840477D01*
X151543095Y12935715D01*
X151447857Y13126191D01*
X151447857Y13316667D01*
X151543095Y13507143D01*
X151638333Y13602381D01*
X151828809Y13697620D01*
X152209761Y13792858D01*
X152400238Y13888096D01*
X152495476Y13983334D01*
X152590714Y14173810D01*
X152590714Y14364286D01*
X152495476Y14554762D01*
X152400238Y14650000D01*
X152209761Y14745239D01*
X151733571Y14745239D01*
X151447857Y14650000D01*
X150590714Y12745239D02*
X150590714Y14745239D01*
X149257380Y14745239D02*
X148876428Y14745239D01*
X148685952Y14650000D01*
X148495476Y14459524D01*
X148400238Y14078572D01*
X148400238Y13411905D01*
X148495476Y13030953D01*
X148685952Y12840477D01*
X148876428Y12745239D01*
X149257380Y12745239D01*
X149447857Y12840477D01*
X149638333Y13030953D01*
X149733571Y13411905D01*
X149733571Y14078572D01*
X149638333Y14459524D01*
X149447857Y14650000D01*
X149257380Y14745239D01*
X147543095Y12745239D02*
X147543095Y14745239D01*
X146400238Y12745239D01*
X146400238Y14745239D01*
X145066904Y14745239D02*
X144876428Y14745239D01*
X144685952Y14650000D01*
X144590714Y14554762D01*
X144495476Y14364286D01*
X144400238Y13983334D01*
X144400238Y13507143D01*
X144495476Y13126191D01*
X144590714Y12935715D01*
X144685952Y12840477D01*
X144876428Y12745239D01*
X145066904Y12745239D01*
X145257380Y12840477D01*
X145352619Y12935715D01*
X145447857Y13126191D01*
X145543095Y13507143D01*
X145543095Y13983334D01*
X145447857Y14364286D01*
X145352619Y14554762D01*
X145257380Y14650000D01*
X145066904Y14745239D01*
X143162142Y14745239D02*
X142971666Y14745239D01*
X142781190Y14650000D01*
X142685952Y14554762D01*
X142590714Y14364286D01*
X142495476Y13983334D01*
X142495476Y13507143D01*
X142590714Y13126191D01*
X142685952Y12935715D01*
X142781190Y12840477D01*
X142971666Y12745239D01*
X143162142Y12745239D01*
X143352619Y12840477D01*
X143447857Y12935715D01*
X143543095Y13126191D01*
X143638333Y13507143D01*
X143638333Y13983334D01*
X143543095Y14364286D01*
X143447857Y14554762D01*
X143352619Y14650000D01*
X143162142Y14745239D01*
X140590714Y12745239D02*
X141733571Y12745239D01*
X141162142Y12745239D02*
X141162142Y14745239D01*
X141352619Y14459524D01*
X141543095Y14269048D01*
X141733571Y14173810D01*
X137638333Y14745239D02*
X137638333Y13316667D01*
X137733571Y13030953D01*
X137924047Y12840477D01*
X138209761Y12745239D01*
X138400238Y12745239D01*
X136305000Y14745239D02*
X135924047Y14745239D01*
X135733571Y14650000D01*
X135543095Y14459524D01*
X135447857Y14078572D01*
X135447857Y13411905D01*
X135543095Y13030953D01*
X135733571Y12840477D01*
X135924047Y12745239D01*
X136305000Y12745239D01*
X136495476Y12840477D01*
X136685952Y13030953D01*
X136781190Y13411905D01*
X136781190Y14078572D01*
X136685952Y14459524D01*
X136495476Y14650000D01*
X136305000Y14745239D01*
X134209761Y13697620D02*
X134209761Y12745239D01*
X134876428Y14745239D02*
X134209761Y13697620D01*
X133543095Y14745239D01*
X132876428Y12745239D02*
X132876428Y14745239D01*
X132114523Y14745239D01*
X131924047Y14650000D01*
X131828809Y14554762D01*
X131733571Y14364286D01*
X131733571Y14078572D01*
X131828809Y13888096D01*
X131924047Y13792858D01*
X132114523Y13697620D01*
X132876428Y13697620D01*
X130971666Y13316667D02*
X130019285Y13316667D01*
X131162142Y12745239D02*
X130495476Y14745239D01*
X129828809Y12745239D01*
X129162142Y12745239D02*
X129162142Y14745239D01*
X128685952Y14745239D01*
X128400238Y14650000D01*
X128209761Y14459524D01*
X128114523Y14269048D01*
X128019285Y13888096D01*
X128019285Y13602381D01*
X128114523Y13221429D01*
X128209761Y13030953D01*
X128400238Y12840477D01*
X128685952Y12745239D01*
X129162142Y12745239D01*
X124971666Y13792858D02*
X124685952Y13697620D01*
X124590714Y13602381D01*
X124495476Y13411905D01*
X124495476Y13126191D01*
X124590714Y12935715D01*
X124685952Y12840477D01*
X124876428Y12745239D01*
X125638333Y12745239D01*
X125638333Y14745239D01*
X124971666Y14745239D01*
X124781190Y14650000D01*
X124685952Y14554762D01*
X124590714Y14364286D01*
X124590714Y14173810D01*
X124685952Y13983334D01*
X124781190Y13888096D01*
X124971666Y13792858D01*
X125638333Y13792858D01*
X123257380Y14745239D02*
X122876428Y14745239D01*
X122685952Y14650000D01*
X122495476Y14459524D01*
X122400238Y14078572D01*
X122400238Y13411905D01*
X122495476Y13030953D01*
X122685952Y12840477D01*
X122876428Y12745239D01*
X123257380Y12745239D01*
X123447857Y12840477D01*
X123638333Y13030953D01*
X123733571Y13411905D01*
X123733571Y14078572D01*
X123638333Y14459524D01*
X123447857Y14650000D01*
X123257380Y14745239D01*
X121638333Y13316667D02*
X120685952Y13316667D01*
X121828809Y12745239D02*
X121162142Y14745239D01*
X120495476Y12745239D01*
X118685952Y12745239D02*
X119352619Y13697620D01*
X119828809Y12745239D02*
X119828809Y14745239D01*
X119066904Y14745239D01*
X118876428Y14650000D01*
X118781190Y14554762D01*
X118685952Y14364286D01*
X118685952Y14078572D01*
X118781190Y13888096D01*
X118876428Y13792858D01*
X119066904Y13697620D01*
X119828809Y13697620D01*
X117828809Y12745239D02*
X117828809Y14745239D01*
X117352619Y14745239D01*
X117066904Y14650000D01*
X116876428Y14459524D01*
X116781190Y14269048D01*
X116685952Y13888096D01*
X116685952Y13602381D01*
X116781190Y13221429D01*
X116876428Y13030953D01*
X117066904Y12840477D01*
X117352619Y12745239D01*
X117828809Y12745239D01*
X163924047Y11254762D02*
X163828809Y11350000D01*
X163638333Y11445239D01*
X163162142Y11445239D01*
X162971666Y11350000D01*
X162876428Y11254762D01*
X162781190Y11064286D01*
X162781190Y10873810D01*
X162876428Y10588096D01*
X164019285Y9445239D01*
X162781190Y9445239D01*
X161543095Y11445239D02*
X161352619Y11445239D01*
X161162142Y11350000D01*
X161066904Y11254762D01*
X160971666Y11064286D01*
X160876428Y10683334D01*
X160876428Y10207143D01*
X160971666Y9826191D01*
X161066904Y9635715D01*
X161162142Y9540477D01*
X161352619Y9445239D01*
X161543095Y9445239D01*
X161733571Y9540477D01*
X161828809Y9635715D01*
X161924047Y9826191D01*
X162019285Y10207143D01*
X162019285Y10683334D01*
X161924047Y11064286D01*
X161828809Y11254762D01*
X161733571Y11350000D01*
X161543095Y11445239D01*
X158971666Y9445239D02*
X160114523Y9445239D01*
X159543095Y9445239D02*
X159543095Y11445239D01*
X159733571Y11159524D01*
X159924047Y10969048D01*
X160114523Y10873810D01*
X157828809Y10588096D02*
X158019285Y10683334D01*
X158114523Y10778572D01*
X158209761Y10969048D01*
X158209761Y11064286D01*
X158114523Y11254762D01*
X158019285Y11350000D01*
X157828809Y11445239D01*
X157447857Y11445239D01*
X157257380Y11350000D01*
X157162142Y11254762D01*
X157066904Y11064286D01*
X157066904Y10969048D01*
X157162142Y10778572D01*
X157257380Y10683334D01*
X157447857Y10588096D01*
X157828809Y10588096D01*
X158019285Y10492858D01*
X158114523Y10397620D01*
X158209761Y10207143D01*
X158209761Y9826191D01*
X158114523Y9635715D01*
X158019285Y9540477D01*
X157828809Y9445239D01*
X157447857Y9445239D01*
X157257380Y9540477D01*
X157162142Y9635715D01*
X157066904Y9826191D01*
X157066904Y10207143D01*
X157162142Y10397620D01*
X157257380Y10492858D01*
X157447857Y10588096D01*
X156209761Y9635715D02*
X156114523Y9540477D01*
X156209761Y9445239D01*
X156305000Y9540477D01*
X156209761Y9635715D01*
X156209761Y9445239D01*
X154209761Y9445239D02*
X155352619Y9445239D01*
X154781190Y9445239D02*
X154781190Y11445239D01*
X154971666Y11159524D01*
X155162142Y10969048D01*
X155352619Y10873810D01*
X152971666Y11445239D02*
X152781190Y11445239D01*
X152590714Y11350000D01*
X152495476Y11254762D01*
X152400238Y11064286D01*
X152305000Y10683334D01*
X152305000Y10207143D01*
X152400238Y9826191D01*
X152495476Y9635715D01*
X152590714Y9540477D01*
X152781190Y9445239D01*
X152971666Y9445239D01*
X153162142Y9540477D01*
X153257380Y9635715D01*
X153352619Y9826191D01*
X153447857Y10207143D01*
X153447857Y10683334D01*
X153352619Y11064286D01*
X153257380Y11254762D01*
X153162142Y11350000D01*
X152971666Y11445239D01*
X151447857Y9635715D02*
X151352619Y9540477D01*
X151447857Y9445239D01*
X151543095Y9540477D01*
X151447857Y9635715D01*
X151447857Y9445239D01*
X149447857Y9445239D02*
X150590714Y9445239D01*
X150019285Y9445239D02*
X150019285Y11445239D01*
X150209761Y11159524D01*
X150400238Y10969048D01*
X150590714Y10873810D01*
X147543095Y9445239D02*
X148685952Y9445239D01*
X148114523Y9445239D02*
X148114523Y11445239D01*
X148305000Y11159524D01*
X148495476Y10969048D01*
X148685952Y10873810D01*
X145257380Y9540477D02*
X145066904Y9445239D01*
X144685952Y9445239D01*
X144495476Y9540477D01*
X144400238Y9730953D01*
X144400238Y9826191D01*
X144495476Y10016667D01*
X144685952Y10111905D01*
X144971666Y10111905D01*
X145162142Y10207143D01*
X145257380Y10397620D01*
X145257380Y10492858D01*
X145162142Y10683334D01*
X144971666Y10778572D01*
X144685952Y10778572D01*
X144495476Y10683334D01*
X142685952Y9540477D02*
X142876428Y9445239D01*
X143257380Y9445239D01*
X143447857Y9540477D01*
X143543095Y9635715D01*
X143638333Y9826191D01*
X143638333Y10397620D01*
X143543095Y10588096D01*
X143447857Y10683334D01*
X143257380Y10778572D01*
X142876428Y10778572D01*
X142685952Y10683334D01*
X140971666Y10778572D02*
X140971666Y9445239D01*
X141828809Y10778572D02*
X141828809Y9730953D01*
X141733571Y9540477D01*
X141543095Y9445239D01*
X141257380Y9445239D01*
X141066904Y9540477D01*
X140971666Y9635715D01*
X140019285Y9445239D02*
X140019285Y10778572D01*
X140019285Y10588096D02*
X139924047Y10683334D01*
X139733571Y10778572D01*
X139447857Y10778572D01*
X139257380Y10683334D01*
X139162142Y10492858D01*
X139162142Y9445239D01*
X139162142Y10492858D02*
X139066904Y10683334D01*
X138876428Y10778572D01*
X138590714Y10778572D01*
X138400238Y10683334D01*
X138305000Y10492858D01*
X138305000Y9445239D01*
X135828809Y10778572D02*
X135828809Y9445239D01*
X135828809Y10588096D02*
X135733571Y10683334D01*
X135543095Y10778572D01*
X135257380Y10778572D01*
X135066904Y10683334D01*
X134971666Y10492858D01*
X134971666Y9445239D01*
X133733571Y9445239D02*
X133924047Y9540477D01*
X134019285Y9635715D01*
X134114523Y9826191D01*
X134114523Y10397620D01*
X134019285Y10588096D01*
X133924047Y10683334D01*
X133733571Y10778572D01*
X133447857Y10778572D01*
X133257380Y10683334D01*
X133162142Y10588096D01*
X133066904Y10397620D01*
X133066904Y9826191D01*
X133162142Y9635715D01*
X133257380Y9540477D01*
X133447857Y9445239D01*
X133733571Y9445239D01*
X131924047Y9445239D02*
X132114523Y9540477D01*
X132209761Y9635715D01*
X132305000Y9826191D01*
X132305000Y10397620D01*
X132209761Y10588096D01*
X132114523Y10683334D01*
X131924047Y10778572D01*
X131638333Y10778572D01*
X131447857Y10683334D01*
X131352619Y10588096D01*
X131257380Y10397620D01*
X131257380Y9826191D01*
X131352619Y9635715D01*
X131447857Y9540477D01*
X131638333Y9445239D01*
X131924047Y9445239D01*
X129543095Y9445239D02*
X129543095Y11445239D01*
X129543095Y9540477D02*
X129733571Y9445239D01*
X130114523Y9445239D01*
X130305000Y9540477D01*
X130400238Y9635715D01*
X130495476Y9826191D01*
X130495476Y10397620D01*
X130400238Y10588096D01*
X130305000Y10683334D01*
X130114523Y10778572D01*
X129733571Y10778572D01*
X129543095Y10683334D01*
X128305000Y9445239D02*
X128495476Y9540477D01*
X128590714Y9730953D01*
X128590714Y11445239D01*
X126781190Y9540477D02*
X126971666Y9445239D01*
X127352619Y9445239D01*
X127543095Y9540477D01*
X127638333Y9730953D01*
X127638333Y10492858D01*
X127543095Y10683334D01*
X127352619Y10778572D01*
X126971666Y10778572D01*
X126781190Y10683334D01*
X126685952Y10492858D01*
X126685952Y10302381D01*
X127638333Y10111905D01*
X124400238Y9540477D02*
X124209761Y9445239D01*
X123828809Y9445239D01*
X123638333Y9540477D01*
X123543095Y9730953D01*
X123543095Y9826191D01*
X123638333Y10016667D01*
X123828809Y10111905D01*
X124114523Y10111905D01*
X124305000Y10207143D01*
X124400238Y10397620D01*
X124400238Y10492858D01*
X124305000Y10683334D01*
X124114523Y10778572D01*
X123828809Y10778572D01*
X123638333Y10683334D01*
X122400238Y9445239D02*
X122590714Y9540477D01*
X122685952Y9635715D01*
X122781190Y9826191D01*
X122781190Y10397620D01*
X122685952Y10588096D01*
X122590714Y10683334D01*
X122400238Y10778572D01*
X122114523Y10778572D01*
X121924047Y10683334D01*
X121828809Y10588096D01*
X121733571Y10397620D01*
X121733571Y9826191D01*
X121828809Y9635715D01*
X121924047Y9540477D01*
X122114523Y9445239D01*
X122400238Y9445239D01*
X120019285Y9540477D02*
X120209761Y9445239D01*
X120590714Y9445239D01*
X120781190Y9540477D01*
X120876428Y9635715D01*
X120971666Y9826191D01*
X120971666Y10397620D01*
X120876428Y10588096D01*
X120781190Y10683334D01*
X120590714Y10778572D01*
X120209761Y10778572D01*
X120019285Y10683334D01*
X119162142Y9445239D02*
X119162142Y10778572D01*
X119162142Y11445239D02*
X119257380Y11350000D01*
X119162142Y11254762D01*
X119066904Y11350000D01*
X119162142Y11445239D01*
X119162142Y11254762D01*
X117447857Y9540477D02*
X117638333Y9445239D01*
X118019285Y9445239D01*
X118209761Y9540477D01*
X118305000Y9730953D01*
X118305000Y10492858D01*
X118209761Y10683334D01*
X118019285Y10778572D01*
X117638333Y10778572D01*
X117447857Y10683334D01*
X117352619Y10492858D01*
X117352619Y10302381D01*
X118305000Y10111905D01*
X116781190Y10778572D02*
X116019285Y10778572D01*
X116495476Y11445239D02*
X116495476Y9730953D01*
X116400238Y9540477D01*
X116209761Y9445239D01*
X116019285Y9445239D01*
X115543095Y10778572D02*
X115066904Y9445239D01*
X114590714Y10778572D02*
X115066904Y9445239D01*
X115257380Y8969048D01*
X115352619Y8873810D01*
X115543095Y8778572D01*
X300683333Y416424047D02*
X300683333Y415471666D01*
X301254761Y416614523D02*
X299254761Y415947857D01*
X301254761Y415281190D01*
X301159523Y414709761D02*
X301254761Y414424047D01*
X301254761Y413947857D01*
X301159523Y413757380D01*
X301064285Y413662142D01*
X300873809Y413566904D01*
X300683333Y413566904D01*
X300492857Y413662142D01*
X300397619Y413757380D01*
X300302380Y413947857D01*
X300207142Y414328809D01*
X300111904Y414519285D01*
X300016666Y414614523D01*
X299826190Y414709761D01*
X299635714Y414709761D01*
X299445238Y414614523D01*
X299350000Y414519285D01*
X299254761Y414328809D01*
X299254761Y413852619D01*
X299350000Y413566904D01*
X301064285Y411566904D02*
X301159523Y411662142D01*
X301254761Y411947857D01*
X301254761Y412138333D01*
X301159523Y412424047D01*
X300969047Y412614523D01*
X300778571Y412709761D01*
X300397619Y412805000D01*
X300111904Y412805000D01*
X299730952Y412709761D01*
X299540476Y412614523D01*
X299350000Y412424047D01*
X299254761Y412138333D01*
X299254761Y411947857D01*
X299350000Y411662142D01*
X299445238Y411566904D01*
X300207142Y410709761D02*
X300207142Y410043095D01*
X301254761Y409757380D02*
X301254761Y410709761D01*
X299254761Y410709761D01*
X299254761Y409757380D01*
X300207142Y408900238D02*
X300207142Y408233571D01*
X301254761Y407947857D02*
X301254761Y408900238D01*
X299254761Y408900238D01*
X299254761Y407947857D01*
X301254761Y407090714D02*
X299254761Y407090714D01*
X301254761Y405947857D01*
X299254761Y405947857D01*
X301159523Y405090714D02*
X301254761Y404805000D01*
X301254761Y404328809D01*
X301159523Y404138333D01*
X301064285Y404043095D01*
X300873809Y403947857D01*
X300683333Y403947857D01*
X300492857Y404043095D01*
X300397619Y404138333D01*
X300302380Y404328809D01*
X300207142Y404709761D01*
X300111904Y404900238D01*
X300016666Y404995476D01*
X299826190Y405090714D01*
X299635714Y405090714D01*
X299445238Y404995476D01*
X299350000Y404900238D01*
X299254761Y404709761D01*
X299254761Y404233571D01*
X299350000Y403947857D01*
X301254761Y403090714D02*
X299254761Y403090714D01*
X299254761Y401757380D02*
X299254761Y401376428D01*
X299350000Y401185952D01*
X299540476Y400995476D01*
X299921428Y400900238D01*
X300588095Y400900238D01*
X300969047Y400995476D01*
X301159523Y401185952D01*
X301254761Y401376428D01*
X301254761Y401757380D01*
X301159523Y401947857D01*
X300969047Y402138333D01*
X300588095Y402233571D01*
X299921428Y402233571D01*
X299540476Y402138333D01*
X299350000Y401947857D01*
X299254761Y401757380D01*
X301254761Y400043095D02*
X299254761Y400043095D01*
X301254761Y398900238D01*
X299254761Y398900238D01*
X299254761Y397566904D02*
X299254761Y397376428D01*
X299350000Y397185952D01*
X299445238Y397090714D01*
X299635714Y396995476D01*
X300016666Y396900238D01*
X300492857Y396900238D01*
X300873809Y396995476D01*
X301064285Y397090714D01*
X301159523Y397185952D01*
X301254761Y397376428D01*
X301254761Y397566904D01*
X301159523Y397757380D01*
X301064285Y397852619D01*
X300873809Y397947857D01*
X300492857Y398043095D01*
X300016666Y398043095D01*
X299635714Y397947857D01*
X299445238Y397852619D01*
X299350000Y397757380D01*
X299254761Y397566904D01*
X299254761Y395662142D02*
X299254761Y395471666D01*
X299350000Y395281190D01*
X299445238Y395185952D01*
X299635714Y395090714D01*
X300016666Y394995476D01*
X300492857Y394995476D01*
X300873809Y395090714D01*
X301064285Y395185952D01*
X301159523Y395281190D01*
X301254761Y395471666D01*
X301254761Y395662142D01*
X301159523Y395852619D01*
X301064285Y395947857D01*
X300873809Y396043095D01*
X300492857Y396138333D01*
X300016666Y396138333D01*
X299635714Y396043095D01*
X299445238Y395947857D01*
X299350000Y395852619D01*
X299254761Y395662142D01*
X301254761Y393090714D02*
X301254761Y394233571D01*
X301254761Y393662142D02*
X299254761Y393662142D01*
X299540476Y393852619D01*
X299730952Y394043095D01*
X299826190Y394233571D01*
X300207142Y390043095D02*
X300302380Y389757380D01*
X300397619Y389662142D01*
X300588095Y389566904D01*
X300873809Y389566904D01*
X301064285Y389662142D01*
X301159523Y389757380D01*
X301254761Y389947857D01*
X301254761Y390709761D01*
X299254761Y390709761D01*
X299254761Y390043095D01*
X299350000Y389852619D01*
X299445238Y389757380D01*
X299635714Y389662142D01*
X299826190Y389662142D01*
X300016666Y389757380D01*
X300111904Y389852619D01*
X300207142Y390043095D01*
X300207142Y390709761D01*
X299254761Y388328809D02*
X299254761Y387947857D01*
X299350000Y387757380D01*
X299540476Y387566904D01*
X299921428Y387471666D01*
X300588095Y387471666D01*
X300969047Y387566904D01*
X301159523Y387757380D01*
X301254761Y387947857D01*
X301254761Y388328809D01*
X301159523Y388519285D01*
X300969047Y388709761D01*
X300588095Y388805000D01*
X299921428Y388805000D01*
X299540476Y388709761D01*
X299350000Y388519285D01*
X299254761Y388328809D01*
X299254761Y386900238D02*
X299254761Y385757380D01*
X301254761Y386328809D02*
X299254761Y386328809D01*
X299254761Y385376428D02*
X299254761Y384233571D01*
X301254761Y384805000D02*
X299254761Y384805000D01*
X299254761Y383185952D02*
X299254761Y382805000D01*
X299350000Y382614523D01*
X299540476Y382424047D01*
X299921428Y382328809D01*
X300588095Y382328809D01*
X300969047Y382424047D01*
X301159523Y382614523D01*
X301254761Y382805000D01*
X301254761Y383185952D01*
X301159523Y383376428D01*
X300969047Y383566904D01*
X300588095Y383662142D01*
X299921428Y383662142D01*
X299540476Y383566904D01*
X299350000Y383376428D01*
X299254761Y383185952D01*
X301254761Y381471666D02*
X299254761Y381471666D01*
X300683333Y380805000D01*
X299254761Y380138333D01*
X301254761Y380138333D01*
X300207142Y376995476D02*
X300207142Y377662142D01*
X301254761Y377662142D02*
X299254761Y377662142D01*
X299254761Y376709761D01*
X301254761Y374805000D02*
X300302380Y375471666D01*
X301254761Y375947857D02*
X299254761Y375947857D01*
X299254761Y375185952D01*
X299350000Y374995476D01*
X299445238Y374900238D01*
X299635714Y374805000D01*
X299921428Y374805000D01*
X300111904Y374900238D01*
X300207142Y374995476D01*
X300302380Y375185952D01*
X300302380Y375947857D01*
X300683333Y374043095D02*
X300683333Y373090714D01*
X301254761Y374233571D02*
X299254761Y373566904D01*
X301254761Y372900238D01*
X301254761Y372233571D02*
X299254761Y372233571D01*
X300683333Y371566904D01*
X299254761Y370900238D01*
X301254761Y370900238D01*
X300207142Y369947857D02*
X300207142Y369281190D01*
X301254761Y368995476D02*
X301254761Y369947857D01*
X299254761Y369947857D01*
X299254761Y368995476D01*
X302745238Y416424047D02*
X302650000Y416328809D01*
X302554761Y416138333D01*
X302554761Y415662142D01*
X302650000Y415471666D01*
X302745238Y415376428D01*
X302935714Y415281190D01*
X303126190Y415281190D01*
X303411904Y415376428D01*
X304554761Y416519285D01*
X304554761Y415281190D01*
X302554761Y414043095D02*
X302554761Y413852619D01*
X302650000Y413662142D01*
X302745238Y413566904D01*
X302935714Y413471666D01*
X303316666Y413376428D01*
X303792857Y413376428D01*
X304173809Y413471666D01*
X304364285Y413566904D01*
X304459523Y413662142D01*
X304554761Y413852619D01*
X304554761Y414043095D01*
X304459523Y414233571D01*
X304364285Y414328809D01*
X304173809Y414424047D01*
X303792857Y414519285D01*
X303316666Y414519285D01*
X302935714Y414424047D01*
X302745238Y414328809D01*
X302650000Y414233571D01*
X302554761Y414043095D01*
X304554761Y411471666D02*
X304554761Y412614523D01*
X304554761Y412043095D02*
X302554761Y412043095D01*
X302840476Y412233571D01*
X303030952Y412424047D01*
X303126190Y412614523D01*
X303411904Y410328809D02*
X303316666Y410519285D01*
X303221428Y410614523D01*
X303030952Y410709761D01*
X302935714Y410709761D01*
X302745238Y410614523D01*
X302650000Y410519285D01*
X302554761Y410328809D01*
X302554761Y409947857D01*
X302650000Y409757380D01*
X302745238Y409662142D01*
X302935714Y409566904D01*
X303030952Y409566904D01*
X303221428Y409662142D01*
X303316666Y409757380D01*
X303411904Y409947857D01*
X303411904Y410328809D01*
X303507142Y410519285D01*
X303602380Y410614523D01*
X303792857Y410709761D01*
X304173809Y410709761D01*
X304364285Y410614523D01*
X304459523Y410519285D01*
X304554761Y410328809D01*
X304554761Y409947857D01*
X304459523Y409757380D01*
X304364285Y409662142D01*
X304173809Y409566904D01*
X303792857Y409566904D01*
X303602380Y409662142D01*
X303507142Y409757380D01*
X303411904Y409947857D01*
X304364285Y408709761D02*
X304459523Y408614523D01*
X304554761Y408709761D01*
X304459523Y408805000D01*
X304364285Y408709761D01*
X304554761Y408709761D01*
X304554761Y406709761D02*
X304554761Y407852619D01*
X304554761Y407281190D02*
X302554761Y407281190D01*
X302840476Y407471666D01*
X303030952Y407662142D01*
X303126190Y407852619D01*
X302554761Y405471666D02*
X302554761Y405281190D01*
X302650000Y405090714D01*
X302745238Y404995476D01*
X302935714Y404900238D01*
X303316666Y404805000D01*
X303792857Y404805000D01*
X304173809Y404900238D01*
X304364285Y404995476D01*
X304459523Y405090714D01*
X304554761Y405281190D01*
X304554761Y405471666D01*
X304459523Y405662142D01*
X304364285Y405757380D01*
X304173809Y405852619D01*
X303792857Y405947857D01*
X303316666Y405947857D01*
X302935714Y405852619D01*
X302745238Y405757380D01*
X302650000Y405662142D01*
X302554761Y405471666D01*
X304364285Y403947857D02*
X304459523Y403852619D01*
X304554761Y403947857D01*
X304459523Y404043095D01*
X304364285Y403947857D01*
X304554761Y403947857D01*
X304554761Y401947857D02*
X304554761Y403090714D01*
X304554761Y402519285D02*
X302554761Y402519285D01*
X302840476Y402709761D01*
X303030952Y402900238D01*
X303126190Y403090714D01*
X304554761Y400043095D02*
X304554761Y401185952D01*
X304554761Y400614523D02*
X302554761Y400614523D01*
X302840476Y400805000D01*
X303030952Y400995476D01*
X303126190Y401185952D01*
X304459523Y397757380D02*
X304554761Y397566904D01*
X304554761Y397185952D01*
X304459523Y396995476D01*
X304269047Y396900238D01*
X304173809Y396900238D01*
X303983333Y396995476D01*
X303888095Y397185952D01*
X303888095Y397471666D01*
X303792857Y397662142D01*
X303602380Y397757380D01*
X303507142Y397757380D01*
X303316666Y397662142D01*
X303221428Y397471666D01*
X303221428Y397185952D01*
X303316666Y396995476D01*
X304459523Y395185952D02*
X304554761Y395376428D01*
X304554761Y395757380D01*
X304459523Y395947857D01*
X304364285Y396043095D01*
X304173809Y396138333D01*
X303602380Y396138333D01*
X303411904Y396043095D01*
X303316666Y395947857D01*
X303221428Y395757380D01*
X303221428Y395376428D01*
X303316666Y395185952D01*
X303221428Y393471666D02*
X304554761Y393471666D01*
X303221428Y394328809D02*
X304269047Y394328809D01*
X304459523Y394233571D01*
X304554761Y394043095D01*
X304554761Y393757380D01*
X304459523Y393566904D01*
X304364285Y393471666D01*
X304554761Y392519285D02*
X303221428Y392519285D01*
X303411904Y392519285D02*
X303316666Y392424047D01*
X303221428Y392233571D01*
X303221428Y391947857D01*
X303316666Y391757380D01*
X303507142Y391662142D01*
X304554761Y391662142D01*
X303507142Y391662142D02*
X303316666Y391566904D01*
X303221428Y391376428D01*
X303221428Y391090714D01*
X303316666Y390900238D01*
X303507142Y390805000D01*
X304554761Y390805000D01*
X303221428Y388328809D02*
X304554761Y388328809D01*
X303411904Y388328809D02*
X303316666Y388233571D01*
X303221428Y388043095D01*
X303221428Y387757380D01*
X303316666Y387566904D01*
X303507142Y387471666D01*
X304554761Y387471666D01*
X304554761Y386233571D02*
X304459523Y386424047D01*
X304364285Y386519285D01*
X304173809Y386614523D01*
X303602380Y386614523D01*
X303411904Y386519285D01*
X303316666Y386424047D01*
X303221428Y386233571D01*
X303221428Y385947857D01*
X303316666Y385757380D01*
X303411904Y385662142D01*
X303602380Y385566904D01*
X304173809Y385566904D01*
X304364285Y385662142D01*
X304459523Y385757380D01*
X304554761Y385947857D01*
X304554761Y386233571D01*
X304554761Y384424047D02*
X304459523Y384614523D01*
X304364285Y384709761D01*
X304173809Y384805000D01*
X303602380Y384805000D01*
X303411904Y384709761D01*
X303316666Y384614523D01*
X303221428Y384424047D01*
X303221428Y384138333D01*
X303316666Y383947857D01*
X303411904Y383852619D01*
X303602380Y383757380D01*
X304173809Y383757380D01*
X304364285Y383852619D01*
X304459523Y383947857D01*
X304554761Y384138333D01*
X304554761Y384424047D01*
X304554761Y382043095D02*
X302554761Y382043095D01*
X304459523Y382043095D02*
X304554761Y382233571D01*
X304554761Y382614523D01*
X304459523Y382805000D01*
X304364285Y382900238D01*
X304173809Y382995476D01*
X303602380Y382995476D01*
X303411904Y382900238D01*
X303316666Y382805000D01*
X303221428Y382614523D01*
X303221428Y382233571D01*
X303316666Y382043095D01*
X304554761Y380805000D02*
X304459523Y380995476D01*
X304269047Y381090714D01*
X302554761Y381090714D01*
X304459523Y379281190D02*
X304554761Y379471666D01*
X304554761Y379852619D01*
X304459523Y380043095D01*
X304269047Y380138333D01*
X303507142Y380138333D01*
X303316666Y380043095D01*
X303221428Y379852619D01*
X303221428Y379471666D01*
X303316666Y379281190D01*
X303507142Y379185952D01*
X303697619Y379185952D01*
X303888095Y380138333D01*
X304459523Y376900238D02*
X304554761Y376709761D01*
X304554761Y376328809D01*
X304459523Y376138333D01*
X304269047Y376043095D01*
X304173809Y376043095D01*
X303983333Y376138333D01*
X303888095Y376328809D01*
X303888095Y376614523D01*
X303792857Y376805000D01*
X303602380Y376900238D01*
X303507142Y376900238D01*
X303316666Y376805000D01*
X303221428Y376614523D01*
X303221428Y376328809D01*
X303316666Y376138333D01*
X304554761Y374900238D02*
X304459523Y375090714D01*
X304364285Y375185952D01*
X304173809Y375281190D01*
X303602380Y375281190D01*
X303411904Y375185952D01*
X303316666Y375090714D01*
X303221428Y374900238D01*
X303221428Y374614523D01*
X303316666Y374424047D01*
X303411904Y374328809D01*
X303602380Y374233571D01*
X304173809Y374233571D01*
X304364285Y374328809D01*
X304459523Y374424047D01*
X304554761Y374614523D01*
X304554761Y374900238D01*
X304459523Y372519285D02*
X304554761Y372709761D01*
X304554761Y373090714D01*
X304459523Y373281190D01*
X304364285Y373376428D01*
X304173809Y373471666D01*
X303602380Y373471666D01*
X303411904Y373376428D01*
X303316666Y373281190D01*
X303221428Y373090714D01*
X303221428Y372709761D01*
X303316666Y372519285D01*
X304554761Y371662142D02*
X303221428Y371662142D01*
X302554761Y371662142D02*
X302650000Y371757380D01*
X302745238Y371662142D01*
X302650000Y371566904D01*
X302554761Y371662142D01*
X302745238Y371662142D01*
X304459523Y369947857D02*
X304554761Y370138333D01*
X304554761Y370519285D01*
X304459523Y370709761D01*
X304269047Y370805000D01*
X303507142Y370805000D01*
X303316666Y370709761D01*
X303221428Y370519285D01*
X303221428Y370138333D01*
X303316666Y369947857D01*
X303507142Y369852619D01*
X303697619Y369852619D01*
X303888095Y370805000D01*
X303221428Y369281190D02*
X303221428Y368519285D01*
X302554761Y368995476D02*
X304269047Y368995476D01*
X304459523Y368900238D01*
X304554761Y368709761D01*
X304554761Y368519285D01*
X303221428Y368043095D02*
X304554761Y367566904D01*
X303221428Y367090714D02*
X304554761Y367566904D01*
X305030952Y367757380D01*
X305126190Y367852619D01*
X305221428Y368043095D01*
X296183333Y140424048D02*
X296183333Y139471667D01*
X296754761Y140614524D02*
X294754761Y139947858D01*
X296754761Y139281191D01*
X296659523Y138709762D02*
X296754761Y138424048D01*
X296754761Y137947858D01*
X296659523Y137757381D01*
X296564285Y137662143D01*
X296373809Y137566905D01*
X296183333Y137566905D01*
X295992857Y137662143D01*
X295897619Y137757381D01*
X295802380Y137947858D01*
X295707142Y138328810D01*
X295611904Y138519286D01*
X295516666Y138614524D01*
X295326190Y138709762D01*
X295135714Y138709762D01*
X294945238Y138614524D01*
X294850000Y138519286D01*
X294754761Y138328810D01*
X294754761Y137852620D01*
X294850000Y137566905D01*
X296564285Y135566905D02*
X296659523Y135662143D01*
X296754761Y135947858D01*
X296754761Y136138334D01*
X296659523Y136424048D01*
X296469047Y136614524D01*
X296278571Y136709762D01*
X295897619Y136805000D01*
X295611904Y136805000D01*
X295230952Y136709762D01*
X295040476Y136614524D01*
X294850000Y136424048D01*
X294754761Y136138334D01*
X294754761Y135947858D01*
X294850000Y135662143D01*
X294945238Y135566905D01*
X295707142Y134709762D02*
X295707142Y134043096D01*
X296754761Y133757381D02*
X296754761Y134709762D01*
X294754761Y134709762D01*
X294754761Y133757381D01*
X295707142Y132900239D02*
X295707142Y132233572D01*
X296754761Y131947858D02*
X296754761Y132900239D01*
X294754761Y132900239D01*
X294754761Y131947858D01*
X296754761Y131090715D02*
X294754761Y131090715D01*
X296754761Y129947858D01*
X294754761Y129947858D01*
X296659523Y129090715D02*
X296754761Y128805000D01*
X296754761Y128328810D01*
X296659523Y128138334D01*
X296564285Y128043096D01*
X296373809Y127947858D01*
X296183333Y127947858D01*
X295992857Y128043096D01*
X295897619Y128138334D01*
X295802380Y128328810D01*
X295707142Y128709762D01*
X295611904Y128900239D01*
X295516666Y128995477D01*
X295326190Y129090715D01*
X295135714Y129090715D01*
X294945238Y128995477D01*
X294850000Y128900239D01*
X294754761Y128709762D01*
X294754761Y128233572D01*
X294850000Y127947858D01*
X296754761Y127090715D02*
X294754761Y127090715D01*
X294754761Y125757381D02*
X294754761Y125376429D01*
X294850000Y125185953D01*
X295040476Y124995477D01*
X295421428Y124900239D01*
X296088095Y124900239D01*
X296469047Y124995477D01*
X296659523Y125185953D01*
X296754761Y125376429D01*
X296754761Y125757381D01*
X296659523Y125947858D01*
X296469047Y126138334D01*
X296088095Y126233572D01*
X295421428Y126233572D01*
X295040476Y126138334D01*
X294850000Y125947858D01*
X294754761Y125757381D01*
X296754761Y124043096D02*
X294754761Y124043096D01*
X296754761Y122900239D01*
X294754761Y122900239D01*
X294754761Y121566905D02*
X294754761Y121376429D01*
X294850000Y121185953D01*
X294945238Y121090715D01*
X295135714Y120995477D01*
X295516666Y120900239D01*
X295992857Y120900239D01*
X296373809Y120995477D01*
X296564285Y121090715D01*
X296659523Y121185953D01*
X296754761Y121376429D01*
X296754761Y121566905D01*
X296659523Y121757381D01*
X296564285Y121852620D01*
X296373809Y121947858D01*
X295992857Y122043096D01*
X295516666Y122043096D01*
X295135714Y121947858D01*
X294945238Y121852620D01*
X294850000Y121757381D01*
X294754761Y121566905D01*
X294754761Y119662143D02*
X294754761Y119471667D01*
X294850000Y119281191D01*
X294945238Y119185953D01*
X295135714Y119090715D01*
X295516666Y118995477D01*
X295992857Y118995477D01*
X296373809Y119090715D01*
X296564285Y119185953D01*
X296659523Y119281191D01*
X296754761Y119471667D01*
X296754761Y119662143D01*
X296659523Y119852620D01*
X296564285Y119947858D01*
X296373809Y120043096D01*
X295992857Y120138334D01*
X295516666Y120138334D01*
X295135714Y120043096D01*
X294945238Y119947858D01*
X294850000Y119852620D01*
X294754761Y119662143D01*
X296754761Y117090715D02*
X296754761Y118233572D01*
X296754761Y117662143D02*
X294754761Y117662143D01*
X295040476Y117852620D01*
X295230952Y118043096D01*
X295326190Y118233572D01*
X296754761Y114709762D02*
X294754761Y114709762D01*
X296183333Y114043096D01*
X294754761Y113376429D01*
X296754761Y113376429D01*
X296183333Y112519286D02*
X296183333Y111566905D01*
X296754761Y112709762D02*
X294754761Y112043096D01*
X296754761Y111376429D01*
X296754761Y110709762D02*
X294754761Y110709762D01*
X296754761Y109757381D02*
X294754761Y109757381D01*
X296754761Y108614524D01*
X294754761Y108614524D01*
X295707142Y105471667D02*
X295802380Y105185953D01*
X295897619Y105090715D01*
X296088095Y104995477D01*
X296373809Y104995477D01*
X296564285Y105090715D01*
X296659523Y105185953D01*
X296754761Y105376429D01*
X296754761Y106138334D01*
X294754761Y106138334D01*
X294754761Y105471667D01*
X294850000Y105281191D01*
X294945238Y105185953D01*
X295135714Y105090715D01*
X295326190Y105090715D01*
X295516666Y105185953D01*
X295611904Y105281191D01*
X295707142Y105471667D01*
X295707142Y106138334D01*
X294754761Y103757381D02*
X294754761Y103376429D01*
X294850000Y103185953D01*
X295040476Y102995477D01*
X295421428Y102900239D01*
X296088095Y102900239D01*
X296469047Y102995477D01*
X296659523Y103185953D01*
X296754761Y103376429D01*
X296754761Y103757381D01*
X296659523Y103947858D01*
X296469047Y104138334D01*
X296088095Y104233572D01*
X295421428Y104233572D01*
X295040476Y104138334D01*
X294850000Y103947858D01*
X294754761Y103757381D01*
X296183333Y102138334D02*
X296183333Y101185953D01*
X296754761Y102328810D02*
X294754761Y101662143D01*
X296754761Y100995477D01*
X296754761Y99185953D02*
X295802380Y99852620D01*
X296754761Y100328810D02*
X294754761Y100328810D01*
X294754761Y99566905D01*
X294850000Y99376429D01*
X294945238Y99281191D01*
X295135714Y99185953D01*
X295421428Y99185953D01*
X295611904Y99281191D01*
X295707142Y99376429D01*
X295802380Y99566905D01*
X295802380Y100328810D01*
X296754761Y98328810D02*
X294754761Y98328810D01*
X294754761Y97852620D01*
X294850000Y97566905D01*
X295040476Y97376429D01*
X295230952Y97281191D01*
X295611904Y97185953D01*
X295897619Y97185953D01*
X296278571Y97281191D01*
X296469047Y97376429D01*
X296659523Y97566905D01*
X296754761Y97852620D01*
X296754761Y98328810D01*
X298245238Y140424048D02*
X298150000Y140328810D01*
X298054761Y140138334D01*
X298054761Y139662143D01*
X298150000Y139471667D01*
X298245238Y139376429D01*
X298435714Y139281191D01*
X298626190Y139281191D01*
X298911904Y139376429D01*
X300054761Y140519286D01*
X300054761Y139281191D01*
X298054761Y138043096D02*
X298054761Y137852620D01*
X298150000Y137662143D01*
X298245238Y137566905D01*
X298435714Y137471667D01*
X298816666Y137376429D01*
X299292857Y137376429D01*
X299673809Y137471667D01*
X299864285Y137566905D01*
X299959523Y137662143D01*
X300054761Y137852620D01*
X300054761Y138043096D01*
X299959523Y138233572D01*
X299864285Y138328810D01*
X299673809Y138424048D01*
X299292857Y138519286D01*
X298816666Y138519286D01*
X298435714Y138424048D01*
X298245238Y138328810D01*
X298150000Y138233572D01*
X298054761Y138043096D01*
X300054761Y135471667D02*
X300054761Y136614524D01*
X300054761Y136043096D02*
X298054761Y136043096D01*
X298340476Y136233572D01*
X298530952Y136424048D01*
X298626190Y136614524D01*
X298911904Y134328810D02*
X298816666Y134519286D01*
X298721428Y134614524D01*
X298530952Y134709762D01*
X298435714Y134709762D01*
X298245238Y134614524D01*
X298150000Y134519286D01*
X298054761Y134328810D01*
X298054761Y133947858D01*
X298150000Y133757381D01*
X298245238Y133662143D01*
X298435714Y133566905D01*
X298530952Y133566905D01*
X298721428Y133662143D01*
X298816666Y133757381D01*
X298911904Y133947858D01*
X298911904Y134328810D01*
X299007142Y134519286D01*
X299102380Y134614524D01*
X299292857Y134709762D01*
X299673809Y134709762D01*
X299864285Y134614524D01*
X299959523Y134519286D01*
X300054761Y134328810D01*
X300054761Y133947858D01*
X299959523Y133757381D01*
X299864285Y133662143D01*
X299673809Y133566905D01*
X299292857Y133566905D01*
X299102380Y133662143D01*
X299007142Y133757381D01*
X298911904Y133947858D01*
X299864285Y132709762D02*
X299959523Y132614524D01*
X300054761Y132709762D01*
X299959523Y132805001D01*
X299864285Y132709762D01*
X300054761Y132709762D01*
X300054761Y130709762D02*
X300054761Y131852620D01*
X300054761Y131281191D02*
X298054761Y131281191D01*
X298340476Y131471667D01*
X298530952Y131662143D01*
X298626190Y131852620D01*
X298054761Y129471667D02*
X298054761Y129281191D01*
X298150000Y129090715D01*
X298245238Y128995477D01*
X298435714Y128900239D01*
X298816666Y128805001D01*
X299292857Y128805001D01*
X299673809Y128900239D01*
X299864285Y128995477D01*
X299959523Y129090715D01*
X300054761Y129281191D01*
X300054761Y129471667D01*
X299959523Y129662143D01*
X299864285Y129757381D01*
X299673809Y129852620D01*
X299292857Y129947858D01*
X298816666Y129947858D01*
X298435714Y129852620D01*
X298245238Y129757381D01*
X298150000Y129662143D01*
X298054761Y129471667D01*
X299864285Y127947858D02*
X299959523Y127852620D01*
X300054761Y127947858D01*
X299959523Y128043096D01*
X299864285Y127947858D01*
X300054761Y127947858D01*
X300054761Y125947858D02*
X300054761Y127090715D01*
X300054761Y126519286D02*
X298054761Y126519286D01*
X298340476Y126709762D01*
X298530952Y126900239D01*
X298626190Y127090715D01*
X300054761Y124043096D02*
X300054761Y125185953D01*
X300054761Y124614524D02*
X298054761Y124614524D01*
X298340476Y124805001D01*
X298530952Y124995477D01*
X298626190Y125185953D01*
X299959523Y121757381D02*
X300054761Y121566905D01*
X300054761Y121185953D01*
X299959523Y120995477D01*
X299769047Y120900239D01*
X299673809Y120900239D01*
X299483333Y120995477D01*
X299388095Y121185953D01*
X299388095Y121471667D01*
X299292857Y121662143D01*
X299102380Y121757381D01*
X299007142Y121757381D01*
X298816666Y121662143D01*
X298721428Y121471667D01*
X298721428Y121185953D01*
X298816666Y120995477D01*
X299959523Y119185953D02*
X300054761Y119376429D01*
X300054761Y119757381D01*
X299959523Y119947858D01*
X299864285Y120043096D01*
X299673809Y120138334D01*
X299102380Y120138334D01*
X298911904Y120043096D01*
X298816666Y119947858D01*
X298721428Y119757381D01*
X298721428Y119376429D01*
X298816666Y119185953D01*
X298721428Y117471667D02*
X300054761Y117471667D01*
X298721428Y118328810D02*
X299769047Y118328810D01*
X299959523Y118233572D01*
X300054761Y118043096D01*
X300054761Y117757381D01*
X299959523Y117566905D01*
X299864285Y117471667D01*
X300054761Y116519286D02*
X298721428Y116519286D01*
X298911904Y116519286D02*
X298816666Y116424048D01*
X298721428Y116233572D01*
X298721428Y115947858D01*
X298816666Y115757381D01*
X299007142Y115662143D01*
X300054761Y115662143D01*
X299007142Y115662143D02*
X298816666Y115566905D01*
X298721428Y115376429D01*
X298721428Y115090715D01*
X298816666Y114900239D01*
X299007142Y114805001D01*
X300054761Y114805001D01*
X298721428Y112328810D02*
X300054761Y112328810D01*
X298911904Y112328810D02*
X298816666Y112233572D01*
X298721428Y112043096D01*
X298721428Y111757381D01*
X298816666Y111566905D01*
X299007142Y111471667D01*
X300054761Y111471667D01*
X300054761Y110233572D02*
X299959523Y110424048D01*
X299864285Y110519286D01*
X299673809Y110614524D01*
X299102380Y110614524D01*
X298911904Y110519286D01*
X298816666Y110424048D01*
X298721428Y110233572D01*
X298721428Y109947858D01*
X298816666Y109757381D01*
X298911904Y109662143D01*
X299102380Y109566905D01*
X299673809Y109566905D01*
X299864285Y109662143D01*
X299959523Y109757381D01*
X300054761Y109947858D01*
X300054761Y110233572D01*
X300054761Y108424048D02*
X299959523Y108614524D01*
X299864285Y108709762D01*
X299673809Y108805001D01*
X299102380Y108805001D01*
X298911904Y108709762D01*
X298816666Y108614524D01*
X298721428Y108424048D01*
X298721428Y108138334D01*
X298816666Y107947858D01*
X298911904Y107852620D01*
X299102380Y107757381D01*
X299673809Y107757381D01*
X299864285Y107852620D01*
X299959523Y107947858D01*
X300054761Y108138334D01*
X300054761Y108424048D01*
X300054761Y106043096D02*
X298054761Y106043096D01*
X299959523Y106043096D02*
X300054761Y106233572D01*
X300054761Y106614524D01*
X299959523Y106805001D01*
X299864285Y106900239D01*
X299673809Y106995477D01*
X299102380Y106995477D01*
X298911904Y106900239D01*
X298816666Y106805001D01*
X298721428Y106614524D01*
X298721428Y106233572D01*
X298816666Y106043096D01*
X300054761Y104805001D02*
X299959523Y104995477D01*
X299769047Y105090715D01*
X298054761Y105090715D01*
X299959523Y103281191D02*
X300054761Y103471667D01*
X300054761Y103852620D01*
X299959523Y104043096D01*
X299769047Y104138334D01*
X299007142Y104138334D01*
X298816666Y104043096D01*
X298721428Y103852620D01*
X298721428Y103471667D01*
X298816666Y103281191D01*
X299007142Y103185953D01*
X299197619Y103185953D01*
X299388095Y104138334D01*
X299959523Y100900239D02*
X300054761Y100709762D01*
X300054761Y100328810D01*
X299959523Y100138334D01*
X299769047Y100043096D01*
X299673809Y100043096D01*
X299483333Y100138334D01*
X299388095Y100328810D01*
X299388095Y100614524D01*
X299292857Y100805001D01*
X299102380Y100900239D01*
X299007142Y100900239D01*
X298816666Y100805001D01*
X298721428Y100614524D01*
X298721428Y100328810D01*
X298816666Y100138334D01*
X300054761Y98900239D02*
X299959523Y99090715D01*
X299864285Y99185953D01*
X299673809Y99281191D01*
X299102380Y99281191D01*
X298911904Y99185953D01*
X298816666Y99090715D01*
X298721428Y98900239D01*
X298721428Y98614524D01*
X298816666Y98424048D01*
X298911904Y98328810D01*
X299102380Y98233572D01*
X299673809Y98233572D01*
X299864285Y98328810D01*
X299959523Y98424048D01*
X300054761Y98614524D01*
X300054761Y98900239D01*
X299959523Y96519286D02*
X300054761Y96709762D01*
X300054761Y97090715D01*
X299959523Y97281191D01*
X299864285Y97376429D01*
X299673809Y97471667D01*
X299102380Y97471667D01*
X298911904Y97376429D01*
X298816666Y97281191D01*
X298721428Y97090715D01*
X298721428Y96709762D01*
X298816666Y96519286D01*
X300054761Y95662143D02*
X298721428Y95662143D01*
X298054761Y95662143D02*
X298150000Y95757381D01*
X298245238Y95662143D01*
X298150000Y95566905D01*
X298054761Y95662143D01*
X298245238Y95662143D01*
X299959523Y93947858D02*
X300054761Y94138334D01*
X300054761Y94519286D01*
X299959523Y94709762D01*
X299769047Y94805001D01*
X299007142Y94805001D01*
X298816666Y94709762D01*
X298721428Y94519286D01*
X298721428Y94138334D01*
X298816666Y93947858D01*
X299007142Y93852620D01*
X299197619Y93852620D01*
X299388095Y94805001D01*
X298721428Y93281191D02*
X298721428Y92519286D01*
X298054761Y92995477D02*
X299769047Y92995477D01*
X299959523Y92900239D01*
X300054761Y92709762D01*
X300054761Y92519286D01*
X298721428Y92043096D02*
X300054761Y91566905D01*
X298721428Y91090715D02*
X300054761Y91566905D01*
X300530952Y91757381D01*
X300626190Y91852620D01*
X300721428Y92043096D01*
D11*
G04 #@! TO.C,MH*
X8500000Y36000000D02*
X18500000Y36000000D01*
X13500000Y41000000D02*
X13500000Y31000000D01*
X18500000Y36000000D02*
G75*
G03X18500000Y36000000I-5000000J0D01*
G01*
X303500000Y298000000D02*
X303500000Y290000000D01*
X307500000Y294000000D02*
X299500000Y294000000D01*
X306250000Y294000000D02*
G75*
G03X306250000Y294000000I-2750000J0D01*
G01*
X152000000Y199000000D02*
X152000000Y191000000D01*
X156000000Y195000000D02*
X148000000Y195000000D01*
X154750000Y195000000D02*
G75*
G03X154750000Y195000000I-2750000J0D01*
G01*
X152000000Y293000000D02*
X152000000Y285000000D01*
X156000000Y289000000D02*
X148000000Y289000000D01*
X154750000Y289000000D02*
G75*
G03X154750000Y289000000I-2750000J0D01*
G01*
X13500000Y178000000D02*
X13500000Y170000000D01*
X17500000Y174000000D02*
X9500000Y174000000D01*
X16250000Y174000000D02*
G75*
G03X16250000Y174000000I-2750000J0D01*
G01*
X13500000Y298000000D02*
X13500000Y290000000D01*
X17500000Y294000000D02*
X9500000Y294000000D01*
X16250000Y294000000D02*
G75*
G03X16250000Y294000000I-2750000J0D01*
G01*
X303500000Y178000000D02*
X303500000Y170000000D01*
X307500000Y174000000D02*
X299500000Y174000000D01*
X306250000Y174000000D02*
G75*
G03X306250000Y174000000I-2750000J0D01*
G01*
X147000000Y57000000D02*
X157000000Y57000000D01*
X152000000Y62000000D02*
X152000000Y52000000D01*
X157000000Y57000000D02*
G75*
G03X157000000Y57000000I-5000000J0D01*
G01*
X147000000Y151000000D02*
X157000000Y151000000D01*
X152000000Y156000000D02*
X152000000Y146000000D01*
X157000000Y151000000D02*
G75*
G03X157000000Y151000000I-5000000J0D01*
G01*
X298500000Y156000000D02*
X308500000Y156000000D01*
X303500000Y161000000D02*
X303500000Y151000000D01*
X308500000Y156000000D02*
G75*
G03X308500000Y156000000I-5000000J0D01*
G01*
X8500000Y156000000D02*
X18500000Y156000000D01*
X13500000Y161000000D02*
X13500000Y151000000D01*
X18500000Y156000000D02*
G75*
G03X18500000Y156000000I-5000000J0D01*
G01*
G04 #@! TO.C,H13*
X143000000Y26000000D02*
X143000000Y18000000D01*
X147000000Y22000000D02*
X139000000Y22000000D01*
X145750000Y22000000D02*
G75*
G03X145750000Y22000000I-2750000J0D01*
G01*
G04 #@! TO.C,H14*
X186000000Y18000000D02*
X186000000Y10000000D01*
X190000000Y14000000D02*
X182000000Y14000000D01*
X188750000Y14000000D02*
G75*
G03X188750000Y14000000I-2750000J0D01*
G01*
G04 #@! TO.C,H12*
X100500000Y18000000D02*
X100500000Y10000000D01*
X104500000Y14000000D02*
X96500000Y14000000D01*
X103250000Y14000000D02*
G75*
G03X103250000Y14000000I-2750000J0D01*
G01*
G04 #@! TO.C,U1*
X263253640Y44131100D02*
X262364640Y44131100D01*
X263253640Y44512100D02*
X263253640Y44131100D01*
X262364640Y44512100D02*
X263253640Y44512100D01*
X262364640Y44131100D02*
X262364640Y44512100D01*
X263253640Y46671100D02*
X262364640Y46671100D01*
X263253640Y46290100D02*
X263253640Y46671100D01*
X262364640Y46290100D02*
X263253640Y46290100D01*
X262364640Y46671100D02*
X262364640Y46290100D01*
X264269640Y42099100D02*
X264269640Y42861100D01*
X262618640Y42099100D02*
X264269640Y42099100D01*
X262618640Y42861100D02*
X262618640Y42099100D01*
X264269640Y48703100D02*
X264269640Y47941100D01*
X262618640Y48703100D02*
X264269640Y48703100D01*
X262618640Y47941100D02*
X262618640Y48703100D01*
X264904640Y42861100D02*
X263634640Y42861100D01*
X263634640Y47941100D02*
X264904640Y47941100D01*
X263634640Y42861100D02*
X261729640Y42861100D01*
X264904640Y47941100D02*
X264904640Y42861100D01*
X261729640Y47941100D02*
X263634640Y47941100D01*
D12*
X297349640Y51861100D02*
X297349640Y38941100D01*
X261609640Y54351100D02*
X297409640Y54351100D01*
X297409640Y54351100D02*
X297409640Y36451100D01*
X297409640Y36451100D02*
X261609640Y36451100D01*
X261609640Y36451100D02*
X261609640Y54351100D01*
G04 #@! TO.C,U2*
X57839640Y44711100D02*
G75*
G03X57839640Y42711100I0J-1000000D01*
G01*
X57839640Y42711100D02*
X57839640Y41061100D01*
X57839640Y41061100D02*
X22159640Y41061100D01*
X22159640Y41061100D02*
X22159640Y46361100D01*
X22159640Y46361100D02*
X57839640Y46361100D01*
X57839640Y46361100D02*
X57839640Y44711100D01*
G04 #@! TO.C,R4*
X270190000Y66630000D02*
X272810000Y66630000D01*
X272810000Y66630000D02*
X272810000Y60210000D01*
X272810000Y60210000D02*
X270190000Y60210000D01*
X270190000Y60210000D02*
X270190000Y66630000D01*
X271500000Y67520000D02*
X271500000Y66630000D01*
X271500000Y59320000D02*
X271500000Y60210000D01*
G04 #@! TO.C,R3*
X263190000Y66630000D02*
X265810000Y66630000D01*
X265810000Y66630000D02*
X265810000Y60210000D01*
X265810000Y60210000D02*
X263190000Y60210000D01*
X263190000Y60210000D02*
X263190000Y66630000D01*
X264500000Y67520000D02*
X264500000Y66630000D01*
X264500000Y59320000D02*
X264500000Y60210000D01*
G04 #@! TO.C,R2*
X273690000Y66630000D02*
X276310000Y66630000D01*
X276310000Y66630000D02*
X276310000Y60210000D01*
X276310000Y60210000D02*
X273690000Y60210000D01*
X273690000Y60210000D02*
X273690000Y66630000D01*
X275000000Y67520000D02*
X275000000Y66630000D01*
X275000000Y59320000D02*
X275000000Y60210000D01*
G04 #@! TO.C,R1*
X266690000Y66630000D02*
X269310000Y66630000D01*
X269310000Y66630000D02*
X269310000Y60210000D01*
X269310000Y60210000D02*
X266690000Y60210000D01*
X266690000Y60210000D02*
X266690000Y66630000D01*
X268000000Y67520000D02*
X268000000Y66630000D01*
X268000000Y59320000D02*
X268000000Y60210000D01*
G04 #@! TO.C,DSW1*
X282860000Y59070000D02*
G75*
G03X280860000Y59070000I-1000000J0D01*
G01*
X280860000Y59070000D02*
X279210000Y59070000D01*
X279210000Y59070000D02*
X279210000Y69350000D01*
X279210000Y69350000D02*
X284510000Y69350000D01*
X284510000Y69350000D02*
X284510000Y59070000D01*
X284510000Y59070000D02*
X282860000Y59070000D01*
G04 #@! TO.C,C1*
X32210000Y52060000D02*
X27490000Y52060000D01*
X32210000Y48940000D02*
X27490000Y48940000D01*
X32210000Y52060000D02*
X32210000Y48940000D01*
X27490000Y52060000D02*
X27490000Y48940000D01*
G04 #@! TO.C,J1*
X206530000Y28830000D02*
X206530000Y26170000D01*
X193770000Y28830000D02*
X206530000Y28830000D01*
X193770000Y26170000D02*
X206530000Y26170000D01*
X193770000Y28830000D02*
X193770000Y26170000D01*
X192500000Y28830000D02*
X191170000Y28830000D01*
X191170000Y28830000D02*
X191170000Y27500000D01*
G04 #@! TO.C,J2*
X191170000Y35560000D02*
X206530000Y35560000D01*
X206530000Y35560000D02*
X206530000Y32900000D01*
X206530000Y32900000D02*
X191170000Y32900000D01*
X191170000Y32900000D02*
X191170000Y35560000D01*
X192120000Y32900000D02*
X192120000Y26900000D01*
X192120000Y26900000D02*
X192880000Y26900000D01*
X192880000Y26900000D02*
X192880000Y32900000D01*
X192180000Y32900000D02*
X192180000Y26900000D01*
X192300000Y32900000D02*
X192300000Y26900000D01*
X192420000Y32900000D02*
X192420000Y26900000D01*
X192540000Y32900000D02*
X192540000Y26900000D01*
X192660000Y32900000D02*
X192660000Y26900000D01*
X192780000Y32900000D02*
X192780000Y26900000D01*
X192120000Y35890000D02*
X192120000Y35560000D01*
X192880000Y35890000D02*
X192880000Y35560000D01*
X193770000Y35560000D02*
X193770000Y32900000D01*
X194660000Y32900000D02*
X194660000Y26900000D01*
X194660000Y26900000D02*
X195420000Y26900000D01*
X195420000Y26900000D02*
X195420000Y32900000D01*
X194660000Y35957071D02*
X194660000Y35560000D01*
X195420000Y35957071D02*
X195420000Y35560000D01*
X196310000Y35560000D02*
X196310000Y32900000D01*
X197200000Y32900000D02*
X197200000Y26900000D01*
X197200000Y26900000D02*
X197960000Y26900000D01*
X197960000Y26900000D02*
X197960000Y32900000D01*
X197200000Y35957071D02*
X197200000Y35560000D01*
X197960000Y35957071D02*
X197960000Y35560000D01*
X198850000Y35560000D02*
X198850000Y32900000D01*
X199740000Y32900000D02*
X199740000Y26900000D01*
X199740000Y26900000D02*
X200500000Y26900000D01*
X200500000Y26900000D02*
X200500000Y32900000D01*
X199740000Y35957071D02*
X199740000Y35560000D01*
X200500000Y35957071D02*
X200500000Y35560000D01*
X201390000Y35560000D02*
X201390000Y32900000D01*
X202280000Y32900000D02*
X202280000Y26900000D01*
X202280000Y26900000D02*
X203040000Y26900000D01*
X203040000Y26900000D02*
X203040000Y32900000D01*
X202280000Y35957071D02*
X202280000Y35560000D01*
X203040000Y35957071D02*
X203040000Y35560000D01*
X203930000Y35560000D02*
X203930000Y32900000D01*
X204820000Y32900000D02*
X204820000Y26900000D01*
X204820000Y26900000D02*
X205580000Y26900000D01*
X205580000Y26900000D02*
X205580000Y32900000D01*
X204820000Y35957071D02*
X204820000Y35560000D01*
X205580000Y35957071D02*
X205580000Y35560000D01*
X192500000Y38270000D02*
X191230000Y38270000D01*
X191230000Y38270000D02*
X191230000Y37000000D01*
G04 #@! TO.C,J3*
X94370000Y28830000D02*
X94370000Y26170000D01*
X91770000Y28830000D02*
X94370000Y28830000D01*
X91770000Y26170000D02*
X94370000Y26170000D01*
X91770000Y28830000D02*
X91770000Y26170000D01*
X90500000Y28830000D02*
X89170000Y28830000D01*
X89170000Y28830000D02*
X89170000Y27500000D01*
G04 #@! TO.C,J4*
X89170000Y35560000D02*
X94370000Y35560000D01*
X94370000Y35560000D02*
X94370000Y32900000D01*
X94370000Y32900000D02*
X89170000Y32900000D01*
X89170000Y32900000D02*
X89170000Y35560000D01*
X90120000Y32900000D02*
X90120000Y26900000D01*
X90120000Y26900000D02*
X90880000Y26900000D01*
X90880000Y26900000D02*
X90880000Y32900000D01*
X90180000Y32900000D02*
X90180000Y26900000D01*
X90300000Y32900000D02*
X90300000Y26900000D01*
X90420000Y32900000D02*
X90420000Y26900000D01*
X90540000Y32900000D02*
X90540000Y26900000D01*
X90660000Y32900000D02*
X90660000Y26900000D01*
X90780000Y32900000D02*
X90780000Y26900000D01*
X90120000Y35890000D02*
X90120000Y35560000D01*
X90880000Y35890000D02*
X90880000Y35560000D01*
X91770000Y35560000D02*
X91770000Y32900000D01*
X92660000Y32900000D02*
X92660000Y26900000D01*
X92660000Y26900000D02*
X93420000Y26900000D01*
X93420000Y26900000D02*
X93420000Y32900000D01*
X92660000Y35957071D02*
X92660000Y35560000D01*
X93420000Y35957071D02*
X93420000Y35560000D01*
X90500000Y38270000D02*
X89230000Y38270000D01*
X89230000Y38270000D02*
X89230000Y37000000D01*
D11*
G04 #@! TO.C,MH*
X298500000Y36000000D02*
X308500000Y36000000D01*
X303500000Y41000000D02*
X303500000Y31000000D01*
X308500000Y36000000D02*
G75*
G03X308500000Y36000000I-5000000J0D01*
G01*
G04 #@! TO.C,U1*
X260122020Y46163005D02*
X260931544Y46163005D01*
X261026782Y46115386D01*
X261074401Y46067767D01*
X261122020Y45972529D01*
X261122020Y45782053D01*
X261074401Y45686815D01*
X261026782Y45639196D01*
X260931544Y45591577D01*
X260122020Y45591577D01*
X261122020Y44591577D02*
X261122020Y45163005D01*
X261122020Y44877291D02*
X260122020Y44877291D01*
X260264878Y44972529D01*
X260360116Y45067767D01*
X260407735Y45163005D01*
G04 #@! TO.C,U2*
X58292020Y44473005D02*
X59101544Y44473005D01*
X59196782Y44425386D01*
X59244401Y44377767D01*
X59292020Y44282529D01*
X59292020Y44092053D01*
X59244401Y43996815D01*
X59196782Y43949196D01*
X59101544Y43901577D01*
X58292020Y43901577D01*
X58387259Y43473005D02*
X58339640Y43425386D01*
X58292020Y43330148D01*
X58292020Y43092053D01*
X58339640Y42996815D01*
X58387259Y42949196D01*
X58482497Y42901577D01*
X58577735Y42901577D01*
X58720592Y42949196D01*
X59292020Y43520624D01*
X59292020Y42901577D01*
G04 #@! TO.C,R4*
X271666666Y70047620D02*
X272000000Y70523810D01*
X272238095Y70047620D02*
X272238095Y71047620D01*
X271857142Y71047620D01*
X271761904Y71000000D01*
X271714285Y70952381D01*
X271666666Y70857143D01*
X271666666Y70714286D01*
X271714285Y70619048D01*
X271761904Y70571429D01*
X271857142Y70523810D01*
X272238095Y70523810D01*
X270809523Y70714286D02*
X270809523Y70047620D01*
X271047619Y71095239D02*
X271285714Y70380953D01*
X270666666Y70380953D01*
G04 #@! TO.C,R3*
X264666666Y70047620D02*
X265000000Y70523810D01*
X265238095Y70047620D02*
X265238095Y71047620D01*
X264857142Y71047620D01*
X264761904Y71000000D01*
X264714285Y70952381D01*
X264666666Y70857143D01*
X264666666Y70714286D01*
X264714285Y70619048D01*
X264761904Y70571429D01*
X264857142Y70523810D01*
X265238095Y70523810D01*
X264333333Y71047620D02*
X263714285Y71047620D01*
X264047619Y70666667D01*
X263904761Y70666667D01*
X263809523Y70619048D01*
X263761904Y70571429D01*
X263714285Y70476191D01*
X263714285Y70238096D01*
X263761904Y70142858D01*
X263809523Y70095239D01*
X263904761Y70047620D01*
X264190476Y70047620D01*
X264285714Y70095239D01*
X264333333Y70142858D01*
G04 #@! TO.C,R2*
X275166666Y70047620D02*
X275500000Y70523810D01*
X275738095Y70047620D02*
X275738095Y71047620D01*
X275357142Y71047620D01*
X275261904Y71000000D01*
X275214285Y70952381D01*
X275166666Y70857143D01*
X275166666Y70714286D01*
X275214285Y70619048D01*
X275261904Y70571429D01*
X275357142Y70523810D01*
X275738095Y70523810D01*
X274785714Y70952381D02*
X274738095Y71000000D01*
X274642857Y71047620D01*
X274404761Y71047620D01*
X274309523Y71000000D01*
X274261904Y70952381D01*
X274214285Y70857143D01*
X274214285Y70761905D01*
X274261904Y70619048D01*
X274833333Y70047620D01*
X274214285Y70047620D01*
G04 #@! TO.C,R1*
X268166666Y70047620D02*
X268500000Y70523810D01*
X268738095Y70047620D02*
X268738095Y71047620D01*
X268357142Y71047620D01*
X268261904Y71000000D01*
X268214285Y70952381D01*
X268166666Y70857143D01*
X268166666Y70714286D01*
X268214285Y70619048D01*
X268261904Y70571429D01*
X268357142Y70523810D01*
X268738095Y70523810D01*
X267214285Y70047620D02*
X267785714Y70047620D01*
X267500000Y70047620D02*
X267500000Y71047620D01*
X267595238Y70904762D01*
X267690476Y70809524D01*
X267785714Y70761905D01*
G04 #@! TO.C,DSW1*
X283645714Y57617620D02*
X283645714Y58617620D01*
X283407619Y58617620D01*
X283264761Y58570000D01*
X283169523Y58474762D01*
X283121904Y58379524D01*
X283074285Y58189048D01*
X283074285Y58046191D01*
X283121904Y57855715D01*
X283169523Y57760477D01*
X283264761Y57665239D01*
X283407619Y57617620D01*
X283645714Y57617620D01*
X282693333Y57665239D02*
X282550476Y57617620D01*
X282312380Y57617620D01*
X282217142Y57665239D01*
X282169523Y57712858D01*
X282121904Y57808096D01*
X282121904Y57903334D01*
X282169523Y57998572D01*
X282217142Y58046191D01*
X282312380Y58093810D01*
X282502857Y58141429D01*
X282598095Y58189048D01*
X282645714Y58236667D01*
X282693333Y58331905D01*
X282693333Y58427143D01*
X282645714Y58522381D01*
X282598095Y58570000D01*
X282502857Y58617620D01*
X282264761Y58617620D01*
X282121904Y58570000D01*
X281788571Y58617620D02*
X281550476Y57617620D01*
X281360000Y58331905D01*
X281169523Y57617620D01*
X280931428Y58617620D01*
X280026666Y57617620D02*
X280598095Y57617620D01*
X280312380Y57617620D02*
X280312380Y58617620D01*
X280407619Y58474762D01*
X280502857Y58379524D01*
X280598095Y58331905D01*
G04 #@! TO.C,C1*
X30166667Y52642858D02*
X30214286Y52595239D01*
X30357143Y52547620D01*
X30452381Y52547620D01*
X30595239Y52595239D01*
X30690477Y52690477D01*
X30738096Y52785715D01*
X30785715Y52976191D01*
X30785715Y53119048D01*
X30738096Y53309524D01*
X30690477Y53404762D01*
X30595239Y53500000D01*
X30452381Y53547620D01*
X30357143Y53547620D01*
X30214286Y53500000D01*
X30166667Y53452381D01*
X29214286Y52547620D02*
X29785715Y52547620D01*
X29500001Y52547620D02*
X29500001Y53547620D01*
X29595239Y53404762D01*
X29690477Y53309524D01*
X29785715Y53261905D01*
G04 #@! TO.C,J1*
X199333333Y25047620D02*
X199333333Y24333334D01*
X199380952Y24190477D01*
X199476190Y24095239D01*
X199619047Y24047620D01*
X199714285Y24047620D01*
X198333333Y24047620D02*
X198904761Y24047620D01*
X198619047Y24047620D02*
X198619047Y25047620D01*
X198714285Y24904762D01*
X198809523Y24809524D01*
X198904761Y24761905D01*
G04 #@! TO.C,J2*
X198833333Y40047620D02*
X198833333Y39333334D01*
X198880952Y39190477D01*
X198976190Y39095239D01*
X199119047Y39047620D01*
X199214285Y39047620D01*
X198404761Y39952381D02*
X198357142Y40000000D01*
X198261904Y40047620D01*
X198023809Y40047620D01*
X197928571Y40000000D01*
X197880952Y39952381D01*
X197833333Y39857143D01*
X197833333Y39761905D01*
X197880952Y39619048D01*
X198452380Y39047620D01*
X197833333Y39047620D01*
G04 #@! TO.C,J3*
X87622380Y27833334D02*
X88336666Y27833334D01*
X88479523Y27880953D01*
X88574761Y27976191D01*
X88622380Y28119048D01*
X88622380Y28214286D01*
X87622380Y27452381D02*
X87622380Y26833334D01*
X88003333Y27166667D01*
X88003333Y27023810D01*
X88050952Y26928572D01*
X88098571Y26880953D01*
X88193809Y26833334D01*
X88431904Y26833334D01*
X88527142Y26880953D01*
X88574761Y26928572D01*
X88622380Y27023810D01*
X88622380Y27309524D01*
X88574761Y27404762D01*
X88527142Y27452381D01*
G04 #@! TO.C,J4*
X87682380Y32948334D02*
X88396666Y32948334D01*
X88539523Y32995953D01*
X88634761Y33091191D01*
X88682380Y33234048D01*
X88682380Y33329286D01*
X88015714Y32043572D02*
X88682380Y32043572D01*
X87634761Y32281667D02*
X88349047Y32519762D01*
X88349047Y31900715D01*
G04 #@! TD*
D13*
G36*
X300873000Y55127000D02*
X287127000Y55127000D01*
X287127000Y89373000D01*
X300873000Y89373000D01*
X300873000Y55127000D01*
X300873000Y55127000D01*
G37*
X300873000Y55127000D02*
X287127000Y55127000D01*
X287127000Y89373000D01*
X300873000Y89373000D01*
X300873000Y55127000D01*
M02*
