G04 #@! TF.GenerationSoftware,KiCad,Pcbnew,(5.0.0-3-g5ebb6b6)*
G04 #@! TF.CreationDate,2018-10-11T23:35:50+09:00*
G04 #@! TF.ProjectId,asceension,61736365656E73696F6E2E6B69636164,1*
G04 #@! TF.SameCoordinates,PXfde07cc8PYa7cf40c*
G04 #@! TF.FileFunction,Profile,NP*
%FSLAX46Y46*%
G04 Gerber Fmt 4.6, Leading zero omitted, Abs format (unit mm)*
G04 Created by KiCad (PCBNEW (5.0.0-3-g5ebb6b6)) date Thursday, October 11, 2018 at 11:35:50 PM*
%MOMM*%
%LPD*%
G01*
G04 APERTURE LIST*
%ADD10C,0.100000*%
G04 #@! TA.AperFunction,NonConductor*
%ADD11C,0.100000*%
G04 #@! TD*
G04 APERTURE END LIST*
D10*
X279000000Y345000000D02*
X279000000Y335000000D01*
X307000000Y344500000D02*
X307000000Y308000000D01*
X284000000Y346000000D02*
X280000000Y346000000D01*
X285000000Y335000000D02*
X285000000Y345000000D01*
X280000000Y334000000D02*
X284000000Y334000000D01*
X280000000Y334000000D02*
G75*
G02X279000000Y335000000I0J1000000D01*
G01*
X285000000Y335000000D02*
G75*
G02X284000000Y334000000I-1000000J0D01*
G01*
X284000000Y346000000D02*
G75*
G02X285000000Y345000000I0J-1000000D01*
G01*
X279000000Y345000000D02*
G75*
G02X280000000Y346000000I1000000J0D01*
G01*
X303500000Y435100000D02*
G75*
G03X301900000Y433500000I0J-1600000D01*
G01*
X152000000Y336100000D02*
G75*
G03X150400000Y334500000I0J-1600000D01*
G01*
X153600000Y334500000D02*
G75*
G03X152000000Y336100000I-1600000J0D01*
G01*
X152000000Y329900000D02*
G75*
G03X153600000Y331500000I0J1600000D01*
G01*
X150400000Y331500000D02*
G75*
G03X152000000Y329900000I1600000J0D01*
G01*
X153600000Y334500000D02*
X153600000Y331400000D01*
X150400000Y331500000D02*
X150400000Y334500000D01*
X150400000Y331500000D02*
X150400000Y334500000D01*
X153600000Y334500000D02*
X153600000Y331400000D01*
X150400000Y331500000D02*
G75*
G03X152000000Y329900000I1600000J0D01*
G01*
X152000000Y329900000D02*
G75*
G03X153600000Y331500000I0J1600000D01*
G01*
X153600000Y334500000D02*
G75*
G03X152000000Y336100000I-1600000J0D01*
G01*
X152000000Y336100000D02*
G75*
G03X150400000Y334500000I0J-1600000D01*
G01*
X152000000Y336100000D02*
G75*
G03X150400000Y334500000I0J-1600000D01*
G01*
X153600000Y334500000D02*
G75*
G03X152000000Y336100000I-1600000J0D01*
G01*
X152000000Y329900000D02*
G75*
G03X153600000Y331500000I0J1600000D01*
G01*
X150400000Y331500000D02*
G75*
G03X152000000Y329900000I1600000J0D01*
G01*
X153600000Y334500000D02*
X153600000Y331400000D01*
X150400000Y331500000D02*
X150400000Y334500000D01*
X150400000Y331500000D02*
X150400000Y334500000D01*
X153600000Y334500000D02*
X153600000Y331400000D01*
X150400000Y331500000D02*
G75*
G03X152000000Y329900000I1600000J0D01*
G01*
X152000000Y329900000D02*
G75*
G03X153600000Y331500000I0J1600000D01*
G01*
X153600000Y334500000D02*
G75*
G03X152000000Y336100000I-1600000J0D01*
G01*
X152000000Y336100000D02*
G75*
G03X150400000Y334500000I0J-1600000D01*
G01*
X303500000Y315100000D02*
G75*
G03X301900000Y313500000I0J-1600000D01*
G01*
X305100000Y313500000D02*
G75*
G03X303500000Y315100000I-1600000J0D01*
G01*
X303500000Y308900000D02*
G75*
G03X305100000Y310500000I0J1600000D01*
G01*
X301900000Y310500000D02*
G75*
G03X303500000Y308900000I1600000J0D01*
G01*
X305100000Y313500000D02*
X305100000Y310400000D01*
X301900000Y310500000D02*
X301900000Y313500000D01*
X301900000Y310500000D02*
X301900000Y313500000D01*
X305100000Y313500000D02*
X305100000Y310400000D01*
X301900000Y310500000D02*
G75*
G03X303500000Y308900000I1600000J0D01*
G01*
X303500000Y308900000D02*
G75*
G03X305100000Y310500000I0J1600000D01*
G01*
X305100000Y313500000D02*
G75*
G03X303500000Y315100000I-1600000J0D01*
G01*
X303500000Y315100000D02*
G75*
G03X301900000Y313500000I0J-1600000D01*
G01*
X303500000Y315100000D02*
G75*
G03X301900000Y313500000I0J-1600000D01*
G01*
X305100000Y313500000D02*
G75*
G03X303500000Y315100000I-1600000J0D01*
G01*
X303500000Y308900000D02*
G75*
G03X305100000Y310500000I0J1600000D01*
G01*
X301900000Y310500000D02*
G75*
G03X303500000Y308900000I1600000J0D01*
G01*
X305100000Y313500000D02*
X305100000Y310400000D01*
X301900000Y310500000D02*
X301900000Y313500000D01*
X301900000Y310500000D02*
X301900000Y313500000D01*
X305100000Y313500000D02*
X305100000Y310400000D01*
X301900000Y310500000D02*
G75*
G03X303500000Y308900000I1600000J0D01*
G01*
X303500000Y308900000D02*
G75*
G03X305100000Y310500000I0J1600000D01*
G01*
X305100000Y313500000D02*
G75*
G03X303500000Y315100000I-1600000J0D01*
G01*
X303500000Y315100000D02*
G75*
G03X301900000Y313500000I0J-1600000D01*
G01*
X305100000Y433500000D02*
G75*
G03X303500000Y435100000I-1600000J0D01*
G01*
X303500000Y428900000D02*
G75*
G03X305100000Y430500000I0J1600000D01*
G01*
X301900000Y430500000D02*
G75*
G03X303500000Y428900000I1600000J0D01*
G01*
X305100000Y433500000D02*
X305100000Y430400000D01*
X301900000Y430500000D02*
X301900000Y433500000D01*
X301900000Y430500000D02*
X301900000Y433500000D01*
X305100000Y433500000D02*
X305100000Y430400000D01*
X301900000Y430500000D02*
G75*
G03X303500000Y428900000I1600000J0D01*
G01*
X303500000Y428900000D02*
G75*
G03X305100000Y430500000I0J1600000D01*
G01*
X305100000Y433500000D02*
G75*
G03X303500000Y435100000I-1600000J0D01*
G01*
X303500000Y435100000D02*
G75*
G03X301900000Y433500000I0J-1600000D01*
G01*
X303500000Y435100000D02*
G75*
G03X301900000Y433500000I0J-1600000D01*
G01*
X305100000Y433500000D02*
G75*
G03X303500000Y435100000I-1600000J0D01*
G01*
X303500000Y428900000D02*
G75*
G03X305100000Y430500000I0J1600000D01*
G01*
X301900000Y430500000D02*
G75*
G03X303500000Y428900000I1600000J0D01*
G01*
X305100000Y433500000D02*
X305100000Y430400000D01*
X301900000Y430500000D02*
X301900000Y433500000D01*
X301900000Y430500000D02*
X301900000Y433500000D01*
X305100000Y433500000D02*
X305100000Y430400000D01*
X301900000Y430500000D02*
G75*
G03X303500000Y428900000I1600000J0D01*
G01*
X303500000Y428900000D02*
G75*
G03X305100000Y430500000I0J1600000D01*
G01*
X305100000Y433500000D02*
G75*
G03X303500000Y435100000I-1600000J0D01*
G01*
X303500000Y435100000D02*
G75*
G03X301900000Y433500000I0J-1600000D01*
G01*
X152000000Y430100000D02*
G75*
G03X150400000Y428500000I0J-1600000D01*
G01*
X153600000Y428500000D02*
G75*
G03X152000000Y430100000I-1600000J0D01*
G01*
X152000000Y423900000D02*
G75*
G03X153600000Y425500000I0J1600000D01*
G01*
X150400000Y425500000D02*
G75*
G03X152000000Y423900000I1600000J0D01*
G01*
X153600000Y428500000D02*
X153600000Y425400000D01*
X150400000Y425500000D02*
X150400000Y428500000D01*
X150400000Y425500000D02*
X150400000Y428500000D01*
X153600000Y428500000D02*
X153600000Y425400000D01*
X150400000Y425500000D02*
G75*
G03X152000000Y423900000I1600000J0D01*
G01*
X152000000Y423900000D02*
G75*
G03X153600000Y425500000I0J1600000D01*
G01*
X153600000Y428500000D02*
G75*
G03X152000000Y430100000I-1600000J0D01*
G01*
X152000000Y430100000D02*
G75*
G03X150400000Y428500000I0J-1600000D01*
G01*
X152000000Y430100000D02*
G75*
G03X150400000Y428500000I0J-1600000D01*
G01*
X153600000Y428500000D02*
G75*
G03X152000000Y430100000I-1600000J0D01*
G01*
X152000000Y423900000D02*
G75*
G03X153600000Y425500000I0J1600000D01*
G01*
X150400000Y425500000D02*
G75*
G03X152000000Y423900000I1600000J0D01*
G01*
X153600000Y428500000D02*
X153600000Y425400000D01*
X150400000Y425500000D02*
X150400000Y428500000D01*
X150400000Y425500000D02*
X150400000Y428500000D01*
X153600000Y428500000D02*
X153600000Y425400000D01*
X150400000Y425500000D02*
G75*
G03X152000000Y423900000I1600000J0D01*
G01*
X152000000Y423900000D02*
G75*
G03X153600000Y425500000I0J1600000D01*
G01*
X153600000Y428500000D02*
G75*
G03X152000000Y430100000I-1600000J0D01*
G01*
X152000000Y430100000D02*
G75*
G03X150400000Y428500000I0J-1600000D01*
G01*
X13500000Y315100000D02*
G75*
G03X11900000Y313500000I0J-1600000D01*
G01*
X15100000Y313500000D02*
G75*
G03X13500000Y315100000I-1600000J0D01*
G01*
X13500000Y308900000D02*
G75*
G03X15100000Y310500000I0J1600000D01*
G01*
X11900000Y310500000D02*
G75*
G03X13500000Y308900000I1600000J0D01*
G01*
X15100000Y313500000D02*
X15100000Y310400000D01*
X11900000Y310500000D02*
X11900000Y313500000D01*
X11900000Y310500000D02*
X11900000Y313500000D01*
X15100000Y313500000D02*
X15100000Y310400000D01*
X11900000Y310500000D02*
G75*
G03X13500000Y308900000I1600000J0D01*
G01*
X13500000Y308900000D02*
G75*
G03X15100000Y310500000I0J1600000D01*
G01*
X15100000Y313500000D02*
G75*
G03X13500000Y315100000I-1600000J0D01*
G01*
X13500000Y315100000D02*
G75*
G03X11900000Y313500000I0J-1600000D01*
G01*
X13500000Y315100000D02*
G75*
G03X11900000Y313500000I0J-1600000D01*
G01*
X15100000Y313500000D02*
G75*
G03X13500000Y315100000I-1600000J0D01*
G01*
X13500000Y308900000D02*
G75*
G03X15100000Y310500000I0J1600000D01*
G01*
X11900000Y310500000D02*
G75*
G03X13500000Y308900000I1600000J0D01*
G01*
X15100000Y313500000D02*
X15100000Y310400000D01*
X11900000Y310500000D02*
X11900000Y313500000D01*
X11900000Y310500000D02*
X11900000Y313500000D01*
X15100000Y313500000D02*
X15100000Y310400000D01*
X11900000Y310500000D02*
G75*
G03X13500000Y308900000I1600000J0D01*
G01*
X13500000Y308900000D02*
G75*
G03X15100000Y310500000I0J1600000D01*
G01*
X15100000Y313500000D02*
G75*
G03X13500000Y315100000I-1600000J0D01*
G01*
X13500000Y315100000D02*
G75*
G03X11900000Y313500000I0J-1600000D01*
G01*
X13500000Y435100000D02*
G75*
G03X11900000Y433500000I0J-1600000D01*
G01*
X15100000Y433500000D02*
G75*
G03X13500000Y435100000I-1600000J0D01*
G01*
X13500000Y428900000D02*
G75*
G03X15100000Y430500000I0J1600000D01*
G01*
X11900000Y430500000D02*
G75*
G03X13500000Y428900000I1600000J0D01*
G01*
X15100000Y433500000D02*
X15100000Y430400000D01*
X11900000Y430500000D02*
X11900000Y433500000D01*
X11900000Y430500000D02*
X11900000Y433500000D01*
X15100000Y433500000D02*
X15100000Y430400000D01*
X11900000Y430500000D02*
G75*
G03X13500000Y428900000I1600000J0D01*
G01*
X13500000Y428900000D02*
G75*
G03X15100000Y430500000I0J1600000D01*
G01*
X15100000Y433500000D02*
G75*
G03X13500000Y435100000I-1600000J0D01*
G01*
X13500000Y435100000D02*
G75*
G03X11900000Y433500000I0J-1600000D01*
G01*
X13500000Y435100000D02*
G75*
G03X11900000Y433500000I0J-1600000D01*
G01*
X15100000Y433500000D02*
G75*
G03X13500000Y435100000I-1600000J0D01*
G01*
X13500000Y428900000D02*
G75*
G03X15100000Y430500000I0J1600000D01*
G01*
X11900000Y430500000D02*
G75*
G03X13500000Y428900000I1600000J0D01*
G01*
X15100000Y433500000D02*
X15100000Y430400000D01*
X11900000Y430500000D02*
X11900000Y433500000D01*
X11900000Y430500000D02*
X11900000Y433500000D01*
X15100000Y433500000D02*
X15100000Y430400000D01*
X11900000Y430500000D02*
G75*
G03X13500000Y428900000I1600000J0D01*
G01*
X13500000Y428900000D02*
G75*
G03X15100000Y430500000I0J1600000D01*
G01*
X15100000Y433500000D02*
G75*
G03X13500000Y435100000I-1600000J0D01*
G01*
X13500000Y435100000D02*
G75*
G03X11900000Y433500000I0J-1600000D01*
G01*
X308000000Y308000000D02*
X308000000Y344500000D01*
X304397916Y302500000D02*
G75*
G02X308000000Y297000000I-2397916J-5500000D01*
G01*
X308000000Y308000000D02*
G75*
G02X304397916Y302500000I-6000000J0D01*
G01*
X9000000Y297000000D02*
X9000000Y260500000D01*
X12602084Y302500000D02*
G75*
G02X9000000Y308000000I2397916J5500000D01*
G01*
X9000000Y297000000D02*
G75*
G02X12602084Y302500000I6000000J0D01*
G01*
X210000000Y9000000D02*
X216000000Y9000000D01*
X87000000Y9000000D02*
X87000000Y9500000D01*
X87000000Y9500000D02*
X87000000Y9000000D01*
X88000000Y7000000D02*
G75*
G02X86000000Y9000000I0J2000000D01*
G01*
X88000000Y8000000D02*
G75*
G02X87000000Y9000000I0J1000000D01*
G01*
X86500000Y10000000D02*
G75*
G02X87000000Y9500000I0J-500000D01*
G01*
X210000000Y9000000D02*
G75*
G02X208000000Y7000000I-2000000J0D01*
G01*
X209000000Y9000000D02*
G75*
G02X208000000Y8000000I-1000000J0D01*
G01*
X209000000Y9500000D02*
G75*
G02X209500000Y10000000I500000J0D01*
G01*
X185000000Y7000000D02*
X208000000Y7000000D01*
X185000000Y8000000D02*
X208000000Y8000000D01*
X111000000Y7000000D02*
X88000000Y7000000D01*
X111000000Y8000000D02*
X88000000Y8000000D01*
X146000000Y8000000D02*
X115000000Y8000000D01*
X146000000Y7000000D02*
X115000000Y7000000D01*
X181000000Y7000000D02*
X150000000Y7000000D01*
X181000000Y8000000D02*
X150000000Y8000000D01*
X185000000Y7000000D02*
G75*
G02X185000000Y8000000I0J500000D01*
G01*
X181000000Y8000000D02*
G75*
G02X181000000Y7000000I0J-500000D01*
G01*
X183500000Y7500000D02*
G75*
G03X183500000Y7500000I-500000J0D01*
G01*
X150000000Y7000000D02*
G75*
G02X150000000Y8000000I0J500000D01*
G01*
X146000000Y8000000D02*
G75*
G02X146000000Y7000000I0J-500000D01*
G01*
X148500000Y7500000D02*
G75*
G03X148500000Y7500000I-500000J0D01*
G01*
X115000000Y7000000D02*
G75*
G02X115000000Y8000000I0J500000D01*
G01*
X111000000Y8000000D02*
G75*
G02X111000000Y7000000I0J-500000D01*
G01*
X113500000Y7500000D02*
G75*
G03X113500000Y7500000I-500000J0D01*
G01*
X209000000Y9500000D02*
X209000000Y9000000D01*
X9000000Y435000000D02*
G75*
G02X15000000Y441000000I6000000J0D01*
G01*
X302000000Y441000000D02*
G75*
G02X308000000Y435000000I0J-6000000D01*
G01*
X303000000Y163000000D02*
X303000000Y123938492D01*
X302707220Y164041826D02*
G75*
G02X303000000Y163000000I-1707220J-1041826D01*
G01*
X301000000Y164000000D02*
G75*
G02X302000000Y163000000I0J-1000000D01*
G01*
X14000000Y163000000D02*
G75*
G02X14292780Y164041826I2000000J0D01*
G01*
X15000000Y163000000D02*
G75*
G02X16000000Y164000000I1000000J0D01*
G01*
X16000000Y30000000D02*
G75*
G02X14000000Y32000000I0J2000000D01*
G01*
X16000000Y31000000D02*
G75*
G02X15000000Y32000000I0J1000000D01*
G01*
X317000000Y0D02*
X0Y0D01*
X0Y0D02*
X0Y450000000D01*
X0Y450000000D02*
X317000000Y450000000D01*
X317000000Y0D02*
X317000000Y450000000D01*
X14292780Y164041826D02*
G75*
G02X9000000Y170000000I707220J5958174D01*
G01*
X308000000Y170000000D02*
G75*
G02X302707220Y164041826I-6000000J0D01*
G01*
X302000000Y119938492D02*
X302000000Y73938492D01*
X302000000Y69938492D02*
X302000000Y32000000D01*
X308000000Y348500000D02*
X308000000Y394500000D01*
X308000000Y398500000D02*
X308000000Y435000000D01*
X307000000Y394500000D02*
X307000000Y348500000D01*
X308000000Y260500000D02*
X308000000Y297000000D01*
X307000000Y256500000D02*
X307000000Y210500000D01*
X307000000Y206500000D02*
X307000000Y170000000D01*
X308000000Y206500000D02*
X308000000Y170000000D01*
X10000000Y210500000D02*
X10000000Y256500000D01*
X9000000Y206500000D02*
X9000000Y170000000D01*
X9000000Y256500000D02*
X9000000Y210500000D01*
X10000000Y260500000D02*
X10000000Y297000000D01*
X10000000Y348500000D02*
X10000000Y394500000D01*
X9000000Y344500000D02*
X9000000Y308000000D01*
X9000000Y398500000D02*
X9000000Y435000000D01*
X10000000Y398500000D02*
X10000000Y435000000D01*
X10000000Y348500000D02*
G75*
G02X9000000Y348500000I-500000J0D01*
G01*
X9000000Y344500000D02*
G75*
G02X10000000Y344500000I500000J0D01*
G01*
X10000000Y346500000D02*
G75*
G03X10000000Y346500000I-500000J0D01*
G01*
X10000000Y398500000D02*
G75*
G02X9000000Y398500000I-500000J0D01*
G01*
X9000000Y394500000D02*
G75*
G02X10000000Y394500000I500000J0D01*
G01*
X10000000Y396500000D02*
G75*
G03X10000000Y396500000I-500000J0D01*
G01*
X308000000Y398500000D02*
G75*
G02X307000000Y398500000I-500000J0D01*
G01*
X307000000Y394500000D02*
G75*
G02X308000000Y394500000I500000J0D01*
G01*
X308000000Y396500000D02*
G75*
G03X308000000Y396500000I-500000J0D01*
G01*
X308000000Y348500000D02*
G75*
G02X307000000Y348500000I-500000J0D01*
G01*
X307000000Y344500000D02*
G75*
G02X308000000Y344500000I500000J0D01*
G01*
X308000000Y346500000D02*
G75*
G03X308000000Y346500000I-500000J0D01*
G01*
X308000000Y210500000D02*
G75*
G02X307000000Y210500000I-500000J0D01*
G01*
X307000000Y206500000D02*
G75*
G02X308000000Y206500000I500000J0D01*
G01*
X308000000Y208500000D02*
G75*
G03X308000000Y208500000I-500000J0D01*
G01*
X308000000Y260500000D02*
G75*
G02X307000000Y260500000I-500000J0D01*
G01*
X307000000Y256500000D02*
G75*
G02X308000000Y256500000I500000J0D01*
G01*
X308000000Y258500000D02*
G75*
G03X308000000Y258500000I-500000J0D01*
G01*
X10000000Y260500000D02*
G75*
G02X9000000Y260500000I-500000J0D01*
G01*
X9000000Y256500000D02*
G75*
G02X10000000Y256500000I500000J0D01*
G01*
X10000000Y258500000D02*
G75*
G03X10000000Y258500000I-500000J0D01*
G01*
X10000000Y210500000D02*
G75*
G02X9000000Y210500000I-500000J0D01*
G01*
X9000000Y206500000D02*
G75*
G02X10000000Y206500000I500000J0D01*
G01*
X10000000Y208500000D02*
G75*
G03X10000000Y208500000I-500000J0D01*
G01*
X9000000Y394500000D02*
X9000000Y348500000D01*
X308000000Y210500000D02*
X308000000Y256500000D01*
X56500000Y440000000D02*
X15000000Y440000000D01*
X56500000Y441000000D02*
X15000000Y441000000D01*
X106500000Y440000000D02*
X60500000Y440000000D01*
X106500000Y441000000D02*
X60500000Y441000000D01*
X156500000Y440000000D02*
X110500000Y440000000D01*
X156500000Y441000000D02*
X110500000Y441000000D01*
X206500000Y441000000D02*
X160500000Y441000000D01*
X206500000Y440000000D02*
X160500000Y440000000D01*
X260500000Y441000000D02*
X302000000Y441000000D01*
X256500000Y440000000D02*
X210500000Y440000000D01*
X256500000Y441000000D02*
X210500000Y441000000D01*
X256500000Y441000000D02*
G75*
G02X256500000Y440000000I0J-500000D01*
G01*
X259000000Y440500000D02*
G75*
G03X259000000Y440500000I-500000J0D01*
G01*
X260500000Y440000000D02*
G75*
G02X260500000Y441000000I0J500000D01*
G01*
X206500000Y441000000D02*
G75*
G02X206500000Y440000000I0J-500000D01*
G01*
X209000000Y440500000D02*
G75*
G03X209000000Y440500000I-500000J0D01*
G01*
X210500000Y440000000D02*
G75*
G02X210500000Y441000000I0J500000D01*
G01*
X156500000Y441000000D02*
G75*
G02X156500000Y440000000I0J-500000D01*
G01*
X159000000Y440500000D02*
G75*
G03X159000000Y440500000I-500000J0D01*
G01*
X160500000Y440000000D02*
G75*
G02X160500000Y441000000I0J500000D01*
G01*
X106500000Y441000000D02*
G75*
G02X106500000Y440000000I0J-500000D01*
G01*
X109000000Y440500000D02*
G75*
G03X109000000Y440500000I-500000J0D01*
G01*
X110500000Y440000000D02*
G75*
G02X110500000Y441000000I0J500000D01*
G01*
X56500000Y441000000D02*
G75*
G02X56500000Y440000000I0J-500000D01*
G01*
X59000000Y440500000D02*
G75*
G03X59000000Y440500000I-500000J0D01*
G01*
X60500000Y440000000D02*
G75*
G02X60500000Y441000000I0J500000D01*
G01*
X56500000Y302000000D02*
X15000000Y302000000D01*
X60500000Y303000000D02*
X106500000Y303000000D01*
X56500000Y303000000D02*
G75*
G02X56500000Y302000000I0J-500000D01*
G01*
X59000000Y302500000D02*
G75*
G03X59000000Y302500000I-500000J0D01*
G01*
X60500000Y302000000D02*
G75*
G02X60500000Y303000000I0J500000D01*
G01*
X210500000Y303000000D02*
X256500000Y303000000D01*
X206500000Y302000000D02*
X160500000Y302000000D01*
X106500000Y302000000D02*
X60500000Y302000000D01*
X110500000Y303000000D02*
X156500000Y303000000D01*
X106500000Y303000000D02*
G75*
G02X106500000Y302000000I0J-500000D01*
G01*
X109000000Y302500000D02*
G75*
G03X109000000Y302500000I-500000J0D01*
G01*
X110500000Y302000000D02*
G75*
G02X110500000Y303000000I0J500000D01*
G01*
X156500000Y302000000D02*
X110500000Y302000000D01*
X160500000Y303000000D02*
X206500000Y303000000D01*
X156500000Y303000000D02*
G75*
G02X156500000Y302000000I0J-500000D01*
G01*
X159000000Y302500000D02*
G75*
G03X159000000Y302500000I-500000J0D01*
G01*
X160500000Y302000000D02*
G75*
G02X160500000Y303000000I0J500000D01*
G01*
X206500000Y303000000D02*
G75*
G02X206500000Y302000000I0J-500000D01*
G01*
X209000000Y302500000D02*
G75*
G03X209000000Y302500000I-500000J0D01*
G01*
X210500000Y302000000D02*
G75*
G02X210500000Y303000000I0J500000D01*
G01*
X256500000Y302000000D02*
X210500000Y302000000D01*
X260500000Y303000000D02*
X302000000Y303000000D01*
X256500000Y165000000D02*
X210500000Y165000000D01*
X256500000Y164000000D02*
X210500000Y164000000D01*
X206500000Y164000000D02*
X160500000Y164000000D01*
X206500000Y165000000D02*
X160500000Y165000000D01*
X156500000Y164000000D02*
X110500000Y164000000D01*
X156500000Y165000000D02*
X110500000Y165000000D01*
X106500000Y164000000D02*
X60500000Y164000000D01*
X106500000Y165000000D02*
X60500000Y165000000D01*
X56500000Y165000000D02*
X15000000Y165000000D01*
X56500000Y164000000D02*
X16000000Y164000000D01*
X14000000Y123938492D02*
X14000000Y163000000D01*
X15000000Y119938492D02*
X15000000Y73938492D01*
X303000000Y73938492D02*
X303000000Y119938492D01*
X303000000Y32000000D02*
X303000000Y69938492D01*
X56500000Y165000000D02*
G75*
G02X56500000Y164000000I0J-500000D01*
G01*
X59000000Y164500000D02*
G75*
G03X59000000Y164500000I-500000J0D01*
G01*
X60500000Y164000000D02*
G75*
G02X60500000Y165000000I0J500000D01*
G01*
X106500000Y165000000D02*
G75*
G02X106500000Y164000000I0J-500000D01*
G01*
X109000000Y164500000D02*
G75*
G03X109000000Y164500000I-500000J0D01*
G01*
X110500000Y164000000D02*
G75*
G02X110500000Y165000000I0J500000D01*
G01*
X156500000Y165000000D02*
G75*
G02X156500000Y164000000I0J-500000D01*
G01*
X159000000Y164500000D02*
G75*
G03X159000000Y164500000I-500000J0D01*
G01*
X160500000Y164000000D02*
G75*
G02X160500000Y165000000I0J500000D01*
G01*
X206500000Y165000000D02*
G75*
G02X206500000Y164000000I0J-500000D01*
G01*
X209000000Y164500000D02*
G75*
G03X209000000Y164500000I-500000J0D01*
G01*
X210500000Y164000000D02*
G75*
G02X210500000Y165000000I0J500000D01*
G01*
X256500000Y165000000D02*
G75*
G02X256500000Y164000000I0J-500000D01*
G01*
X259000000Y164500000D02*
G75*
G03X259000000Y164500000I-500000J0D01*
G01*
X260500000Y164000000D02*
G75*
G02X260500000Y165000000I0J500000D01*
G01*
X256500000Y303000000D02*
G75*
G02X256500000Y302000000I0J-500000D01*
G01*
X259000000Y302500000D02*
G75*
G03X259000000Y302500000I-500000J0D01*
G01*
X260500000Y302000000D02*
G75*
G02X260500000Y303000000I0J500000D01*
G01*
X303000000Y73938492D02*
G75*
G02X302000000Y73938492I-500000J0D01*
G01*
X302000000Y69938492D02*
G75*
G02X303000000Y69938492I500000J0D01*
G01*
X303000000Y71938492D02*
G75*
G03X303000000Y71938492I-500000J0D01*
G01*
X303000000Y123938492D02*
G75*
G02X302000000Y123938492I-500000J0D01*
G01*
X302000000Y119938492D02*
G75*
G02X303000000Y119938492I500000J0D01*
G01*
X303000000Y121938492D02*
G75*
G03X303000000Y121938492I-500000J0D01*
G01*
X15000000Y123938492D02*
G75*
G02X14000000Y123938492I-500000J0D01*
G01*
X14000000Y119938492D02*
G75*
G02X15000000Y119938492I500000J0D01*
G01*
X15000000Y121938492D02*
G75*
G03X15000000Y121938492I-500000J0D01*
G01*
X14000000Y69938492D02*
X14000000Y32000000D01*
X15000000Y69938492D02*
X15000000Y32000000D01*
X14000000Y69938492D02*
G75*
G02X15000000Y69938492I500000J0D01*
G01*
X15000000Y73938492D02*
G75*
G02X14000000Y73938492I-500000J0D01*
G01*
X15000000Y71938492D02*
G75*
G03X15000000Y71938492I-500000J0D01*
G01*
X14000000Y73938492D02*
X14000000Y119938492D01*
X115000000Y31000000D02*
X146000000Y31000000D01*
X86500000Y10000000D02*
X80000000Y10000000D01*
X86000000Y9000000D02*
X80000000Y9000000D01*
X150000000Y31000000D02*
X181000000Y31000000D01*
X146000000Y30000000D02*
X115000000Y30000000D01*
X209500000Y10000000D02*
X216000000Y10000000D01*
X115000000Y30000000D02*
G75*
G02X115000000Y31000000I0J500000D01*
G01*
X111000000Y31000000D02*
G75*
G02X111000000Y30000000I0J-500000D01*
G01*
X113500000Y30500000D02*
G75*
G03X113500000Y30500000I-500000J0D01*
G01*
X150000000Y30000000D02*
G75*
G02X150000000Y31000000I0J500000D01*
G01*
X146000000Y31000000D02*
G75*
G02X146000000Y30000000I0J-500000D01*
G01*
X148500000Y30500000D02*
G75*
G03X148500000Y30500000I-500000J0D01*
G01*
X301000000Y164000000D02*
X260500000Y164000000D01*
X307000000Y170000000D02*
G75*
G02X302000000Y165000000I-5000000J0D01*
G01*
X15000000Y165000000D02*
G75*
G02X10000000Y170000000I0J5000000D01*
G01*
X10000000Y297000000D02*
G75*
G02X15000000Y302000000I5000000J0D01*
G01*
X302000000Y302000000D02*
G75*
G02X307000000Y297000000I0J-5000000D01*
G01*
X302000000Y302000000D02*
X260500000Y302000000D01*
X302000000Y165000000D02*
X260500000Y165000000D01*
X15000000Y163000000D02*
X15000000Y123938492D01*
X302000000Y163000000D02*
X302000000Y123938492D01*
X10000000Y170000000D02*
X10000000Y206500000D01*
X307000000Y297000000D02*
X307000000Y260500000D01*
X307000000Y435000000D02*
X307000000Y398500000D01*
X10000000Y308000000D02*
X10000000Y344500000D01*
X302000000Y440000000D02*
X260500000Y440000000D01*
X302000000Y440000000D02*
G75*
G02X307000000Y435000000I0J-5000000D01*
G01*
X10000000Y435000000D02*
G75*
G02X15000000Y440000000I5000000J0D01*
G01*
X15000000Y303000000D02*
G75*
G02X10000000Y308000000I0J5000000D01*
G01*
X307000000Y308000000D02*
G75*
G02X302000000Y303000000I-5000000J0D01*
G01*
X15000000Y303000000D02*
X56500000Y303000000D01*
X80000000Y10000000D02*
G75*
G02X79000000Y11000000I0J1000000D01*
G01*
X86500000Y10000000D02*
X80000000Y10000000D01*
X79000000Y11000000D02*
X79000000Y29000000D01*
X79000000Y29000000D02*
G75*
G02X80000000Y30000000I1000000J0D01*
G01*
X217000000Y11000000D02*
G75*
G02X216000000Y10000000I-1000000J0D01*
G01*
X216000000Y30000000D02*
G75*
G02X217000000Y29000000I0J-1000000D01*
G01*
X210000000Y10000000D02*
X216000000Y10000000D01*
X217000000Y11000000D02*
X217000000Y29000000D01*
X211100000Y308700000D02*
G75*
G02X211100000Y306900000I0J-900000D01*
G01*
X84900000Y306900000D02*
G75*
G02X84900000Y308700000I0J900000D01*
G01*
X84900000Y308700000D02*
X211100000Y308700000D01*
X211100000Y306900000D02*
X84900000Y306900000D01*
X77000000Y30000000D02*
G75*
G02X78000000Y29000000I0J-1000000D01*
G01*
X56500000Y31000000D02*
G75*
G02X56500000Y30000000I0J-500000D01*
G01*
X59000000Y30500000D02*
G75*
G03X59000000Y30500000I-500000J0D01*
G01*
X60500000Y30000000D02*
X77000000Y30000000D01*
X60500000Y30000000D02*
G75*
G02X60500000Y31000000I0J500000D01*
G01*
X60500000Y31000000D02*
X111000000Y31000000D01*
X111000000Y30000000D02*
X80000000Y30000000D01*
X181000000Y31000000D02*
G75*
G02X181000000Y30000000I0J-500000D01*
G01*
X185000000Y30000000D02*
G75*
G02X185000000Y31000000I0J500000D01*
G01*
X218000000Y29000000D02*
G75*
G02X219000000Y30000000I1000000J0D01*
G01*
X219000000Y30000000D02*
X256500000Y30000000D01*
X256500000Y31000000D02*
G75*
G02X256500000Y30000000I0J-500000D01*
G01*
X259000000Y30500000D02*
G75*
G03X259000000Y30500000I-500000J0D01*
G01*
X260500000Y30000000D02*
G75*
G02X260500000Y31000000I0J500000D01*
G01*
X183500000Y30500000D02*
G75*
G03X183500000Y30500000I-500000J0D01*
G01*
X185000000Y31000000D02*
X256500000Y31000000D01*
X216000000Y30000000D02*
X185000000Y30000000D01*
X181000000Y30000000D02*
X150000000Y30000000D01*
X56500000Y31000000D02*
X16000000Y31000000D01*
X56500000Y30000000D02*
X16000000Y30000000D01*
X80000000Y9000000D02*
G75*
G02X78000000Y11000000I0J2000000D01*
G01*
X78000000Y29000000D02*
X78000000Y11000000D01*
X302000000Y32000000D02*
G75*
G02X301000000Y31000000I-1000000J0D01*
G01*
X303000000Y32000000D02*
G75*
G02X301000000Y30000000I-2000000J0D01*
G01*
X301000000Y31000000D02*
X260500000Y31000000D01*
X260500000Y30000000D02*
X301000000Y30000000D01*
X80000000Y9000000D02*
X86000000Y9000000D01*
X218000000Y11000000D02*
G75*
G02X216000000Y9000000I-2000000J0D01*
G01*
X216000000Y9000000D02*
X210000000Y9000000D01*
X218000000Y11000000D02*
X218000000Y29000000D01*
D11*
G04 #@! TO.C,J6*
X162200000Y438501000D02*
X162200000Y440000000D01*
X162200000Y438501000D02*
G75*
G03X162581000Y438120000I381000J0D01*
G01*
X162669000Y438120000D02*
X162581000Y438120000D01*
X162669000Y438120000D02*
G75*
G03X163050000Y438501000I0J381000D01*
G01*
X163050000Y440000000D02*
X163050000Y438501000D01*
X166950000Y438501000D02*
X166950000Y440000000D01*
X166950000Y438501000D02*
G75*
G03X167331000Y438120000I381000J0D01*
G01*
X167419000Y438120000D02*
X167331000Y438120000D01*
X167419000Y438120000D02*
G75*
G03X167800000Y438501000I0J381000D01*
G01*
X167800000Y440000000D02*
X167800000Y438501000D01*
G04 #@! TO.C,SW83*
X259509640Y202051100D02*
X259509640Y189051100D01*
X246009640Y202551100D02*
X259009640Y202551100D01*
X245509640Y189051100D02*
X245509640Y202051100D01*
X259009640Y188551100D02*
X246009640Y188551100D01*
X259509640Y189051100D02*
G75*
G02X259009640Y188551100I-500000J0D01*
G01*
X246009640Y188551100D02*
G75*
G02X245509640Y189051100I0J500000D01*
G01*
X259009640Y202551100D02*
G75*
G02X259509640Y202051100I0J-500000D01*
G01*
X245509640Y202051100D02*
G75*
G02X246009640Y202551100I500000J0D01*
G01*
G04 #@! TO.C,SW27*
X79009640Y202051100D02*
X79009640Y189051100D01*
X65509640Y202551100D02*
X78509640Y202551100D01*
X65009640Y189051100D02*
X65009640Y202051100D01*
X78509640Y188551100D02*
X65509640Y188551100D01*
X79009640Y189051100D02*
G75*
G02X78509640Y188551100I-500000J0D01*
G01*
X65509640Y188551100D02*
G75*
G02X65009640Y189051100I0J500000D01*
G01*
X78509640Y202551100D02*
G75*
G02X79009640Y202051100I0J-500000D01*
G01*
X65009640Y202051100D02*
G75*
G02X65509640Y202551100I500000J0D01*
G01*
G04 #@! TO.C,SW82*
X245259640Y221051100D02*
X245259640Y208051100D01*
X231759640Y221551100D02*
X244759640Y221551100D01*
X231259640Y208051100D02*
X231259640Y221051100D01*
X244759640Y207551100D02*
X231759640Y207551100D01*
X245259640Y208051100D02*
G75*
G02X244759640Y207551100I-500000J0D01*
G01*
X231759640Y207551100D02*
G75*
G02X231259640Y208051100I0J500000D01*
G01*
X244759640Y221551100D02*
G75*
G02X245259640Y221051100I0J-500000D01*
G01*
X231259640Y221051100D02*
G75*
G02X231759640Y221551100I500000J0D01*
G01*
G04 #@! TO.C,SW2*
X31509640Y278051100D02*
X31509640Y265051100D01*
X18009640Y278551100D02*
X31009640Y278551100D01*
X17509640Y265051100D02*
X17509640Y278051100D01*
X31009640Y264551100D02*
X18009640Y264551100D01*
X31509640Y265051100D02*
G75*
G02X31009640Y264551100I-500000J0D01*
G01*
X18009640Y264551100D02*
G75*
G02X17509640Y265051100I0J500000D01*
G01*
X31009640Y278551100D02*
G75*
G02X31509640Y278051100I0J-500000D01*
G01*
X17509640Y278051100D02*
G75*
G02X18009640Y278551100I500000J0D01*
G01*
G04 #@! TO.C,SW5*
X36259640Y221051100D02*
X36259640Y208051100D01*
X22759640Y221551100D02*
X35759640Y221551100D01*
X22259640Y208051100D02*
X22259640Y221051100D01*
X35759640Y207551100D02*
X22759640Y207551100D01*
X36259640Y208051100D02*
G75*
G02X35759640Y207551100I-500000J0D01*
G01*
X22759640Y207551100D02*
G75*
G02X22259640Y208051100I0J500000D01*
G01*
X35759640Y221551100D02*
G75*
G02X36259640Y221051100I0J-500000D01*
G01*
X22259640Y221051100D02*
G75*
G02X22759640Y221551100I500000J0D01*
G01*
G04 #@! TO.C,SW8*
X45759640Y297051100D02*
X45759640Y284051100D01*
X32259640Y297551100D02*
X45259640Y297551100D01*
X31759640Y284051100D02*
X31759640Y297051100D01*
X45259640Y283551100D02*
X32259640Y283551100D01*
X45759640Y284051100D02*
G75*
G02X45259640Y283551100I-500000J0D01*
G01*
X32259640Y283551100D02*
G75*
G02X31759640Y284051100I0J500000D01*
G01*
X45259640Y297551100D02*
G75*
G02X45759640Y297051100I0J-500000D01*
G01*
X31759640Y297051100D02*
G75*
G02X32259640Y297551100I500000J0D01*
G01*
G04 #@! TO.C,SW9*
X50509640Y278051100D02*
X50509640Y265051100D01*
X37009640Y278551100D02*
X50009640Y278551100D01*
X36509640Y265051100D02*
X36509640Y278051100D01*
X50009640Y264551100D02*
X37009640Y264551100D01*
X50509640Y265051100D02*
G75*
G02X50009640Y264551100I-500000J0D01*
G01*
X37009640Y264551100D02*
G75*
G02X36509640Y265051100I0J500000D01*
G01*
X50009640Y278551100D02*
G75*
G02X50509640Y278051100I0J-500000D01*
G01*
X36509640Y278051100D02*
G75*
G02X37009640Y278551100I500000J0D01*
G01*
G04 #@! TO.C,SW10*
X60009640Y259051100D02*
X60009640Y246051100D01*
X46509640Y259551100D02*
X59509640Y259551100D01*
X46009640Y246051100D02*
X46009640Y259051100D01*
X59509640Y245551100D02*
X46509640Y245551100D01*
X60009640Y246051100D02*
G75*
G02X59509640Y245551100I-500000J0D01*
G01*
X46509640Y245551100D02*
G75*
G02X46009640Y246051100I0J500000D01*
G01*
X59509640Y259551100D02*
G75*
G02X60009640Y259051100I0J-500000D01*
G01*
X46009640Y259051100D02*
G75*
G02X46509640Y259551100I500000J0D01*
G01*
G04 #@! TO.C,SW11*
X64759640Y240051100D02*
X64759640Y227051100D01*
X51259640Y240551100D02*
X64259640Y240551100D01*
X50759640Y227051100D02*
X50759640Y240051100D01*
X64259640Y226551100D02*
X51259640Y226551100D01*
X64759640Y227051100D02*
G75*
G02X64259640Y226551100I-500000J0D01*
G01*
X51259640Y226551100D02*
G75*
G02X50759640Y227051100I0J500000D01*
G01*
X64259640Y240551100D02*
G75*
G02X64759640Y240051100I0J-500000D01*
G01*
X50759640Y240051100D02*
G75*
G02X51259640Y240551100I500000J0D01*
G01*
G04 #@! TO.C,SW12*
X55259640Y221051100D02*
X55259640Y208051100D01*
X41759640Y221551100D02*
X54759640Y221551100D01*
X41259640Y208051100D02*
X41259640Y221051100D01*
X54759640Y207551100D02*
X41759640Y207551100D01*
X55259640Y208051100D02*
G75*
G02X54759640Y207551100I-500000J0D01*
G01*
X41759640Y207551100D02*
G75*
G02X41259640Y208051100I0J500000D01*
G01*
X54759640Y221551100D02*
G75*
G02X55259640Y221051100I0J-500000D01*
G01*
X41259640Y221051100D02*
G75*
G02X41759640Y221551100I500000J0D01*
G01*
G04 #@! TO.C,SW15*
X64759640Y297051100D02*
X64759640Y284051100D01*
X51259640Y297551100D02*
X64259640Y297551100D01*
X50759640Y284051100D02*
X50759640Y297051100D01*
X64259640Y283551100D02*
X51259640Y283551100D01*
X64759640Y284051100D02*
G75*
G02X64259640Y283551100I-500000J0D01*
G01*
X51259640Y283551100D02*
G75*
G02X50759640Y284051100I0J500000D01*
G01*
X64259640Y297551100D02*
G75*
G02X64759640Y297051100I0J-500000D01*
G01*
X50759640Y297051100D02*
G75*
G02X51259640Y297551100I500000J0D01*
G01*
G04 #@! TO.C,SW16*
X69509640Y278051100D02*
X69509640Y265051100D01*
X56009640Y278551100D02*
X69009640Y278551100D01*
X55509640Y265051100D02*
X55509640Y278051100D01*
X69009640Y264551100D02*
X56009640Y264551100D01*
X69509640Y265051100D02*
G75*
G02X69009640Y264551100I-500000J0D01*
G01*
X56009640Y264551100D02*
G75*
G02X55509640Y265051100I0J500000D01*
G01*
X69009640Y278551100D02*
G75*
G02X69509640Y278051100I0J-500000D01*
G01*
X55509640Y278051100D02*
G75*
G02X56009640Y278551100I500000J0D01*
G01*
G04 #@! TO.C,SW17*
X79009640Y259051100D02*
X79009640Y246051100D01*
X65509640Y259551100D02*
X78509640Y259551100D01*
X65009640Y246051100D02*
X65009640Y259051100D01*
X78509640Y245551100D02*
X65509640Y245551100D01*
X79009640Y246051100D02*
G75*
G02X78509640Y245551100I-500000J0D01*
G01*
X65509640Y245551100D02*
G75*
G02X65009640Y246051100I0J500000D01*
G01*
X78509640Y259551100D02*
G75*
G02X79009640Y259051100I0J-500000D01*
G01*
X65009640Y259051100D02*
G75*
G02X65509640Y259551100I500000J0D01*
G01*
G04 #@! TO.C,SW18*
X83759640Y240051100D02*
X83759640Y227051100D01*
X70259640Y240551100D02*
X83259640Y240551100D01*
X69759640Y227051100D02*
X69759640Y240051100D01*
X83259640Y226551100D02*
X70259640Y226551100D01*
X83759640Y227051100D02*
G75*
G02X83259640Y226551100I-500000J0D01*
G01*
X70259640Y226551100D02*
G75*
G02X69759640Y227051100I0J500000D01*
G01*
X83259640Y240551100D02*
G75*
G02X83759640Y240051100I0J-500000D01*
G01*
X69759640Y240051100D02*
G75*
G02X70259640Y240551100I500000J0D01*
G01*
G04 #@! TO.C,SW19*
X74259640Y221051100D02*
X74259640Y208051100D01*
X60759640Y221551100D02*
X73759640Y221551100D01*
X60259640Y208051100D02*
X60259640Y221051100D01*
X73759640Y207551100D02*
X60759640Y207551100D01*
X74259640Y208051100D02*
G75*
G02X73759640Y207551100I-500000J0D01*
G01*
X60759640Y207551100D02*
G75*
G02X60259640Y208051100I0J500000D01*
G01*
X73759640Y221551100D02*
G75*
G02X74259640Y221051100I0J-500000D01*
G01*
X60259640Y221051100D02*
G75*
G02X60759640Y221551100I500000J0D01*
G01*
G04 #@! TO.C,SW22*
X83759640Y297051100D02*
X83759640Y284051100D01*
X70259640Y297551100D02*
X83259640Y297551100D01*
X69759640Y284051100D02*
X69759640Y297051100D01*
X83259640Y283551100D02*
X70259640Y283551100D01*
X83759640Y284051100D02*
G75*
G02X83259640Y283551100I-500000J0D01*
G01*
X70259640Y283551100D02*
G75*
G02X69759640Y284051100I0J500000D01*
G01*
X83259640Y297551100D02*
G75*
G02X83759640Y297051100I0J-500000D01*
G01*
X69759640Y297051100D02*
G75*
G02X70259640Y297551100I500000J0D01*
G01*
G04 #@! TO.C,SW23*
X88509640Y278051100D02*
X88509640Y265051100D01*
X75009640Y278551100D02*
X88009640Y278551100D01*
X74509640Y265051100D02*
X74509640Y278051100D01*
X88009640Y264551100D02*
X75009640Y264551100D01*
X88509640Y265051100D02*
G75*
G02X88009640Y264551100I-500000J0D01*
G01*
X75009640Y264551100D02*
G75*
G02X74509640Y265051100I0J500000D01*
G01*
X88009640Y278551100D02*
G75*
G02X88509640Y278051100I0J-500000D01*
G01*
X74509640Y278051100D02*
G75*
G02X75009640Y278551100I500000J0D01*
G01*
G04 #@! TO.C,SW24*
X98009640Y259051100D02*
X98009640Y246051100D01*
X84509640Y259551100D02*
X97509640Y259551100D01*
X84009640Y246051100D02*
X84009640Y259051100D01*
X97509640Y245551100D02*
X84509640Y245551100D01*
X98009640Y246051100D02*
G75*
G02X97509640Y245551100I-500000J0D01*
G01*
X84509640Y245551100D02*
G75*
G02X84009640Y246051100I0J500000D01*
G01*
X97509640Y259551100D02*
G75*
G02X98009640Y259051100I0J-500000D01*
G01*
X84009640Y259051100D02*
G75*
G02X84509640Y259551100I500000J0D01*
G01*
G04 #@! TO.C,SW25*
X102759640Y240051100D02*
X102759640Y227051100D01*
X89259640Y240551100D02*
X102259640Y240551100D01*
X88759640Y227051100D02*
X88759640Y240051100D01*
X102259640Y226551100D02*
X89259640Y226551100D01*
X102759640Y227051100D02*
G75*
G02X102259640Y226551100I-500000J0D01*
G01*
X89259640Y226551100D02*
G75*
G02X88759640Y227051100I0J500000D01*
G01*
X102259640Y240551100D02*
G75*
G02X102759640Y240051100I0J-500000D01*
G01*
X88759640Y240051100D02*
G75*
G02X89259640Y240551100I500000J0D01*
G01*
G04 #@! TO.C,SW26*
X93259640Y221051100D02*
X93259640Y208051100D01*
X79759640Y221551100D02*
X92759640Y221551100D01*
X79259640Y208051100D02*
X79259640Y221051100D01*
X92759640Y207551100D02*
X79759640Y207551100D01*
X93259640Y208051100D02*
G75*
G02X92759640Y207551100I-500000J0D01*
G01*
X79759640Y207551100D02*
G75*
G02X79259640Y208051100I0J500000D01*
G01*
X92759640Y221551100D02*
G75*
G02X93259640Y221051100I0J-500000D01*
G01*
X79259640Y221051100D02*
G75*
G02X79759640Y221551100I500000J0D01*
G01*
G04 #@! TO.C,SW29*
X102759640Y297051100D02*
X102759640Y284051100D01*
X89259640Y297551100D02*
X102259640Y297551100D01*
X88759640Y284051100D02*
X88759640Y297051100D01*
X102259640Y283551100D02*
X89259640Y283551100D01*
X102759640Y284051100D02*
G75*
G02X102259640Y283551100I-500000J0D01*
G01*
X89259640Y283551100D02*
G75*
G02X88759640Y284051100I0J500000D01*
G01*
X102259640Y297551100D02*
G75*
G02X102759640Y297051100I0J-500000D01*
G01*
X88759640Y297051100D02*
G75*
G02X89259640Y297551100I500000J0D01*
G01*
G04 #@! TO.C,SW30*
X107509640Y278051100D02*
X107509640Y265051100D01*
X94009640Y278551100D02*
X107009640Y278551100D01*
X93509640Y265051100D02*
X93509640Y278051100D01*
X107009640Y264551100D02*
X94009640Y264551100D01*
X107509640Y265051100D02*
G75*
G02X107009640Y264551100I-500000J0D01*
G01*
X94009640Y264551100D02*
G75*
G02X93509640Y265051100I0J500000D01*
G01*
X107009640Y278551100D02*
G75*
G02X107509640Y278051100I0J-500000D01*
G01*
X93509640Y278051100D02*
G75*
G02X94009640Y278551100I500000J0D01*
G01*
G04 #@! TO.C,SW31*
X117009640Y259051100D02*
X117009640Y246051100D01*
X103509640Y259551100D02*
X116509640Y259551100D01*
X103009640Y246051100D02*
X103009640Y259051100D01*
X116509640Y245551100D02*
X103509640Y245551100D01*
X117009640Y246051100D02*
G75*
G02X116509640Y245551100I-500000J0D01*
G01*
X103509640Y245551100D02*
G75*
G02X103009640Y246051100I0J500000D01*
G01*
X116509640Y259551100D02*
G75*
G02X117009640Y259051100I0J-500000D01*
G01*
X103009640Y259051100D02*
G75*
G02X103509640Y259551100I500000J0D01*
G01*
G04 #@! TO.C,SW32*
X121759640Y240051100D02*
X121759640Y227051100D01*
X108259640Y240551100D02*
X121259640Y240551100D01*
X107759640Y227051100D02*
X107759640Y240051100D01*
X121259640Y226551100D02*
X108259640Y226551100D01*
X121759640Y227051100D02*
G75*
G02X121259640Y226551100I-500000J0D01*
G01*
X108259640Y226551100D02*
G75*
G02X107759640Y227051100I0J500000D01*
G01*
X121259640Y240551100D02*
G75*
G02X121759640Y240051100I0J-500000D01*
G01*
X107759640Y240051100D02*
G75*
G02X108259640Y240551100I500000J0D01*
G01*
G04 #@! TO.C,SW33*
X112259640Y221051100D02*
X112259640Y208051100D01*
X98759640Y221551100D02*
X111759640Y221551100D01*
X98259640Y208051100D02*
X98259640Y221051100D01*
X111759640Y207551100D02*
X98759640Y207551100D01*
X112259640Y208051100D02*
G75*
G02X111759640Y207551100I-500000J0D01*
G01*
X98759640Y207551100D02*
G75*
G02X98259640Y208051100I0J500000D01*
G01*
X111759640Y221551100D02*
G75*
G02X112259640Y221051100I0J-500000D01*
G01*
X98259640Y221051100D02*
G75*
G02X98759640Y221551100I500000J0D01*
G01*
G04 #@! TO.C,SW36*
X121759640Y297051100D02*
X121759640Y284051100D01*
X108259640Y297551100D02*
X121259640Y297551100D01*
X107759640Y284051100D02*
X107759640Y297051100D01*
X121259640Y283551100D02*
X108259640Y283551100D01*
X121759640Y284051100D02*
G75*
G02X121259640Y283551100I-500000J0D01*
G01*
X108259640Y283551100D02*
G75*
G02X107759640Y284051100I0J500000D01*
G01*
X121259640Y297551100D02*
G75*
G02X121759640Y297051100I0J-500000D01*
G01*
X107759640Y297051100D02*
G75*
G02X108259640Y297551100I500000J0D01*
G01*
G04 #@! TO.C,SW37*
X126509640Y278051100D02*
X126509640Y265051100D01*
X113009640Y278551100D02*
X126009640Y278551100D01*
X112509640Y265051100D02*
X112509640Y278051100D01*
X126009640Y264551100D02*
X113009640Y264551100D01*
X126509640Y265051100D02*
G75*
G02X126009640Y264551100I-500000J0D01*
G01*
X113009640Y264551100D02*
G75*
G02X112509640Y265051100I0J500000D01*
G01*
X126009640Y278551100D02*
G75*
G02X126509640Y278051100I0J-500000D01*
G01*
X112509640Y278051100D02*
G75*
G02X113009640Y278551100I500000J0D01*
G01*
G04 #@! TO.C,SW38*
X136009640Y259051100D02*
X136009640Y246051100D01*
X122509640Y259551100D02*
X135509640Y259551100D01*
X122009640Y246051100D02*
X122009640Y259051100D01*
X135509640Y245551100D02*
X122509640Y245551100D01*
X136009640Y246051100D02*
G75*
G02X135509640Y245551100I-500000J0D01*
G01*
X122509640Y245551100D02*
G75*
G02X122009640Y246051100I0J500000D01*
G01*
X135509640Y259551100D02*
G75*
G02X136009640Y259051100I0J-500000D01*
G01*
X122009640Y259051100D02*
G75*
G02X122509640Y259551100I500000J0D01*
G01*
G04 #@! TO.C,SW39*
X140759640Y240051100D02*
X140759640Y227051100D01*
X127259640Y240551100D02*
X140259640Y240551100D01*
X126759640Y227051100D02*
X126759640Y240051100D01*
X140259640Y226551100D02*
X127259640Y226551100D01*
X140759640Y227051100D02*
G75*
G02X140259640Y226551100I-500000J0D01*
G01*
X127259640Y226551100D02*
G75*
G02X126759640Y227051100I0J500000D01*
G01*
X140259640Y240551100D02*
G75*
G02X140759640Y240051100I0J-500000D01*
G01*
X126759640Y240051100D02*
G75*
G02X127259640Y240551100I500000J0D01*
G01*
G04 #@! TO.C,SW40*
X131259640Y221051100D02*
X131259640Y208051100D01*
X117759640Y221551100D02*
X130759640Y221551100D01*
X117259640Y208051100D02*
X117259640Y221051100D01*
X130759640Y207551100D02*
X117759640Y207551100D01*
X131259640Y208051100D02*
G75*
G02X130759640Y207551100I-500000J0D01*
G01*
X117759640Y207551100D02*
G75*
G02X117259640Y208051100I0J500000D01*
G01*
X130759640Y221551100D02*
G75*
G02X131259640Y221051100I0J-500000D01*
G01*
X117259640Y221051100D02*
G75*
G02X117759640Y221551100I500000J0D01*
G01*
G04 #@! TO.C,SW41*
X121759640Y202051100D02*
X121759640Y189051100D01*
X108259640Y202551100D02*
X121259640Y202551100D01*
X107759640Y189051100D02*
X107759640Y202051100D01*
X121259640Y188551100D02*
X108259640Y188551100D01*
X121759640Y189051100D02*
G75*
G02X121259640Y188551100I-500000J0D01*
G01*
X108259640Y188551100D02*
G75*
G02X107759640Y189051100I0J500000D01*
G01*
X121259640Y202551100D02*
G75*
G02X121759640Y202051100I0J-500000D01*
G01*
X107759640Y202051100D02*
G75*
G02X108259640Y202551100I500000J0D01*
G01*
G04 #@! TO.C,SW42*
X121759640Y183051100D02*
X121759640Y170051100D01*
X108259640Y183551100D02*
X121259640Y183551100D01*
X107759640Y170051100D02*
X107759640Y183051100D01*
X121259640Y169551100D02*
X108259640Y169551100D01*
X121759640Y170051100D02*
G75*
G02X121259640Y169551100I-500000J0D01*
G01*
X108259640Y169551100D02*
G75*
G02X107759640Y170051100I0J500000D01*
G01*
X121259640Y183551100D02*
G75*
G02X121759640Y183051100I0J-500000D01*
G01*
X107759640Y183051100D02*
G75*
G02X108259640Y183551100I500000J0D01*
G01*
G04 #@! TO.C,SW43*
X140759640Y297051100D02*
X140759640Y284051100D01*
X127259640Y297551100D02*
X140259640Y297551100D01*
X126759640Y284051100D02*
X126759640Y297051100D01*
X140259640Y283551100D02*
X127259640Y283551100D01*
X140759640Y284051100D02*
G75*
G02X140259640Y283551100I-500000J0D01*
G01*
X127259640Y283551100D02*
G75*
G02X126759640Y284051100I0J500000D01*
G01*
X140259640Y297551100D02*
G75*
G02X140759640Y297051100I0J-500000D01*
G01*
X126759640Y297051100D02*
G75*
G02X127259640Y297551100I500000J0D01*
G01*
G04 #@! TO.C,SW44*
X145509640Y278051100D02*
X145509640Y265051100D01*
X132009640Y278551100D02*
X145009640Y278551100D01*
X131509640Y265051100D02*
X131509640Y278051100D01*
X145009640Y264551100D02*
X132009640Y264551100D01*
X145509640Y265051100D02*
G75*
G02X145009640Y264551100I-500000J0D01*
G01*
X132009640Y264551100D02*
G75*
G02X131509640Y265051100I0J500000D01*
G01*
X145009640Y278551100D02*
G75*
G02X145509640Y278051100I0J-500000D01*
G01*
X131509640Y278051100D02*
G75*
G02X132009640Y278551100I500000J0D01*
G01*
G04 #@! TO.C,SW45*
X155009640Y259051100D02*
X155009640Y246051100D01*
X141509640Y259551100D02*
X154509640Y259551100D01*
X141009640Y246051100D02*
X141009640Y259051100D01*
X154509640Y245551100D02*
X141509640Y245551100D01*
X155009640Y246051100D02*
G75*
G02X154509640Y245551100I-500000J0D01*
G01*
X141509640Y245551100D02*
G75*
G02X141009640Y246051100I0J500000D01*
G01*
X154509640Y259551100D02*
G75*
G02X155009640Y259051100I0J-500000D01*
G01*
X141009640Y259051100D02*
G75*
G02X141509640Y259551100I500000J0D01*
G01*
G04 #@! TO.C,SW46*
X159759640Y240051100D02*
X159759640Y227051100D01*
X146259640Y240551100D02*
X159259640Y240551100D01*
X145759640Y227051100D02*
X145759640Y240051100D01*
X159259640Y226551100D02*
X146259640Y226551100D01*
X159759640Y227051100D02*
G75*
G02X159259640Y226551100I-500000J0D01*
G01*
X146259640Y226551100D02*
G75*
G02X145759640Y227051100I0J500000D01*
G01*
X159259640Y240551100D02*
G75*
G02X159759640Y240051100I0J-500000D01*
G01*
X145759640Y240051100D02*
G75*
G02X146259640Y240551100I500000J0D01*
G01*
G04 #@! TO.C,SW47*
X150259640Y221051100D02*
X150259640Y208051100D01*
X136759640Y221551100D02*
X149759640Y221551100D01*
X136259640Y208051100D02*
X136259640Y221051100D01*
X149759640Y207551100D02*
X136759640Y207551100D01*
X150259640Y208051100D02*
G75*
G02X149759640Y207551100I-500000J0D01*
G01*
X136759640Y207551100D02*
G75*
G02X136259640Y208051100I0J500000D01*
G01*
X149759640Y221551100D02*
G75*
G02X150259640Y221051100I0J-500000D01*
G01*
X136259640Y221051100D02*
G75*
G02X136759640Y221551100I500000J0D01*
G01*
G04 #@! TO.C,SW48*
X140759640Y202051100D02*
X140759640Y189051100D01*
X127259640Y202551100D02*
X140259640Y202551100D01*
X126759640Y189051100D02*
X126759640Y202051100D01*
X140259640Y188551100D02*
X127259640Y188551100D01*
X140759640Y189051100D02*
G75*
G02X140259640Y188551100I-500000J0D01*
G01*
X127259640Y188551100D02*
G75*
G02X126759640Y189051100I0J500000D01*
G01*
X140259640Y202551100D02*
G75*
G02X140759640Y202051100I0J-500000D01*
G01*
X126759640Y202051100D02*
G75*
G02X127259640Y202551100I500000J0D01*
G01*
G04 #@! TO.C,SW49*
X140759640Y183051100D02*
X140759640Y170051100D01*
X127259640Y183551100D02*
X140259640Y183551100D01*
X126759640Y170051100D02*
X126759640Y183051100D01*
X140259640Y169551100D02*
X127259640Y169551100D01*
X140759640Y170051100D02*
G75*
G02X140259640Y169551100I-500000J0D01*
G01*
X127259640Y169551100D02*
G75*
G02X126759640Y170051100I0J500000D01*
G01*
X140259640Y183551100D02*
G75*
G02X140759640Y183051100I0J-500000D01*
G01*
X126759640Y183051100D02*
G75*
G02X127259640Y183551100I500000J0D01*
G01*
G04 #@! TO.C,SW50*
X178759640Y297051100D02*
X178759640Y284051100D01*
X165259640Y297551100D02*
X178259640Y297551100D01*
X164759640Y284051100D02*
X164759640Y297051100D01*
X178259640Y283551100D02*
X165259640Y283551100D01*
X178759640Y284051100D02*
G75*
G02X178259640Y283551100I-500000J0D01*
G01*
X165259640Y283551100D02*
G75*
G02X164759640Y284051100I0J500000D01*
G01*
X178259640Y297551100D02*
G75*
G02X178759640Y297051100I0J-500000D01*
G01*
X164759640Y297051100D02*
G75*
G02X165259640Y297551100I500000J0D01*
G01*
G04 #@! TO.C,SW51*
X164509640Y278051100D02*
X164509640Y265051100D01*
X151009640Y278551100D02*
X164009640Y278551100D01*
X150509640Y265051100D02*
X150509640Y278051100D01*
X164009640Y264551100D02*
X151009640Y264551100D01*
X164509640Y265051100D02*
G75*
G02X164009640Y264551100I-500000J0D01*
G01*
X151009640Y264551100D02*
G75*
G02X150509640Y265051100I0J500000D01*
G01*
X164009640Y278551100D02*
G75*
G02X164509640Y278051100I0J-500000D01*
G01*
X150509640Y278051100D02*
G75*
G02X151009640Y278551100I500000J0D01*
G01*
G04 #@! TO.C,SW52*
X174009640Y259051100D02*
X174009640Y246051100D01*
X160509640Y259551100D02*
X173509640Y259551100D01*
X160009640Y246051100D02*
X160009640Y259051100D01*
X173509640Y245551100D02*
X160509640Y245551100D01*
X174009640Y246051100D02*
G75*
G02X173509640Y245551100I-500000J0D01*
G01*
X160509640Y245551100D02*
G75*
G02X160009640Y246051100I0J500000D01*
G01*
X173509640Y259551100D02*
G75*
G02X174009640Y259051100I0J-500000D01*
G01*
X160009640Y259051100D02*
G75*
G02X160509640Y259551100I500000J0D01*
G01*
G04 #@! TO.C,SW53*
X178759640Y240051100D02*
X178759640Y227051100D01*
X165259640Y240551100D02*
X178259640Y240551100D01*
X164759640Y227051100D02*
X164759640Y240051100D01*
X178259640Y226551100D02*
X165259640Y226551100D01*
X178759640Y227051100D02*
G75*
G02X178259640Y226551100I-500000J0D01*
G01*
X165259640Y226551100D02*
G75*
G02X164759640Y227051100I0J500000D01*
G01*
X178259640Y240551100D02*
G75*
G02X178759640Y240051100I0J-500000D01*
G01*
X164759640Y240051100D02*
G75*
G02X165259640Y240551100I500000J0D01*
G01*
G04 #@! TO.C,SW54*
X169259640Y221051100D02*
X169259640Y208051100D01*
X155759640Y221551100D02*
X168759640Y221551100D01*
X155259640Y208051100D02*
X155259640Y221051100D01*
X168759640Y207551100D02*
X155759640Y207551100D01*
X169259640Y208051100D02*
G75*
G02X168759640Y207551100I-500000J0D01*
G01*
X155759640Y207551100D02*
G75*
G02X155259640Y208051100I0J500000D01*
G01*
X168759640Y221551100D02*
G75*
G02X169259640Y221051100I0J-500000D01*
G01*
X155259640Y221051100D02*
G75*
G02X155759640Y221551100I500000J0D01*
G01*
G04 #@! TO.C,SW56*
X159759640Y183051100D02*
X159759640Y170051100D01*
X146259640Y183551100D02*
X159259640Y183551100D01*
X145759640Y170051100D02*
X145759640Y183051100D01*
X159259640Y169551100D02*
X146259640Y169551100D01*
X159759640Y170051100D02*
G75*
G02X159259640Y169551100I-500000J0D01*
G01*
X146259640Y169551100D02*
G75*
G02X145759640Y170051100I0J500000D01*
G01*
X159259640Y183551100D02*
G75*
G02X159759640Y183051100I0J-500000D01*
G01*
X145759640Y183051100D02*
G75*
G02X146259640Y183551100I500000J0D01*
G01*
G04 #@! TO.C,SW57*
X197759640Y297051100D02*
X197759640Y284051100D01*
X184259640Y297551100D02*
X197259640Y297551100D01*
X183759640Y284051100D02*
X183759640Y297051100D01*
X197259640Y283551100D02*
X184259640Y283551100D01*
X197759640Y284051100D02*
G75*
G02X197259640Y283551100I-500000J0D01*
G01*
X184259640Y283551100D02*
G75*
G02X183759640Y284051100I0J500000D01*
G01*
X197259640Y297551100D02*
G75*
G02X197759640Y297051100I0J-500000D01*
G01*
X183759640Y297051100D02*
G75*
G02X184259640Y297551100I500000J0D01*
G01*
G04 #@! TO.C,SW58*
X183509640Y278051100D02*
X183509640Y265051100D01*
X170009640Y278551100D02*
X183009640Y278551100D01*
X169509640Y265051100D02*
X169509640Y278051100D01*
X183009640Y264551100D02*
X170009640Y264551100D01*
X183509640Y265051100D02*
G75*
G02X183009640Y264551100I-500000J0D01*
G01*
X170009640Y264551100D02*
G75*
G02X169509640Y265051100I0J500000D01*
G01*
X183009640Y278551100D02*
G75*
G02X183509640Y278051100I0J-500000D01*
G01*
X169509640Y278051100D02*
G75*
G02X170009640Y278551100I500000J0D01*
G01*
G04 #@! TO.C,SW59*
X193009640Y259051100D02*
X193009640Y246051100D01*
X179509640Y259551100D02*
X192509640Y259551100D01*
X179009640Y246051100D02*
X179009640Y259051100D01*
X192509640Y245551100D02*
X179509640Y245551100D01*
X193009640Y246051100D02*
G75*
G02X192509640Y245551100I-500000J0D01*
G01*
X179509640Y245551100D02*
G75*
G02X179009640Y246051100I0J500000D01*
G01*
X192509640Y259551100D02*
G75*
G02X193009640Y259051100I0J-500000D01*
G01*
X179009640Y259051100D02*
G75*
G02X179509640Y259551100I500000J0D01*
G01*
G04 #@! TO.C,SW60*
X197759640Y240051100D02*
X197759640Y227051100D01*
X184259640Y240551100D02*
X197259640Y240551100D01*
X183759640Y227051100D02*
X183759640Y240051100D01*
X197259640Y226551100D02*
X184259640Y226551100D01*
X197759640Y227051100D02*
G75*
G02X197259640Y226551100I-500000J0D01*
G01*
X184259640Y226551100D02*
G75*
G02X183759640Y227051100I0J500000D01*
G01*
X197259640Y240551100D02*
G75*
G02X197759640Y240051100I0J-500000D01*
G01*
X183759640Y240051100D02*
G75*
G02X184259640Y240551100I500000J0D01*
G01*
G04 #@! TO.C,SW61*
X188259640Y221051100D02*
X188259640Y208051100D01*
X174759640Y221551100D02*
X187759640Y221551100D01*
X174259640Y208051100D02*
X174259640Y221051100D01*
X187759640Y207551100D02*
X174759640Y207551100D01*
X188259640Y208051100D02*
G75*
G02X187759640Y207551100I-500000J0D01*
G01*
X174759640Y207551100D02*
G75*
G02X174259640Y208051100I0J500000D01*
G01*
X187759640Y221551100D02*
G75*
G02X188259640Y221051100I0J-500000D01*
G01*
X174259640Y221051100D02*
G75*
G02X174759640Y221551100I500000J0D01*
G01*
G04 #@! TO.C,SW62*
X202509640Y202051100D02*
X202509640Y189051100D01*
X189009640Y202551100D02*
X202009640Y202551100D01*
X188509640Y189051100D02*
X188509640Y202051100D01*
X202009640Y188551100D02*
X189009640Y188551100D01*
X202509640Y189051100D02*
G75*
G02X202009640Y188551100I-500000J0D01*
G01*
X189009640Y188551100D02*
G75*
G02X188509640Y189051100I0J500000D01*
G01*
X202009640Y202551100D02*
G75*
G02X202509640Y202051100I0J-500000D01*
G01*
X188509640Y202051100D02*
G75*
G02X189009640Y202551100I500000J0D01*
G01*
G04 #@! TO.C,SW63*
X178759640Y183051100D02*
X178759640Y170051100D01*
X165259640Y183551100D02*
X178259640Y183551100D01*
X164759640Y170051100D02*
X164759640Y183051100D01*
X178259640Y169551100D02*
X165259640Y169551100D01*
X178759640Y170051100D02*
G75*
G02X178259640Y169551100I-500000J0D01*
G01*
X165259640Y169551100D02*
G75*
G02X164759640Y170051100I0J500000D01*
G01*
X178259640Y183551100D02*
G75*
G02X178759640Y183051100I0J-500000D01*
G01*
X164759640Y183051100D02*
G75*
G02X165259640Y183551100I500000J0D01*
G01*
G04 #@! TO.C,SW64*
X216759640Y297051100D02*
X216759640Y284051100D01*
X203259640Y297551100D02*
X216259640Y297551100D01*
X202759640Y284051100D02*
X202759640Y297051100D01*
X216259640Y283551100D02*
X203259640Y283551100D01*
X216759640Y284051100D02*
G75*
G02X216259640Y283551100I-500000J0D01*
G01*
X203259640Y283551100D02*
G75*
G02X202759640Y284051100I0J500000D01*
G01*
X216259640Y297551100D02*
G75*
G02X216759640Y297051100I0J-500000D01*
G01*
X202759640Y297051100D02*
G75*
G02X203259640Y297551100I500000J0D01*
G01*
G04 #@! TO.C,SW65*
X202509640Y278051100D02*
X202509640Y265051100D01*
X189009640Y278551100D02*
X202009640Y278551100D01*
X188509640Y265051100D02*
X188509640Y278051100D01*
X202009640Y264551100D02*
X189009640Y264551100D01*
X202509640Y265051100D02*
G75*
G02X202009640Y264551100I-500000J0D01*
G01*
X189009640Y264551100D02*
G75*
G02X188509640Y265051100I0J500000D01*
G01*
X202009640Y278551100D02*
G75*
G02X202509640Y278051100I0J-500000D01*
G01*
X188509640Y278051100D02*
G75*
G02X189009640Y278551100I500000J0D01*
G01*
G04 #@! TO.C,SW66*
X212009640Y259051100D02*
X212009640Y246051100D01*
X198509640Y259551100D02*
X211509640Y259551100D01*
X198009640Y246051100D02*
X198009640Y259051100D01*
X211509640Y245551100D02*
X198509640Y245551100D01*
X212009640Y246051100D02*
G75*
G02X211509640Y245551100I-500000J0D01*
G01*
X198509640Y245551100D02*
G75*
G02X198009640Y246051100I0J500000D01*
G01*
X211509640Y259551100D02*
G75*
G02X212009640Y259051100I0J-500000D01*
G01*
X198009640Y259051100D02*
G75*
G02X198509640Y259551100I500000J0D01*
G01*
G04 #@! TO.C,SW67*
X216759640Y240051100D02*
X216759640Y227051100D01*
X203259640Y240551100D02*
X216259640Y240551100D01*
X202759640Y227051100D02*
X202759640Y240051100D01*
X216259640Y226551100D02*
X203259640Y226551100D01*
X216759640Y227051100D02*
G75*
G02X216259640Y226551100I-500000J0D01*
G01*
X203259640Y226551100D02*
G75*
G02X202759640Y227051100I0J500000D01*
G01*
X216259640Y240551100D02*
G75*
G02X216759640Y240051100I0J-500000D01*
G01*
X202759640Y240051100D02*
G75*
G02X203259640Y240551100I500000J0D01*
G01*
G04 #@! TO.C,SW68*
X207259640Y221051100D02*
X207259640Y208051100D01*
X193759640Y221551100D02*
X206759640Y221551100D01*
X193259640Y208051100D02*
X193259640Y221051100D01*
X206759640Y207551100D02*
X193759640Y207551100D01*
X207259640Y208051100D02*
G75*
G02X206759640Y207551100I-500000J0D01*
G01*
X193759640Y207551100D02*
G75*
G02X193259640Y208051100I0J500000D01*
G01*
X206759640Y221551100D02*
G75*
G02X207259640Y221051100I0J-500000D01*
G01*
X193259640Y221051100D02*
G75*
G02X193759640Y221551100I500000J0D01*
G01*
G04 #@! TO.C,SW69*
X221509640Y202051100D02*
X221509640Y189051100D01*
X208009640Y202551100D02*
X221009640Y202551100D01*
X207509640Y189051100D02*
X207509640Y202051100D01*
X221009640Y188551100D02*
X208009640Y188551100D01*
X221509640Y189051100D02*
G75*
G02X221009640Y188551100I-500000J0D01*
G01*
X208009640Y188551100D02*
G75*
G02X207509640Y189051100I0J500000D01*
G01*
X221009640Y202551100D02*
G75*
G02X221509640Y202051100I0J-500000D01*
G01*
X207509640Y202051100D02*
G75*
G02X208009640Y202551100I500000J0D01*
G01*
G04 #@! TO.C,SW71*
X235759640Y297051100D02*
X235759640Y284051100D01*
X222259640Y297551100D02*
X235259640Y297551100D01*
X221759640Y284051100D02*
X221759640Y297051100D01*
X235259640Y283551100D02*
X222259640Y283551100D01*
X235759640Y284051100D02*
G75*
G02X235259640Y283551100I-500000J0D01*
G01*
X222259640Y283551100D02*
G75*
G02X221759640Y284051100I0J500000D01*
G01*
X235259640Y297551100D02*
G75*
G02X235759640Y297051100I0J-500000D01*
G01*
X221759640Y297051100D02*
G75*
G02X222259640Y297551100I500000J0D01*
G01*
G04 #@! TO.C,SW72*
X221509640Y278051100D02*
X221509640Y265051100D01*
X208009640Y278551100D02*
X221009640Y278551100D01*
X207509640Y265051100D02*
X207509640Y278051100D01*
X221009640Y264551100D02*
X208009640Y264551100D01*
X221509640Y265051100D02*
G75*
G02X221009640Y264551100I-500000J0D01*
G01*
X208009640Y264551100D02*
G75*
G02X207509640Y265051100I0J500000D01*
G01*
X221009640Y278551100D02*
G75*
G02X221509640Y278051100I0J-500000D01*
G01*
X207509640Y278051100D02*
G75*
G02X208009640Y278551100I500000J0D01*
G01*
G04 #@! TO.C,SW73*
X231009640Y259051100D02*
X231009640Y246051100D01*
X217509640Y259551100D02*
X230509640Y259551100D01*
X217009640Y246051100D02*
X217009640Y259051100D01*
X230509640Y245551100D02*
X217509640Y245551100D01*
X231009640Y246051100D02*
G75*
G02X230509640Y245551100I-500000J0D01*
G01*
X217509640Y245551100D02*
G75*
G02X217009640Y246051100I0J500000D01*
G01*
X230509640Y259551100D02*
G75*
G02X231009640Y259051100I0J-500000D01*
G01*
X217009640Y259051100D02*
G75*
G02X217509640Y259551100I500000J0D01*
G01*
G04 #@! TO.C,SW74*
X235759640Y240051100D02*
X235759640Y227051100D01*
X222259640Y240551100D02*
X235259640Y240551100D01*
X221759640Y227051100D02*
X221759640Y240051100D01*
X235259640Y226551100D02*
X222259640Y226551100D01*
X235759640Y227051100D02*
G75*
G02X235259640Y226551100I-500000J0D01*
G01*
X222259640Y226551100D02*
G75*
G02X221759640Y227051100I0J500000D01*
G01*
X235259640Y240551100D02*
G75*
G02X235759640Y240051100I0J-500000D01*
G01*
X221759640Y240051100D02*
G75*
G02X222259640Y240551100I500000J0D01*
G01*
G04 #@! TO.C,SW75*
X226259640Y221051100D02*
X226259640Y208051100D01*
X212759640Y221551100D02*
X225759640Y221551100D01*
X212259640Y208051100D02*
X212259640Y221051100D01*
X225759640Y207551100D02*
X212759640Y207551100D01*
X226259640Y208051100D02*
G75*
G02X225759640Y207551100I-500000J0D01*
G01*
X212759640Y207551100D02*
G75*
G02X212259640Y208051100I0J500000D01*
G01*
X225759640Y221551100D02*
G75*
G02X226259640Y221051100I0J-500000D01*
G01*
X212259640Y221051100D02*
G75*
G02X212759640Y221551100I500000J0D01*
G01*
G04 #@! TO.C,SW76*
X240509640Y202051100D02*
X240509640Y189051100D01*
X227009640Y202551100D02*
X240009640Y202551100D01*
X226509640Y189051100D02*
X226509640Y202051100D01*
X240009640Y188551100D02*
X227009640Y188551100D01*
X240509640Y189051100D02*
G75*
G02X240009640Y188551100I-500000J0D01*
G01*
X227009640Y188551100D02*
G75*
G02X226509640Y189051100I0J500000D01*
G01*
X240009640Y202551100D02*
G75*
G02X240509640Y202051100I0J-500000D01*
G01*
X226509640Y202051100D02*
G75*
G02X227009640Y202551100I500000J0D01*
G01*
G04 #@! TO.C,SW78*
X254759640Y297051100D02*
X254759640Y284051100D01*
X241259640Y297551100D02*
X254259640Y297551100D01*
X240759640Y284051100D02*
X240759640Y297051100D01*
X254259640Y283551100D02*
X241259640Y283551100D01*
X254759640Y284051100D02*
G75*
G02X254259640Y283551100I-500000J0D01*
G01*
X241259640Y283551100D02*
G75*
G02X240759640Y284051100I0J500000D01*
G01*
X254259640Y297551100D02*
G75*
G02X254759640Y297051100I0J-500000D01*
G01*
X240759640Y297051100D02*
G75*
G02X241259640Y297551100I500000J0D01*
G01*
G04 #@! TO.C,SW79*
X240509640Y278051100D02*
X240509640Y265051100D01*
X227009640Y278551100D02*
X240009640Y278551100D01*
X226509640Y265051100D02*
X226509640Y278051100D01*
X240009640Y264551100D02*
X227009640Y264551100D01*
X240509640Y265051100D02*
G75*
G02X240009640Y264551100I-500000J0D01*
G01*
X227009640Y264551100D02*
G75*
G02X226509640Y265051100I0J500000D01*
G01*
X240009640Y278551100D02*
G75*
G02X240509640Y278051100I0J-500000D01*
G01*
X226509640Y278051100D02*
G75*
G02X227009640Y278551100I500000J0D01*
G01*
G04 #@! TO.C,SW80*
X250009640Y259051100D02*
X250009640Y246051100D01*
X236509640Y259551100D02*
X249509640Y259551100D01*
X236009640Y246051100D02*
X236009640Y259051100D01*
X249509640Y245551100D02*
X236509640Y245551100D01*
X250009640Y246051100D02*
G75*
G02X249509640Y245551100I-500000J0D01*
G01*
X236509640Y245551100D02*
G75*
G02X236009640Y246051100I0J500000D01*
G01*
X249509640Y259551100D02*
G75*
G02X250009640Y259051100I0J-500000D01*
G01*
X236009640Y259051100D02*
G75*
G02X236509640Y259551100I500000J0D01*
G01*
G04 #@! TO.C,SW81*
X254759640Y240051100D02*
X254759640Y227051100D01*
X241259640Y240551100D02*
X254259640Y240551100D01*
X240759640Y227051100D02*
X240759640Y240051100D01*
X254259640Y226551100D02*
X241259640Y226551100D01*
X254759640Y227051100D02*
G75*
G02X254259640Y226551100I-500000J0D01*
G01*
X241259640Y226551100D02*
G75*
G02X240759640Y227051100I0J500000D01*
G01*
X254259640Y240551100D02*
G75*
G02X254759640Y240051100I0J-500000D01*
G01*
X240759640Y240051100D02*
G75*
G02X241259640Y240551100I500000J0D01*
G01*
G04 #@! TO.C,SW85*
X273759640Y297051100D02*
X273759640Y284051100D01*
X260259640Y297551100D02*
X273259640Y297551100D01*
X259759640Y284051100D02*
X259759640Y297051100D01*
X273259640Y283551100D02*
X260259640Y283551100D01*
X273759640Y284051100D02*
G75*
G02X273259640Y283551100I-500000J0D01*
G01*
X260259640Y283551100D02*
G75*
G02X259759640Y284051100I0J500000D01*
G01*
X273259640Y297551100D02*
G75*
G02X273759640Y297051100I0J-500000D01*
G01*
X259759640Y297051100D02*
G75*
G02X260259640Y297551100I500000J0D01*
G01*
G04 #@! TO.C,SW86*
X259509640Y278051100D02*
X259509640Y265051100D01*
X246009640Y278551100D02*
X259009640Y278551100D01*
X245509640Y265051100D02*
X245509640Y278051100D01*
X259009640Y264551100D02*
X246009640Y264551100D01*
X259509640Y265051100D02*
G75*
G02X259009640Y264551100I-500000J0D01*
G01*
X246009640Y264551100D02*
G75*
G02X245509640Y265051100I0J500000D01*
G01*
X259009640Y278551100D02*
G75*
G02X259509640Y278051100I0J-500000D01*
G01*
X245509640Y278051100D02*
G75*
G02X246009640Y278551100I500000J0D01*
G01*
G04 #@! TO.C,SW87*
X269009640Y259051100D02*
X269009640Y246051100D01*
X255509640Y259551100D02*
X268509640Y259551100D01*
X255009640Y246051100D02*
X255009640Y259051100D01*
X268509640Y245551100D02*
X255509640Y245551100D01*
X269009640Y246051100D02*
G75*
G02X268509640Y245551100I-500000J0D01*
G01*
X255509640Y245551100D02*
G75*
G02X255009640Y246051100I0J500000D01*
G01*
X268509640Y259551100D02*
G75*
G02X269009640Y259051100I0J-500000D01*
G01*
X255009640Y259051100D02*
G75*
G02X255509640Y259551100I500000J0D01*
G01*
G04 #@! TO.C,SW89*
X264259640Y221051100D02*
X264259640Y208051100D01*
X250759640Y221551100D02*
X263759640Y221551100D01*
X250259640Y208051100D02*
X250259640Y221051100D01*
X263759640Y207551100D02*
X250759640Y207551100D01*
X264259640Y208051100D02*
G75*
G02X263759640Y207551100I-500000J0D01*
G01*
X250759640Y207551100D02*
G75*
G02X250259640Y208051100I0J500000D01*
G01*
X263759640Y221551100D02*
G75*
G02X264259640Y221051100I0J-500000D01*
G01*
X250259640Y221051100D02*
G75*
G02X250759640Y221551100I500000J0D01*
G01*
G04 #@! TO.C,SW92*
X297509640Y297051100D02*
X297509640Y284051100D01*
X284009640Y297551100D02*
X297009640Y297551100D01*
X283509640Y284051100D02*
X283509640Y297051100D01*
X297009640Y283551100D02*
X284009640Y283551100D01*
X297509640Y284051100D02*
G75*
G02X297009640Y283551100I-500000J0D01*
G01*
X284009640Y283551100D02*
G75*
G02X283509640Y284051100I0J500000D01*
G01*
X297009640Y297551100D02*
G75*
G02X297509640Y297051100I0J-500000D01*
G01*
X283509640Y297051100D02*
G75*
G02X284009640Y297551100I500000J0D01*
G01*
G04 #@! TO.C,SW96*
X283259640Y221051100D02*
X283259640Y208051100D01*
X269759640Y221551100D02*
X282759640Y221551100D01*
X269259640Y208051100D02*
X269259640Y221051100D01*
X282759640Y207551100D02*
X269759640Y207551100D01*
X283259640Y208051100D02*
G75*
G02X282759640Y207551100I-500000J0D01*
G01*
X269759640Y207551100D02*
G75*
G02X269259640Y208051100I0J500000D01*
G01*
X282759640Y221551100D02*
G75*
G02X283259640Y221051100I0J-500000D01*
G01*
X269259640Y221051100D02*
G75*
G02X269759640Y221551100I500000J0D01*
G01*
G04 #@! TO.C,SW55*
X171634640Y202051100D02*
X171634640Y189051100D01*
X158134640Y202551100D02*
X171134640Y202551100D01*
X157634640Y189051100D02*
X157634640Y202051100D01*
X171134640Y188551100D02*
X158134640Y188551100D01*
X171634640Y189051100D02*
G75*
G02X171134640Y188551100I-500000J0D01*
G01*
X158134640Y188551100D02*
G75*
G02X157634640Y189051100I0J500000D01*
G01*
X171134640Y202551100D02*
G75*
G02X171634640Y202051100I0J-500000D01*
G01*
X157634640Y202051100D02*
G75*
G02X158134640Y202551100I500000J0D01*
G01*
G04 #@! TO.C,SW88*
X285634640Y240051100D02*
X285634640Y227051100D01*
X272134640Y240551100D02*
X285134640Y240551100D01*
X271634640Y227051100D02*
X271634640Y240051100D01*
X285134640Y226551100D02*
X272134640Y226551100D01*
X285634640Y227051100D02*
G75*
G02X285134640Y226551100I-500000J0D01*
G01*
X272134640Y226551100D02*
G75*
G02X271634640Y227051100I0J500000D01*
G01*
X285134640Y240551100D02*
G75*
G02X285634640Y240051100I0J-500000D01*
G01*
X271634640Y240051100D02*
G75*
G02X272134640Y240551100I500000J0D01*
G01*
G04 #@! TO.C,SW94*
X292759640Y259051100D02*
X292759640Y246051100D01*
X279259640Y259551100D02*
X292259640Y259551100D01*
X278759640Y246051100D02*
X278759640Y259051100D01*
X292259640Y245551100D02*
X279259640Y245551100D01*
X292759640Y246051100D02*
G75*
G02X292259640Y245551100I-500000J0D01*
G01*
X279259640Y245551100D02*
G75*
G02X278759640Y246051100I0J500000D01*
G01*
X292259640Y259551100D02*
G75*
G02X292759640Y259051100I0J-500000D01*
G01*
X278759640Y259051100D02*
G75*
G02X279259640Y259551100I500000J0D01*
G01*
G04 #@! TO.C,SW3*
X36259640Y259051100D02*
X36259640Y246051100D01*
X22759640Y259551100D02*
X35759640Y259551100D01*
X22259640Y246051100D02*
X22259640Y259051100D01*
X35759640Y245551100D02*
X22759640Y245551100D01*
X36259640Y246051100D02*
G75*
G02X35759640Y245551100I-500000J0D01*
G01*
X22759640Y245551100D02*
G75*
G02X22259640Y246051100I0J500000D01*
G01*
X35759640Y259551100D02*
G75*
G02X36259640Y259051100I0J-500000D01*
G01*
X22259640Y259051100D02*
G75*
G02X22759640Y259551100I500000J0D01*
G01*
G04 #@! TO.C,SW93*
X288009640Y278051100D02*
X288009640Y265051100D01*
X274509640Y278551100D02*
X287509640Y278551100D01*
X274009640Y265051100D02*
X274009640Y278051100D01*
X287509640Y264551100D02*
X274509640Y264551100D01*
X288009640Y265051100D02*
G75*
G02X287509640Y264551100I-500000J0D01*
G01*
X274509640Y264551100D02*
G75*
G02X274009640Y265051100I0J500000D01*
G01*
X287509640Y278551100D02*
G75*
G02X288009640Y278051100I0J-500000D01*
G01*
X274009640Y278051100D02*
G75*
G02X274509640Y278551100I500000J0D01*
G01*
G04 #@! TO.C,SW34*
X100384640Y202051100D02*
X100384640Y189051100D01*
X86884640Y202551100D02*
X99884640Y202551100D01*
X86384640Y189051100D02*
X86384640Y202051100D01*
X99884640Y188551100D02*
X86884640Y188551100D01*
X100384640Y189051100D02*
G75*
G02X99884640Y188551100I-500000J0D01*
G01*
X86884640Y188551100D02*
G75*
G02X86384640Y189051100I0J500000D01*
G01*
X99884640Y202551100D02*
G75*
G02X100384640Y202051100I0J-500000D01*
G01*
X86384640Y202051100D02*
G75*
G02X86884640Y202551100I500000J0D01*
G01*
G04 #@! TO.C,SW4*
X38634640Y240051100D02*
X38634640Y227051100D01*
X25134640Y240551100D02*
X38134640Y240551100D01*
X24634640Y227051100D02*
X24634640Y240051100D01*
X38134640Y226551100D02*
X25134640Y226551100D01*
X38634640Y227051100D02*
G75*
G02X38134640Y226551100I-500000J0D01*
G01*
X25134640Y226551100D02*
G75*
G02X24634640Y227051100I0J500000D01*
G01*
X38134640Y240551100D02*
G75*
G02X38634640Y240051100I0J-500000D01*
G01*
X24634640Y240051100D02*
G75*
G02X25134640Y240551100I500000J0D01*
G01*
G04 #@! TD*
M02*
