G04 #@! TF.GenerationSoftware,KiCad,Pcbnew,(5.0.0-3-g5ebb6b6)*
G04 #@! TF.CreationDate,2018-10-11T23:35:50+09:00*
G04 #@! TF.ProjectId,asceension,61736365656E73696F6E2E6B69636164,1*
G04 #@! TF.SameCoordinates,PXfde07cc8PYa7cf40c*
G04 #@! TF.FileFunction,Soldermask,Bot*
G04 #@! TF.FilePolarity,Negative*
%FSLAX46Y46*%
G04 Gerber Fmt 4.6, Leading zero omitted, Abs format (unit mm)*
G04 Created by KiCad (PCBNEW (5.0.0-3-g5ebb6b6)) date Thursday, October 11, 2018 at 11:35:50 PM*
%MOMM*%
%LPD*%
G01*
G04 APERTURE LIST*
%ADD10O,3.400000X1.900000*%
%ADD11O,1.900000X3.400000*%
%ADD12C,8.400000*%
%ADD13C,3.600000*%
%ADD14R,2.000000X2.000000*%
%ADD15O,2.000000X2.000000*%
%ADD16C,2.686000*%
%ADD17C,2.000000*%
%ADD18C,1.800000*%
%ADD19R,2.100000X2.100000*%
%ADD20O,2.100000X2.100000*%
%ADD21R,2.400000X2.400000*%
%ADD22O,2.400000X2.400000*%
G04 APERTURE END LIST*
D10*
G04 #@! TO.C,JPAD2*
X180400000Y24840000D03*
X180400000Y22300000D03*
X180400000Y19760000D03*
D11*
X174240000Y13600000D03*
X171700000Y13600000D03*
X169160000Y13600000D03*
G04 #@! TD*
D12*
G04 #@! TO.C,MH*
X13500000Y36000000D03*
G04 #@! TD*
D13*
G04 #@! TO.C,MH*
X303500000Y294000000D03*
G04 #@! TD*
G04 #@! TO.C,MH*
X152000000Y195000000D03*
G04 #@! TD*
G04 #@! TO.C,MH*
X152000000Y289000000D03*
G04 #@! TD*
G04 #@! TO.C,MH*
X13500000Y174000000D03*
G04 #@! TD*
G04 #@! TO.C,MH*
X13500000Y294000000D03*
G04 #@! TD*
G04 #@! TO.C,MH*
X303500000Y174000000D03*
G04 #@! TD*
D12*
G04 #@! TO.C,MH*
X152000000Y57000000D03*
G04 #@! TD*
G04 #@! TO.C,MH*
X152000000Y151000000D03*
G04 #@! TD*
G04 #@! TO.C,MH*
X303500000Y156000000D03*
G04 #@! TD*
G04 #@! TO.C,MH*
X13500000Y156000000D03*
G04 #@! TD*
D13*
G04 #@! TO.C,H13*
X143000000Y22000000D03*
G04 #@! TD*
G04 #@! TO.C,H14*
X186000000Y14000000D03*
G04 #@! TD*
G04 #@! TO.C,H12*
X100500000Y14000000D03*
G04 #@! TD*
D14*
G04 #@! TO.C,U1*
X262999640Y53021100D03*
D15*
X296019640Y37781100D03*
X265539640Y53021100D03*
X293479640Y37781100D03*
X268079640Y53021100D03*
X290939640Y37781100D03*
X270619640Y53021100D03*
X288399640Y37781100D03*
X273159640Y53021100D03*
X285859640Y37781100D03*
X275699640Y53021100D03*
X283319640Y37781100D03*
X278239640Y53021100D03*
X280779640Y37781100D03*
X280779640Y53021100D03*
X278239640Y37781100D03*
X283319640Y53021100D03*
X275699640Y37781100D03*
X285859640Y53021100D03*
X273159640Y37781100D03*
X288399640Y53021100D03*
X270619640Y37781100D03*
X290939640Y53021100D03*
X268079640Y37781100D03*
X293479640Y53021100D03*
X265539640Y37781100D03*
X296019640Y53021100D03*
X262999640Y37781100D03*
X296019640Y50481100D03*
X296019640Y47941100D03*
X296019640Y45401100D03*
X296019640Y42861100D03*
X296019640Y40321100D03*
G04 #@! TD*
D16*
G04 #@! TO.C,SW55*
X167174640Y62631100D03*
X160824640Y60091100D03*
G04 #@! TD*
G04 #@! TO.C,SW34*
X95924640Y62631100D03*
X89574640Y60091100D03*
G04 #@! TD*
G04 #@! TO.C,SW93*
X283549640Y138631100D03*
X277199640Y136091100D03*
G04 #@! TD*
G04 #@! TO.C,SW94*
X288299640Y119631100D03*
X281949640Y117091100D03*
G04 #@! TD*
G04 #@! TO.C,SW4*
X34174640Y100631100D03*
X27824640Y98091100D03*
G04 #@! TD*
G04 #@! TO.C,SW3*
X31799640Y119631100D03*
X25449640Y117091100D03*
G04 #@! TD*
D14*
G04 #@! TO.C,U2*
X56509640Y39901100D03*
D15*
X23489640Y47521100D03*
X53969640Y39901100D03*
X26029640Y47521100D03*
X51429640Y39901100D03*
X28569640Y47521100D03*
X48889640Y39901100D03*
X31109640Y47521100D03*
X46349640Y39901100D03*
X33649640Y47521100D03*
X43809640Y39901100D03*
X36189640Y47521100D03*
X41269640Y39901100D03*
X38729640Y47521100D03*
X38729640Y39901100D03*
X41269640Y47521100D03*
X36189640Y39901100D03*
X43809640Y47521100D03*
X33649640Y39901100D03*
X46349640Y47521100D03*
X31109640Y39901100D03*
X48889640Y47521100D03*
X28569640Y39901100D03*
X51429640Y47521100D03*
X26029640Y39901100D03*
X53969640Y47521100D03*
X23489640Y39901100D03*
X56509640Y47521100D03*
G04 #@! TD*
D17*
G04 #@! TO.C,R6*
X68750000Y45750000D03*
D15*
X68750000Y35590000D03*
G04 #@! TD*
D17*
G04 #@! TO.C,R5*
X65250000Y45750000D03*
D15*
X65250000Y35590000D03*
G04 #@! TD*
D17*
G04 #@! TO.C,R4*
X271500000Y68500000D03*
D15*
X271500000Y58340000D03*
G04 #@! TD*
D17*
G04 #@! TO.C,R3*
X264500000Y68500000D03*
D15*
X264500000Y58340000D03*
G04 #@! TD*
D17*
G04 #@! TO.C,R2*
X275000000Y68500000D03*
D15*
X275000000Y58340000D03*
G04 #@! TD*
D17*
G04 #@! TO.C,R1*
X268000000Y68500000D03*
D15*
X268000000Y58340000D03*
G04 #@! TD*
D10*
G04 #@! TO.C,JPAD1*
X123500000Y24840000D03*
X123500000Y22300000D03*
X123500000Y19760000D03*
D11*
X117340000Y13600000D03*
X114800000Y13600000D03*
X112260000Y13600000D03*
G04 #@! TD*
D14*
G04 #@! TO.C,DSW1*
X278050000Y60400000D03*
D15*
X285670000Y68020000D03*
X278050000Y62940000D03*
X285670000Y65480000D03*
X278050000Y65480000D03*
X285670000Y62940000D03*
X278050000Y68020000D03*
X285670000Y60400000D03*
G04 #@! TD*
D16*
G04 #@! TO.C,SW88*
X281174640Y100631100D03*
X274824640Y98091100D03*
G04 #@! TD*
G04 #@! TO.C,SW82*
X240799640Y81631100D03*
X234449640Y79091100D03*
G04 #@! TD*
G04 #@! TO.C,SW2*
X27049640Y138631100D03*
X20699640Y136091100D03*
G04 #@! TD*
G04 #@! TO.C,SW5*
X31799640Y81631100D03*
X25449640Y79091100D03*
G04 #@! TD*
G04 #@! TO.C,SW8*
X41299640Y157631100D03*
X34949640Y155091100D03*
G04 #@! TD*
G04 #@! TO.C,SW9*
X46049640Y138631100D03*
X39699640Y136091100D03*
G04 #@! TD*
G04 #@! TO.C,SW10*
X55549640Y119631100D03*
X49199640Y117091100D03*
G04 #@! TD*
G04 #@! TO.C,SW11*
X60299640Y100631100D03*
X53949640Y98091100D03*
G04 #@! TD*
G04 #@! TO.C,SW12*
X50799640Y81631100D03*
X44449640Y79091100D03*
G04 #@! TD*
G04 #@! TO.C,SW15*
X60299640Y157631100D03*
X53949640Y155091100D03*
G04 #@! TD*
G04 #@! TO.C,SW16*
X65049640Y138631100D03*
X58699640Y136091100D03*
G04 #@! TD*
G04 #@! TO.C,SW17*
X74549640Y119631100D03*
X68199640Y117091100D03*
G04 #@! TD*
G04 #@! TO.C,SW18*
X79299640Y100631100D03*
X72949640Y98091100D03*
G04 #@! TD*
G04 #@! TO.C,SW19*
X69799640Y81631100D03*
X63449640Y79091100D03*
G04 #@! TD*
G04 #@! TO.C,SW22*
X79299640Y157631100D03*
X72949640Y155091100D03*
G04 #@! TD*
G04 #@! TO.C,SW23*
X84049640Y138631100D03*
X77699640Y136091100D03*
G04 #@! TD*
G04 #@! TO.C,SW24*
X93549640Y119631100D03*
X87199640Y117091100D03*
G04 #@! TD*
G04 #@! TO.C,SW25*
X98299640Y100631100D03*
X91949640Y98091100D03*
G04 #@! TD*
G04 #@! TO.C,SW26*
X88799640Y81631100D03*
X82449640Y79091100D03*
G04 #@! TD*
G04 #@! TO.C,SW27*
X74549640Y62631100D03*
X68199640Y60091100D03*
G04 #@! TD*
G04 #@! TO.C,SW29*
X98299640Y157631100D03*
X91949640Y155091100D03*
G04 #@! TD*
G04 #@! TO.C,SW30*
X103049640Y138631100D03*
X96699640Y136091100D03*
G04 #@! TD*
G04 #@! TO.C,SW31*
X112549640Y119631100D03*
X106199640Y117091100D03*
G04 #@! TD*
G04 #@! TO.C,SW32*
X117299640Y100631100D03*
X110949640Y98091100D03*
G04 #@! TD*
G04 #@! TO.C,SW33*
X107799640Y81631100D03*
X101449640Y79091100D03*
G04 #@! TD*
G04 #@! TO.C,SW36*
X117299640Y157631100D03*
X110949640Y155091100D03*
G04 #@! TD*
G04 #@! TO.C,SW37*
X122049640Y138631100D03*
X115699640Y136091100D03*
G04 #@! TD*
G04 #@! TO.C,SW38*
X131549640Y119631100D03*
X125199640Y117091100D03*
G04 #@! TD*
G04 #@! TO.C,SW39*
X136299640Y100631100D03*
X129949640Y98091100D03*
G04 #@! TD*
G04 #@! TO.C,SW40*
X126799640Y81631100D03*
X120449640Y79091100D03*
G04 #@! TD*
G04 #@! TO.C,SW41*
X117299640Y62631100D03*
X110949640Y60091100D03*
G04 #@! TD*
G04 #@! TO.C,SW42*
X117299640Y43631100D03*
X110949640Y41091100D03*
G04 #@! TD*
G04 #@! TO.C,SW43*
X136299640Y157631100D03*
X129949640Y155091100D03*
G04 #@! TD*
G04 #@! TO.C,SW44*
X141049640Y138631100D03*
X134699640Y136091100D03*
G04 #@! TD*
G04 #@! TO.C,SW45*
X150549640Y119631100D03*
X144199640Y117091100D03*
G04 #@! TD*
G04 #@! TO.C,SW46*
X155299640Y100631100D03*
X148949640Y98091100D03*
G04 #@! TD*
G04 #@! TO.C,SW47*
X145799640Y81631100D03*
X139449640Y79091100D03*
G04 #@! TD*
G04 #@! TO.C,SW48*
X136299640Y62631100D03*
X129949640Y60091100D03*
G04 #@! TD*
G04 #@! TO.C,SW49*
X136299640Y43631100D03*
X129949640Y41091100D03*
G04 #@! TD*
G04 #@! TO.C,SW50*
X174299640Y157631100D03*
X167949640Y155091100D03*
G04 #@! TD*
G04 #@! TO.C,SW51*
X160049640Y138631100D03*
X153699640Y136091100D03*
G04 #@! TD*
G04 #@! TO.C,SW52*
X169549640Y119631100D03*
X163199640Y117091100D03*
G04 #@! TD*
G04 #@! TO.C,SW53*
X174299640Y100631100D03*
X167949640Y98091100D03*
G04 #@! TD*
G04 #@! TO.C,SW54*
X164799640Y81631100D03*
X158449640Y79091100D03*
G04 #@! TD*
G04 #@! TO.C,SW56*
X155299640Y43631100D03*
X148949640Y41091100D03*
G04 #@! TD*
G04 #@! TO.C,SW57*
X193299640Y157631100D03*
X186949640Y155091100D03*
G04 #@! TD*
G04 #@! TO.C,SW58*
X179049640Y138631100D03*
X172699640Y136091100D03*
G04 #@! TD*
G04 #@! TO.C,SW59*
X188549640Y119631100D03*
X182199640Y117091100D03*
G04 #@! TD*
G04 #@! TO.C,SW60*
X193299640Y100631100D03*
X186949640Y98091100D03*
G04 #@! TD*
G04 #@! TO.C,SW61*
X183799640Y81631100D03*
X177449640Y79091100D03*
G04 #@! TD*
G04 #@! TO.C,SW62*
X198049640Y62631100D03*
X191699640Y60091100D03*
G04 #@! TD*
G04 #@! TO.C,SW63*
X174299640Y43631100D03*
X167949640Y41091100D03*
G04 #@! TD*
G04 #@! TO.C,SW64*
X212299640Y157631100D03*
X205949640Y155091100D03*
G04 #@! TD*
G04 #@! TO.C,SW65*
X198049640Y138631100D03*
X191699640Y136091100D03*
G04 #@! TD*
G04 #@! TO.C,SW66*
X207549640Y119631100D03*
X201199640Y117091100D03*
G04 #@! TD*
G04 #@! TO.C,SW67*
X212299640Y100631100D03*
X205949640Y98091100D03*
G04 #@! TD*
G04 #@! TO.C,SW68*
X202799640Y81631100D03*
X196449640Y79091100D03*
G04 #@! TD*
G04 #@! TO.C,SW69*
X217049640Y62631100D03*
X210699640Y60091100D03*
G04 #@! TD*
G04 #@! TO.C,SW71*
X231299640Y157631100D03*
X224949640Y155091100D03*
G04 #@! TD*
G04 #@! TO.C,SW72*
X217049640Y138631100D03*
X210699640Y136091100D03*
G04 #@! TD*
G04 #@! TO.C,SW73*
X226549640Y119631100D03*
X220199640Y117091100D03*
G04 #@! TD*
G04 #@! TO.C,SW74*
X231299640Y100631100D03*
X224949640Y98091100D03*
G04 #@! TD*
G04 #@! TO.C,SW75*
X221799640Y81631100D03*
X215449640Y79091100D03*
G04 #@! TD*
G04 #@! TO.C,SW76*
X236049640Y62631100D03*
X229699640Y60091100D03*
G04 #@! TD*
G04 #@! TO.C,SW78*
X250299640Y157631100D03*
X243949640Y155091100D03*
G04 #@! TD*
G04 #@! TO.C,SW79*
X236049640Y138631100D03*
X229699640Y136091100D03*
G04 #@! TD*
G04 #@! TO.C,SW80*
X245549640Y119631100D03*
X239199640Y117091100D03*
G04 #@! TD*
G04 #@! TO.C,SW81*
X250299640Y100631100D03*
X243949640Y98091100D03*
G04 #@! TD*
G04 #@! TO.C,SW83*
X255049640Y62631100D03*
X248699640Y60091100D03*
G04 #@! TD*
G04 #@! TO.C,SW85*
X269299640Y157631100D03*
X262949640Y155091100D03*
G04 #@! TD*
G04 #@! TO.C,SW86*
X255049640Y138631100D03*
X248699640Y136091100D03*
G04 #@! TD*
G04 #@! TO.C,SW87*
X264549640Y119631100D03*
X258199640Y117091100D03*
G04 #@! TD*
G04 #@! TO.C,SW89*
X259799640Y81631100D03*
X253449640Y79091100D03*
G04 #@! TD*
G04 #@! TO.C,SW92*
X293049640Y157631100D03*
X286699640Y155091100D03*
G04 #@! TD*
G04 #@! TO.C,SW96*
X278799640Y81631100D03*
X272449640Y79091100D03*
G04 #@! TD*
D18*
G04 #@! TO.C,C1*
X31100000Y50500000D03*
X28600000Y50500000D03*
G04 #@! TD*
D19*
G04 #@! TO.C,J1*
X192500000Y27500000D03*
D20*
X195040000Y27500000D03*
X197580000Y27500000D03*
X200120000Y27500000D03*
X202660000Y27500000D03*
X205200000Y27500000D03*
G04 #@! TD*
D19*
G04 #@! TO.C,J2*
X192500000Y37000000D03*
D20*
X195040000Y37000000D03*
X197580000Y37000000D03*
X200120000Y37000000D03*
X202660000Y37000000D03*
X205200000Y37000000D03*
G04 #@! TD*
D19*
G04 #@! TO.C,J3*
X90500000Y27500000D03*
D20*
X93040000Y27500000D03*
G04 #@! TD*
D19*
G04 #@! TO.C,J4*
X90500000Y37000000D03*
D20*
X93040000Y37000000D03*
G04 #@! TD*
D21*
G04 #@! TO.C,D2*
X25759640Y124901100D03*
D22*
X20679640Y124901100D03*
G04 #@! TD*
D21*
G04 #@! TO.C,D3*
X30509640Y105901100D03*
D22*
X25429640Y105901100D03*
G04 #@! TD*
D21*
G04 #@! TO.C,D4*
X32759640Y86901100D03*
D22*
X27679640Y86901100D03*
G04 #@! TD*
D21*
G04 #@! TO.C,D5*
X30509640Y67901100D03*
D22*
X25429640Y67901100D03*
G04 #@! TD*
D21*
G04 #@! TO.C,D9*
X44759640Y125151100D03*
D22*
X39679640Y125151100D03*
G04 #@! TD*
D21*
G04 #@! TO.C,D10*
X54259640Y105901100D03*
D22*
X49179640Y105901100D03*
G04 #@! TD*
D21*
G04 #@! TO.C,D11*
X59009640Y86901100D03*
D22*
X53929640Y86901100D03*
G04 #@! TD*
D21*
G04 #@! TO.C,D12*
X49509640Y67901100D03*
D22*
X44429640Y67901100D03*
G04 #@! TD*
D21*
G04 #@! TO.C,D15*
X59009640Y143901100D03*
D22*
X53929640Y143901100D03*
G04 #@! TD*
D21*
G04 #@! TO.C,D16*
X63759640Y124901100D03*
D22*
X58679640Y124901100D03*
G04 #@! TD*
D21*
G04 #@! TO.C,D17*
X73259640Y105901100D03*
D22*
X68179640Y105901100D03*
G04 #@! TD*
D21*
G04 #@! TO.C,D18*
X78009640Y86901100D03*
D22*
X72929640Y86901100D03*
G04 #@! TD*
D21*
G04 #@! TO.C,D19*
X68509640Y67901100D03*
D22*
X63429640Y67901100D03*
G04 #@! TD*
D21*
G04 #@! TO.C,D22*
X78009640Y143901100D03*
D22*
X72929640Y143901100D03*
G04 #@! TD*
D21*
G04 #@! TO.C,D23*
X82759640Y124901100D03*
D22*
X77679640Y124901100D03*
G04 #@! TD*
D21*
G04 #@! TO.C,D24*
X92259640Y105901100D03*
D22*
X87179640Y105901100D03*
G04 #@! TD*
D21*
G04 #@! TO.C,D25*
X97009640Y86901100D03*
D22*
X91929640Y86901100D03*
G04 #@! TD*
D21*
G04 #@! TO.C,D26*
X87509640Y67901100D03*
D22*
X82429640Y67901100D03*
G04 #@! TD*
D21*
G04 #@! TO.C,D27*
X63500000Y55000000D03*
D22*
X63500000Y60080000D03*
G04 #@! TD*
D21*
G04 #@! TO.C,D29*
X97009640Y144401100D03*
D22*
X91929640Y144401100D03*
G04 #@! TD*
D21*
G04 #@! TO.C,D30*
X101759640Y124901100D03*
D22*
X96679640Y124901100D03*
G04 #@! TD*
D21*
G04 #@! TO.C,D31*
X111259640Y105901100D03*
D22*
X106179640Y105901100D03*
G04 #@! TD*
D21*
G04 #@! TO.C,D32*
X116009640Y86901100D03*
D22*
X110929640Y86901100D03*
G04 #@! TD*
D21*
G04 #@! TO.C,D33*
X106509640Y67901100D03*
D22*
X101429640Y67901100D03*
G04 #@! TD*
D21*
G04 #@! TO.C,D34*
X85009640Y54901100D03*
D22*
X85009640Y59981100D03*
G04 #@! TD*
D21*
G04 #@! TO.C,D36*
X116009640Y143901100D03*
D22*
X110929640Y143901100D03*
G04 #@! TD*
D21*
G04 #@! TO.C,D37*
X120759640Y124901100D03*
D22*
X115679640Y124901100D03*
G04 #@! TD*
D21*
G04 #@! TO.C,D38*
X130259640Y105901100D03*
D22*
X125179640Y105901100D03*
G04 #@! TD*
D21*
G04 #@! TO.C,D39*
X135009640Y86901100D03*
D22*
X129929640Y86901100D03*
G04 #@! TD*
D21*
G04 #@! TO.C,D40*
X125509640Y67901100D03*
D22*
X120429640Y67901100D03*
G04 #@! TD*
D21*
G04 #@! TO.C,D41*
X116009640Y48901100D03*
D22*
X110929640Y48901100D03*
G04 #@! TD*
D21*
G04 #@! TO.C,D42*
X106259640Y46151100D03*
D22*
X106259640Y41071100D03*
G04 #@! TD*
D21*
G04 #@! TO.C,D43*
X135009640Y143901100D03*
D22*
X129929640Y143901100D03*
G04 #@! TD*
D21*
G04 #@! TO.C,D44*
X140009640Y124901100D03*
D22*
X134929640Y124901100D03*
G04 #@! TD*
D21*
G04 #@! TO.C,D45*
X149259640Y105901100D03*
D22*
X144179640Y105901100D03*
G04 #@! TD*
D21*
G04 #@! TO.C,D46*
X154009640Y86901100D03*
D22*
X148929640Y86901100D03*
G04 #@! TD*
D21*
G04 #@! TO.C,D47*
X144509640Y67901100D03*
D22*
X139429640Y67901100D03*
G04 #@! TD*
D21*
G04 #@! TO.C,D48*
X135009640Y48901100D03*
D22*
X129929640Y48901100D03*
G04 #@! TD*
D21*
G04 #@! TO.C,D49*
X124259640Y46151100D03*
D22*
X124259640Y41071100D03*
G04 #@! TD*
D21*
G04 #@! TO.C,D50*
X173009640Y143901100D03*
D22*
X167929640Y143901100D03*
G04 #@! TD*
D21*
G04 #@! TO.C,D51*
X158759640Y124901100D03*
D22*
X153679640Y124901100D03*
G04 #@! TD*
D21*
G04 #@! TO.C,D52*
X168259640Y105901100D03*
D22*
X163179640Y105901100D03*
G04 #@! TD*
D21*
G04 #@! TO.C,D53*
X173009640Y86901100D03*
D22*
X167929640Y86901100D03*
G04 #@! TD*
D21*
G04 #@! TO.C,D54*
X163509640Y67901100D03*
D22*
X158429640Y67901100D03*
G04 #@! TD*
D21*
G04 #@! TO.C,D55*
X165759640Y48901100D03*
D22*
X160679640Y48901100D03*
G04 #@! TD*
D21*
G04 #@! TO.C,D56*
X144259640Y46151100D03*
D22*
X144259640Y41071100D03*
G04 #@! TD*
D21*
G04 #@! TO.C,D57*
X192009640Y143901100D03*
D22*
X186929640Y143901100D03*
G04 #@! TD*
D21*
G04 #@! TO.C,D58*
X177759640Y124901100D03*
D22*
X172679640Y124901100D03*
G04 #@! TD*
D21*
G04 #@! TO.C,D59*
X187259640Y105901100D03*
D22*
X182179640Y105901100D03*
G04 #@! TD*
D21*
G04 #@! TO.C,D60*
X192009640Y86901100D03*
D22*
X186929640Y86901100D03*
G04 #@! TD*
D21*
G04 #@! TO.C,D61*
X182509640Y67901100D03*
D22*
X177429640Y67901100D03*
G04 #@! TD*
D21*
G04 #@! TO.C,D62*
X196759640Y48901100D03*
D22*
X191679640Y48901100D03*
G04 #@! TD*
D21*
G04 #@! TO.C,D63*
X180259640Y46651100D03*
D22*
X180259640Y41571100D03*
G04 #@! TD*
D21*
G04 #@! TO.C,D64*
X211009640Y143901100D03*
D22*
X205929640Y143901100D03*
G04 #@! TD*
D21*
G04 #@! TO.C,D65*
X196759640Y124901100D03*
D22*
X191679640Y124901100D03*
G04 #@! TD*
D21*
G04 #@! TO.C,D66*
X206259640Y105901100D03*
D22*
X201179640Y105901100D03*
G04 #@! TD*
D21*
G04 #@! TO.C,D67*
X211009640Y86901100D03*
D22*
X205929640Y86901100D03*
G04 #@! TD*
D21*
G04 #@! TO.C,D68*
X201509640Y67901100D03*
D22*
X196429640Y67901100D03*
G04 #@! TD*
D21*
G04 #@! TO.C,D69*
X215759640Y48901100D03*
D22*
X210679640Y48901100D03*
G04 #@! TD*
D21*
G04 #@! TO.C,D71*
X230009640Y143901100D03*
D22*
X224929640Y143901100D03*
G04 #@! TD*
D21*
G04 #@! TO.C,D72*
X215759640Y124901100D03*
D22*
X210679640Y124901100D03*
G04 #@! TD*
D21*
G04 #@! TO.C,D73*
X225259640Y105901100D03*
D22*
X220179640Y105901100D03*
G04 #@! TD*
D21*
G04 #@! TO.C,D74*
X230009640Y86901100D03*
D22*
X224929640Y86901100D03*
G04 #@! TD*
D21*
G04 #@! TO.C,D75*
X220509640Y67901100D03*
D22*
X215429640Y67901100D03*
G04 #@! TD*
D21*
G04 #@! TO.C,D76*
X234759640Y48901100D03*
D22*
X229679640Y48901100D03*
G04 #@! TD*
D21*
G04 #@! TO.C,D78*
X249009640Y143901100D03*
D22*
X243929640Y143901100D03*
G04 #@! TD*
D21*
G04 #@! TO.C,D79*
X234759640Y124901100D03*
D22*
X229679640Y124901100D03*
G04 #@! TD*
D21*
G04 #@! TO.C,D80*
X244259640Y105901100D03*
D22*
X239179640Y105901100D03*
G04 #@! TD*
D21*
G04 #@! TO.C,D81*
X249009640Y86901100D03*
D22*
X243929640Y86901100D03*
G04 #@! TD*
D21*
G04 #@! TO.C,D82*
X239509640Y67901100D03*
D22*
X234429640Y67901100D03*
G04 #@! TD*
D21*
G04 #@! TO.C,D83*
X244009640Y65151100D03*
D22*
X244009640Y60071100D03*
G04 #@! TD*
D21*
G04 #@! TO.C,D85*
X268009640Y143901100D03*
D22*
X262929640Y143901100D03*
G04 #@! TD*
D21*
G04 #@! TO.C,D86*
X253759640Y124901100D03*
D22*
X248679640Y124901100D03*
G04 #@! TD*
D21*
G04 #@! TO.C,D87*
X263259640Y105901100D03*
D22*
X258179640Y105901100D03*
G04 #@! TD*
D21*
G04 #@! TO.C,D88*
X280009640Y86901100D03*
D22*
X274929640Y86901100D03*
G04 #@! TD*
D21*
G04 #@! TO.C,D89*
X258509640Y67901100D03*
D22*
X253429640Y67901100D03*
G04 #@! TD*
D21*
G04 #@! TO.C,D92*
X291759640Y143901100D03*
D22*
X286679640Y143901100D03*
G04 #@! TD*
D21*
G04 #@! TO.C,D93*
X282259640Y124901100D03*
D22*
X277179640Y124901100D03*
G04 #@! TD*
D21*
G04 #@! TO.C,D94*
X287009640Y105901100D03*
D22*
X281929640Y105901100D03*
G04 #@! TD*
D21*
G04 #@! TO.C,D96*
X268009640Y84401100D03*
D22*
X268009640Y79321100D03*
G04 #@! TD*
D21*
G04 #@! TO.C,D8*
X40009640Y143901100D03*
D22*
X34929640Y143901100D03*
G04 #@! TD*
D12*
G04 #@! TO.C,MH*
X303500000Y36000000D03*
G04 #@! TD*
D19*
G04 #@! TO.C,J5*
X221000000Y316000000D03*
D20*
X221000000Y318540000D03*
X221000000Y321080000D03*
X221000000Y323620000D03*
X221000000Y326160000D03*
G04 #@! TD*
M02*
